<svg xmlns="http://www.w3.org/2000/svg" xmlns:xlink="http://www.w3.org/1999/xlink" width="485" zoomAndPan="magnify" viewBox="0 0 363.75 198.749996" height="265" preserveAspectRatio="xMidYMid meet" version="1.0"><defs><g/><clipPath id="509af13a23"><path d="M 18.460938 0 L 53.664062 0 L 53.664062 35.207031 L 18.460938 35.207031 Z M 18.460938 0 " clip-rule="nonzero"/></clipPath><clipPath id="39ad6a791e"><path d="M 36.0625 0 C 26.339844 0 18.460938 7.882812 18.460938 17.601562 C 18.460938 27.324219 26.339844 35.207031 36.0625 35.207031 C 45.785156 35.207031 53.664062 27.324219 53.664062 17.601562 C 53.664062 7.882812 45.785156 0 36.0625 0 Z M 36.0625 0 " clip-rule="nonzero"/></clipPath><clipPath id="a340183123"><path d="M 18.460938 131.460938 L 53.664062 131.460938 L 53.664062 166.664062 L 18.460938 166.664062 Z M 18.460938 131.460938 " clip-rule="nonzero"/></clipPath><clipPath id="73a8d4dab8"><path d="M 36.0625 131.460938 C 26.339844 131.460938 18.460938 139.339844 18.460938 149.0625 C 18.460938 158.785156 26.339844 166.664062 36.0625 166.664062 C 45.785156 166.664062 53.664062 158.785156 53.664062 149.0625 C 53.664062 139.339844 45.785156 131.460938 36.0625 131.460938 Z M 36.0625 131.460938 " clip-rule="nonzero"/></clipPath><clipPath id="e86e51187c"><path d="M 18.460938 49.0625 L 53.664062 49.0625 L 53.664062 84.269531 L 18.460938 84.269531 Z M 18.460938 49.0625 " clip-rule="nonzero"/></clipPath><clipPath id="2511b0e17c"><path d="M 36.0625 49.0625 C 26.339844 49.0625 18.460938 56.945312 18.460938 66.667969 C 18.460938 76.386719 26.339844 84.269531 36.0625 84.269531 C 45.785156 84.269531 53.664062 76.386719 53.664062 66.667969 C 53.664062 56.945312 45.785156 49.0625 36.0625 49.0625 Z M 36.0625 49.0625 " clip-rule="nonzero"/></clipPath><clipPath id="c5a64915b1"><path d="M 113.589844 92.957031 L 148.796875 92.957031 L 148.796875 128.164062 L 113.589844 128.164062 Z M 113.589844 92.957031 " clip-rule="nonzero"/></clipPath><clipPath id="dc05baa21d"><path d="M 131.195312 92.957031 C 121.472656 92.957031 113.589844 100.839844 113.589844 110.5625 C 113.589844 120.28125 121.472656 128.164062 131.195312 128.164062 C 140.914062 128.164062 148.796875 120.28125 148.796875 110.5625 C 148.796875 100.839844 140.914062 92.957031 131.195312 92.957031 Z M 131.195312 92.957031 " clip-rule="nonzero"/></clipPath><clipPath id="d7e1d7367c"><path d="M 113.589844 25.09375 L 148.796875 25.09375 L 148.796875 60.300781 L 113.589844 60.300781 Z M 113.589844 25.09375 " clip-rule="nonzero"/></clipPath><clipPath id="c60ab6739a"><path d="M 131.195312 25.09375 C 121.472656 25.09375 113.589844 32.972656 113.589844 42.695312 C 113.589844 52.417969 121.472656 60.300781 131.195312 60.300781 C 140.914062 60.300781 148.796875 52.417969 148.796875 42.695312 C 148.796875 32.972656 140.914062 25.09375 131.195312 25.09375 Z M 131.195312 25.09375 " clip-rule="nonzero"/></clipPath><clipPath id="1bd70de342"><path d="M 208.722656 92.957031 L 243.925781 92.957031 L 243.925781 128.164062 L 208.722656 128.164062 Z M 208.722656 92.957031 " clip-rule="nonzero"/></clipPath><clipPath id="0ba1c69d17"><path d="M 226.324219 92.957031 C 216.601562 92.957031 208.722656 100.839844 208.722656 110.5625 C 208.722656 120.28125 216.601562 128.164062 226.324219 128.164062 C 236.046875 128.164062 243.925781 120.28125 243.925781 110.5625 C 243.925781 100.839844 236.046875 92.957031 226.324219 92.957031 Z M 226.324219 92.957031 " clip-rule="nonzero"/></clipPath><clipPath id="8107c796ec"><path d="M 208.722656 25.09375 L 243.925781 25.09375 L 243.925781 60.300781 L 208.722656 60.300781 Z M 208.722656 25.09375 " clip-rule="nonzero"/></clipPath><clipPath id="fdb74e5574"><path d="M 226.324219 25.09375 C 216.601562 25.09375 208.722656 32.972656 208.722656 42.695312 C 208.722656 52.417969 216.601562 60.300781 226.324219 60.300781 C 236.046875 60.300781 243.925781 52.417969 243.925781 42.695312 C 243.925781 32.972656 236.046875 25.09375 226.324219 25.09375 Z M 226.324219 25.09375 " clip-rule="nonzero"/></clipPath><clipPath id="46c462b15b"><path d="M 303.851562 57.753906 L 339.058594 57.753906 L 339.058594 92.957031 L 303.851562 92.957031 Z M 303.851562 57.753906 " clip-rule="nonzero"/></clipPath><clipPath id="9a4204af6b"><path d="M 321.453125 57.753906 C 311.730469 57.753906 303.851562 65.632812 303.851562 75.355469 C 303.851562 85.078125 311.730469 92.957031 321.453125 92.957031 C 331.175781 92.957031 339.058594 85.078125 339.058594 75.355469 C 339.058594 65.632812 331.175781 57.753906 321.453125 57.753906 Z M 321.453125 57.753906 " clip-rule="nonzero"/></clipPath></defs><g clip-path="url(#509af13a23)"><g clip-path="url(#39ad6a791e)"><path fill="#f9b96e" d="M 18.460938 0 L 53.664062 0 L 53.664062 35.207031 L 18.460938 35.207031 Z M 18.460938 0 " fill-opacity="1" fill-rule="nonzero"/></g></g><g clip-path="url(#a340183123)"><g clip-path="url(#73a8d4dab8)"><path fill="#f9b96e" d="M 18.460938 131.460938 L 53.664062 131.460938 L 53.664062 166.664062 L 18.460938 166.664062 Z M 18.460938 131.460938 " fill-opacity="1" fill-rule="nonzero"/></g></g><g clip-path="url(#e86e51187c)"><g clip-path="url(#2511b0e17c)"><path fill="#f9b96e" d="M 18.460938 49.0625 L 53.664062 49.0625 L 53.664062 84.269531 L 18.460938 84.269531 Z M 18.460938 49.0625 " fill-opacity="1" fill-rule="nonzero"/></g></g><g fill="#0c457d" fill-opacity="1"><g transform="translate(37.570906, 122.611639)"><g><path d="M 0.15625 -4.015625 C 0.15625 -3.441406 -0.00390625 -2.988281 -0.328125 -2.65625 C -0.648438 -2.332031 -1.070312 -2.171875 -1.59375 -2.171875 C -2.113281 -2.171875 -2.539062 -2.332031 -2.875 -2.65625 C -3.207031 -2.988281 -3.375 -3.441406 -3.375 -4.015625 C -3.375 -4.585938 -3.210938 -5.035156 -2.890625 -5.359375 C -2.578125 -5.691406 -2.15625 -5.859375 -1.625 -5.859375 C -1.09375 -5.859375 -0.660156 -5.691406 -0.328125 -5.359375 C -0.00390625 -5.023438 0.15625 -4.578125 0.15625 -4.015625 Z M 0.15625 -4.015625 "/></g></g></g><g fill="#0c457d" fill-opacity="1"><g transform="translate(37.570906, 114.576115)"><g><path d="M 0.15625 -4.015625 C 0.15625 -3.441406 -0.00390625 -2.988281 -0.328125 -2.65625 C -0.648438 -2.332031 -1.070312 -2.171875 -1.59375 -2.171875 C -2.113281 -2.171875 -2.539062 -2.332031 -2.875 -2.65625 C -3.207031 -2.988281 -3.375 -3.441406 -3.375 -4.015625 C -3.375 -4.585938 -3.210938 -5.035156 -2.890625 -5.359375 C -2.578125 -5.691406 -2.15625 -5.859375 -1.625 -5.859375 C -1.09375 -5.859375 -0.660156 -5.691406 -0.328125 -5.359375 C -0.00390625 -5.023438 0.15625 -4.578125 0.15625 -4.015625 Z M 0.15625 -4.015625 "/></g></g></g><g fill="#0c457d" fill-opacity="1"><g transform="translate(37.570906, 106.54059)"><g><path d="M 0.15625 -4.015625 C 0.15625 -3.441406 -0.00390625 -2.988281 -0.328125 -2.65625 C -0.648438 -2.332031 -1.070312 -2.171875 -1.59375 -2.171875 C -2.113281 -2.171875 -2.539062 -2.332031 -2.875 -2.65625 C -3.207031 -2.988281 -3.375 -3.441406 -3.375 -4.015625 C -3.375 -4.585938 -3.210938 -5.035156 -2.890625 -5.359375 C -2.578125 -5.691406 -2.15625 -5.859375 -1.625 -5.859375 C -1.09375 -5.859375 -0.660156 -5.691406 -0.328125 -5.359375 C -0.00390625 -5.023438 0.15625 -4.578125 0.15625 -4.015625 Z M 0.15625 -4.015625 "/></g></g></g><g clip-path="url(#c5a64915b1)"><g clip-path="url(#dc05baa21d)"><path fill="#4070a0" d="M 113.589844 92.957031 L 148.796875 92.957031 L 148.796875 128.164062 L 113.589844 128.164062 Z M 113.589844 92.957031 " fill-opacity="1" fill-rule="nonzero"/></g></g><g clip-path="url(#d7e1d7367c)"><g clip-path="url(#c60ab6739a)"><path fill="#4070a0" d="M 113.589844 25.09375 L 148.796875 25.09375 L 148.796875 60.300781 L 113.589844 60.300781 Z M 113.589844 25.09375 " fill-opacity="1" fill-rule="nonzero"/></g></g><g clip-path="url(#1bd70de342)"><g clip-path="url(#0ba1c69d17)"><path fill="#4070a0" d="M 208.722656 92.957031 L 243.925781 92.957031 L 243.925781 128.164062 L 208.722656 128.164062 Z M 208.722656 92.957031 " fill-opacity="1" fill-rule="nonzero"/></g></g><g clip-path="url(#8107c796ec)"><g clip-path="url(#fdb74e5574)"><path fill="#4070a0" d="M 208.722656 25.09375 L 243.925781 25.09375 L 243.925781 60.300781 L 208.722656 60.300781 Z M 208.722656 25.09375 " fill-opacity="1" fill-rule="nonzero"/></g></g><g clip-path="url(#46c462b15b)"><g clip-path="url(#9a4204af6b)"><path fill="#caebf2" d="M 303.851562 57.753906 L 339.058594 57.753906 L 339.058594 92.957031 L 303.851562 92.957031 Z M 303.851562 57.753906 " fill-opacity="1" fill-rule="nonzero"/></g></g><g fill="#0c457d" fill-opacity="1"><g transform="translate(283.125752, 115.055066)"><g><path d="M 4.6875 0.125 C 3.945312 0.125 3.285156 -0.0351562 2.703125 -0.359375 C 2.128906 -0.679688 1.675781 -1.171875 1.34375 -1.828125 C 1.019531 -2.484375 0.859375 -3.300781 0.859375 -4.28125 C 0.859375 -5.257812 1.019531 -6.078125 1.34375 -6.734375 C 1.675781 -7.390625 2.128906 -7.875 2.703125 -8.1875 C 3.285156 -8.507812 3.945312 -8.671875 4.6875 -8.671875 C 5.4375 -8.671875 6.097656 -8.507812 6.671875 -8.1875 C 7.242188 -7.875 7.695312 -7.390625 8.03125 -6.734375 C 8.363281 -6.078125 8.53125 -5.257812 8.53125 -4.28125 C 8.53125 -3.300781 8.363281 -2.484375 8.03125 -1.828125 C 7.695312 -1.171875 7.242188 -0.679688 6.671875 -0.359375 C 6.097656 -0.0351562 5.4375 0.125 4.6875 0.125 Z M 4.6875 -0.8125 C 5.582031 -0.8125 6.265625 -1.085938 6.734375 -1.640625 C 7.210938 -2.191406 7.453125 -3.070312 7.453125 -4.28125 C 7.453125 -5.476562 7.210938 -6.351562 6.734375 -6.90625 C 6.265625 -7.46875 5.582031 -7.75 4.6875 -7.75 C 2.851562 -7.75 1.9375 -6.59375 1.9375 -4.28125 C 1.9375 -1.96875 2.851562 -0.8125 4.6875 -0.8125 Z M 4.6875 -0.8125 "/></g></g><g transform="translate(292.512382, 115.055066)"><g><path d="M 3.1875 0.125 C 2.457031 0.125 1.914062 -0.0664062 1.5625 -0.453125 C 1.207031 -0.835938 1.03125 -1.40625 1.03125 -2.15625 L 1.03125 -6.453125 L 1.984375 -6.453125 L 1.984375 -2.171875 C 1.984375 -1.191406 2.441406 -0.703125 3.359375 -0.703125 C 3.941406 -0.703125 4.398438 -0.894531 4.734375 -1.28125 C 5.078125 -1.664062 5.25 -2.285156 5.25 -3.140625 L 5.25 -6.453125 L 6.203125 -6.453125 L 6.203125 0 L 5.3125 0 L 5.3125 -1.015625 L 5.1875 -1.046875 C 4.957031 -0.648438 4.6875 -0.351562 4.375 -0.15625 C 4.070312 0.03125 3.675781 0.125 3.1875 0.125 Z M 3.1875 0.125 "/></g></g><g transform="translate(299.844955, 115.055066)"><g><path d="M 4.359375 -1.03125 L 4.671875 -0.34375 C 4.515625 -0.1875 4.3125 -0.0703125 4.0625 0 C 3.820312 0.0820312 3.554688 0.125 3.265625 0.125 C 2.035156 0.125 1.421875 -0.5 1.421875 -1.75 L 1.421875 -5.671875 L 0.296875 -5.671875 L 0.296875 -6.453125 L 1.421875 -6.453125 L 1.421875 -7.828125 L 2.375 -7.984375 L 2.375 -6.453125 L 4.453125 -6.453125 L 4.453125 -5.671875 L 2.375 -5.671875 L 2.375 -1.84375 C 2.375 -1.101562 2.691406 -0.734375 3.328125 -0.734375 C 3.679688 -0.734375 3.988281 -0.832031 4.25 -1.03125 Z M 4.359375 -1.03125 "/></g></g><g transform="translate(304.760647, 115.055066)"><g><path d="M 1.125 2.609375 L 1.125 -6.453125 L 2.078125 -6.453125 L 2.078125 -5.484375 L 2.203125 -5.46875 C 2.679688 -6.207031 3.382812 -6.578125 4.3125 -6.578125 C 4.851562 -6.578125 5.320312 -6.453125 5.71875 -6.203125 C 6.125 -5.960938 6.4375 -5.59375 6.65625 -5.09375 C 6.882812 -4.59375 7 -3.96875 7 -3.21875 C 7 -2.488281 6.878906 -1.875 6.640625 -1.375 C 6.410156 -0.875 6.085938 -0.5 5.671875 -0.25 C 5.253906 0 4.78125 0.125 4.25 0.125 C 3.8125 0.125 3.421875 0.0507812 3.078125 -0.09375 C 2.734375 -0.25 2.441406 -0.503906 2.203125 -0.859375 L 2.078125 -0.828125 L 2.078125 2.609375 Z M 4.03125 -0.734375 C 5.34375 -0.734375 6 -1.5625 6 -3.21875 C 6 -4.882812 5.34375 -5.71875 4.03125 -5.71875 C 3.644531 -5.71875 3.304688 -5.628906 3.015625 -5.453125 C 2.722656 -5.285156 2.492188 -5.015625 2.328125 -4.640625 C 2.160156 -4.265625 2.078125 -3.789062 2.078125 -3.21875 C 2.078125 -2.65625 2.160156 -2.1875 2.328125 -1.8125 C 2.492188 -1.445312 2.722656 -1.175781 3.015625 -1 C 3.304688 -0.820312 3.644531 -0.734375 4.03125 -0.734375 Z M 4.03125 -0.734375 "/></g></g><g transform="translate(312.461897, 115.055066)"><g><path d="M 3.1875 0.125 C 2.457031 0.125 1.914062 -0.0664062 1.5625 -0.453125 C 1.207031 -0.835938 1.03125 -1.40625 1.03125 -2.15625 L 1.03125 -6.453125 L 1.984375 -6.453125 L 1.984375 -2.171875 C 1.984375 -1.191406 2.441406 -0.703125 3.359375 -0.703125 C 3.941406 -0.703125 4.398438 -0.894531 4.734375 -1.28125 C 5.078125 -1.664062 5.25 -2.285156 5.25 -3.140625 L 5.25 -6.453125 L 6.203125 -6.453125 L 6.203125 0 L 5.3125 0 L 5.3125 -1.015625 L 5.1875 -1.046875 C 4.957031 -0.648438 4.6875 -0.351562 4.375 -0.15625 C 4.070312 0.03125 3.675781 0.125 3.1875 0.125 Z M 3.1875 0.125 "/></g></g><g transform="translate(319.79447, 115.055066)"><g><path d="M 4.359375 -1.03125 L 4.671875 -0.34375 C 4.515625 -0.1875 4.3125 -0.0703125 4.0625 0 C 3.820312 0.0820312 3.554688 0.125 3.265625 0.125 C 2.035156 0.125 1.421875 -0.5 1.421875 -1.75 L 1.421875 -5.671875 L 0.296875 -5.671875 L 0.296875 -6.453125 L 1.421875 -6.453125 L 1.421875 -7.828125 L 2.375 -7.984375 L 2.375 -6.453125 L 4.453125 -6.453125 L 4.453125 -5.671875 L 2.375 -5.671875 L 2.375 -1.84375 C 2.375 -1.101562 2.691406 -0.734375 3.328125 -0.734375 C 3.679688 -0.734375 3.988281 -0.832031 4.25 -1.03125 Z M 4.359375 -1.03125 "/></g></g><g transform="translate(324.710161, 115.055066)"><g/></g><g transform="translate(327.647872, 115.055066)"><g><path d="M 2.296875 -8.5625 L 2.296875 -0.828125 L 6.421875 -0.828125 L 6.421875 0 L 1.296875 0 L 1.296875 -8.5625 Z M 2.296875 -8.5625 "/></g></g><g transform="translate(334.430356, 115.055066)"><g><path d="M 2.65625 0.125 C 2.019531 0.125 1.523438 -0.0390625 1.171875 -0.375 C 0.816406 -0.707031 0.640625 -1.179688 0.640625 -1.796875 C 0.640625 -2.179688 0.71875 -2.503906 0.875 -2.765625 C 1.03125 -3.023438 1.273438 -3.238281 1.609375 -3.40625 C 1.941406 -3.570312 2.375 -3.703125 2.90625 -3.796875 C 3.375 -3.867188 3.726562 -3.953125 3.96875 -4.046875 C 4.21875 -4.148438 4.382812 -4.257812 4.46875 -4.375 C 4.550781 -4.5 4.59375 -4.65625 4.59375 -4.84375 C 4.59375 -5.132812 4.488281 -5.359375 4.28125 -5.515625 C 4.082031 -5.671875 3.765625 -5.75 3.328125 -5.75 C 2.910156 -5.75 2.550781 -5.664062 2.25 -5.5 C 1.945312 -5.34375 1.671875 -5.101562 1.421875 -4.78125 L 1.3125 -4.78125 L 0.84375 -5.4375 C 1.113281 -5.789062 1.457031 -6.066406 1.875 -6.265625 C 2.300781 -6.472656 2.785156 -6.578125 3.328125 -6.578125 C 4.085938 -6.578125 4.644531 -6.410156 5 -6.078125 C 5.363281 -5.742188 5.546875 -5.28125 5.546875 -4.6875 L 5.546875 -1.265625 C 5.546875 -0.910156 5.695312 -0.734375 6 -0.734375 C 6.101562 -0.734375 6.203125 -0.75 6.296875 -0.78125 L 6.375 -0.765625 L 6.484375 -0.09375 C 6.421875 -0.0507812 6.328125 -0.0195312 6.203125 0 C 6.085938 0.03125 5.972656 0.046875 5.859375 0.046875 C 5.503906 0.046875 5.234375 -0.03125 5.046875 -0.1875 C 4.867188 -0.34375 4.753906 -0.570312 4.703125 -0.875 L 4.578125 -0.890625 C 4.398438 -0.546875 4.15625 -0.289062 3.84375 -0.125 C 3.53125 0.0390625 3.132812 0.125 2.65625 0.125 Z M 2.875 -0.640625 C 3.226562 -0.640625 3.535156 -0.722656 3.796875 -0.890625 C 4.066406 -1.054688 4.269531 -1.285156 4.40625 -1.578125 C 4.550781 -1.878906 4.625 -2.226562 4.625 -2.625 L 4.625 -3.453125 L 4.515625 -3.46875 C 4.367188 -3.363281 4.191406 -3.273438 3.984375 -3.203125 C 3.773438 -3.140625 3.488281 -3.082031 3.125 -3.03125 C 2.75 -2.976562 2.445312 -2.898438 2.21875 -2.796875 C 2 -2.691406 1.84375 -2.554688 1.75 -2.390625 C 1.65625 -2.234375 1.609375 -2.035156 1.609375 -1.796875 C 1.609375 -1.421875 1.71875 -1.132812 1.9375 -0.9375 C 2.164062 -0.738281 2.476562 -0.640625 2.875 -0.640625 Z M 2.875 -0.640625 "/></g></g><g transform="translate(341.107504, 115.055066)"><g><path d="M 1.296875 2.734375 C 1.078125 2.734375 0.867188 2.710938 0.671875 2.671875 C 0.484375 2.640625 0.320312 2.59375 0.1875 2.53125 L 0.375 1.765625 L 0.46875 1.734375 C 0.5625 1.785156 0.675781 1.828125 0.8125 1.859375 C 0.957031 1.890625 1.109375 1.90625 1.265625 1.90625 C 1.523438 1.90625 1.738281 1.867188 1.90625 1.796875 C 2.082031 1.734375 2.226562 1.617188 2.34375 1.453125 C 2.46875 1.296875 2.582031 1.070312 2.6875 0.78125 L 2.921875 0.15625 L 0.328125 -6.453125 L 1.359375 -6.453125 L 3.390625 -1.1875 L 3.5 -1.1875 L 5.46875 -6.453125 L 6.4375 -6.453125 L 3.5625 1.015625 C 3.394531 1.421875 3.207031 1.75 3 2 C 2.800781 2.257812 2.5625 2.445312 2.28125 2.5625 C 2.007812 2.675781 1.679688 2.734375 1.296875 2.734375 Z M 1.296875 2.734375 "/></g></g><g transform="translate(347.913395, 115.055066)"><g><path d="M 6.15625 -3 L 1.71875 -3 C 1.738281 -2.21875 1.921875 -1.644531 2.265625 -1.28125 C 2.617188 -0.914062 3.101562 -0.734375 3.71875 -0.734375 C 4.175781 -0.734375 4.546875 -0.8125 4.828125 -0.96875 C 5.109375 -1.132812 5.328125 -1.394531 5.484375 -1.75 L 5.609375 -1.75 L 6.234375 -1.375 C 6.046875 -0.90625 5.742188 -0.535156 5.328125 -0.265625 C 4.921875 -0.00390625 4.382812 0.125 3.71875 0.125 C 3.09375 0.125 2.554688 0.00390625 2.109375 -0.234375 C 1.660156 -0.484375 1.3125 -0.859375 1.0625 -1.359375 C 0.820312 -1.859375 0.703125 -2.476562 0.703125 -3.21875 C 0.703125 -3.957031 0.828125 -4.578125 1.078125 -5.078125 C 1.335938 -5.578125 1.6875 -5.953125 2.125 -6.203125 C 2.570312 -6.453125 3.082031 -6.578125 3.65625 -6.578125 C 4.476562 -6.578125 5.125 -6.34375 5.59375 -5.875 C 6.0625 -5.40625 6.296875 -4.710938 6.296875 -3.796875 C 6.296875 -3.441406 6.285156 -3.203125 6.265625 -3.078125 Z M 5.359375 -3.796875 C 5.335938 -4.484375 5.179688 -4.984375 4.890625 -5.296875 C 4.609375 -5.609375 4.195312 -5.765625 3.65625 -5.765625 C 3.09375 -5.765625 2.648438 -5.609375 2.328125 -5.296875 C 2.003906 -4.984375 1.804688 -4.484375 1.734375 -3.796875 Z M 5.359375 -3.796875 "/></g></g><g transform="translate(354.795363, 115.055066)"><g><path d="M 1.125 0 L 1.125 -6.453125 L 2.03125 -6.453125 L 2.03125 -5.4375 L 2.15625 -5.40625 C 2.457031 -6.144531 3.019531 -6.515625 3.84375 -6.515625 C 4.289062 -6.515625 4.625 -6.429688 4.84375 -6.265625 L 4.59375 -5.46875 L 4.484375 -5.4375 C 4.234375 -5.5625 3.96875 -5.625 3.6875 -5.625 C 3.164062 -5.625 2.765625 -5.429688 2.484375 -5.046875 C 2.210938 -4.660156 2.078125 -4.035156 2.078125 -3.171875 L 2.078125 0 Z M 1.125 0 "/></g></g></g><g fill="#0c457d" fill-opacity="1"><g transform="translate(137.999326, 164.118551)"><g><path d="M 6.75 -5.078125 L 6.75 -8.5625 L 7.75 -8.5625 L 7.75 0 L 6.75 0 L 6.75 -4.234375 L 2.296875 -4.234375 L 2.296875 0 L 1.296875 0 L 1.296875 -8.5625 L 2.296875 -8.5625 L 2.296875 -5.078125 Z M 6.75 -5.078125 "/></g></g><g transform="translate(147.046539, 164.118551)"><g><path d="M 1.609375 -7.703125 C 1.398438 -7.703125 1.234375 -7.765625 1.109375 -7.890625 C 0.984375 -8.015625 0.921875 -8.175781 0.921875 -8.375 C 0.921875 -8.570312 0.984375 -8.734375 1.109375 -8.859375 C 1.234375 -8.984375 1.398438 -9.046875 1.609375 -9.046875 C 1.804688 -9.046875 1.96875 -8.984375 2.09375 -8.859375 C 2.21875 -8.734375 2.28125 -8.570312 2.28125 -8.375 C 2.28125 -8.175781 2.21875 -8.015625 2.09375 -7.890625 C 1.96875 -7.765625 1.804688 -7.703125 1.609375 -7.703125 Z M 1.125 0 L 1.125 -6.453125 L 2.078125 -6.453125 L 2.078125 0 Z M 1.125 0 "/></g></g><g transform="translate(150.247591, 164.118551)"><g><path d="M 3.34375 0.125 C 2.820312 0.125 2.363281 0 1.96875 -0.25 C 1.570312 -0.5 1.257812 -0.875 1.03125 -1.375 C 0.8125 -1.875 0.703125 -2.488281 0.703125 -3.21875 C 0.703125 -3.957031 0.816406 -4.578125 1.046875 -5.078125 C 1.285156 -5.578125 1.609375 -5.953125 2.015625 -6.203125 C 2.429688 -6.453125 2.910156 -6.578125 3.453125 -6.578125 C 3.890625 -6.578125 4.273438 -6.492188 4.609375 -6.328125 C 4.953125 -6.171875 5.25 -5.90625 5.5 -5.53125 L 5.625 -5.5625 L 5.625 -9.046875 L 6.578125 -9.046875 L 6.578125 0 L 5.625 0 L 5.625 -0.9375 L 5.5 -0.96875 C 5.289062 -0.644531 5.003906 -0.378906 4.640625 -0.171875 C 4.285156 0.0234375 3.851562 0.125 3.34375 0.125 Z M 3.640625 -0.734375 C 4.242188 -0.734375 4.722656 -0.9375 5.078125 -1.34375 C 5.441406 -1.757812 5.625 -2.382812 5.625 -3.21875 C 5.625 -4.0625 5.441406 -4.6875 5.078125 -5.09375 C 4.722656 -5.507812 4.242188 -5.71875 3.640625 -5.71875 C 3.023438 -5.71875 2.546875 -5.515625 2.203125 -5.109375 C 1.867188 -4.710938 1.703125 -4.082031 1.703125 -3.21875 C 1.703125 -1.5625 2.347656 -0.734375 3.640625 -0.734375 Z M 3.640625 -0.734375 "/></g></g><g transform="translate(157.954693, 164.118551)"><g><path d="M 3.34375 0.125 C 2.820312 0.125 2.363281 0 1.96875 -0.25 C 1.570312 -0.5 1.257812 -0.875 1.03125 -1.375 C 0.8125 -1.875 0.703125 -2.488281 0.703125 -3.21875 C 0.703125 -3.957031 0.816406 -4.578125 1.046875 -5.078125 C 1.285156 -5.578125 1.609375 -5.953125 2.015625 -6.203125 C 2.429688 -6.453125 2.910156 -6.578125 3.453125 -6.578125 C 3.890625 -6.578125 4.273438 -6.492188 4.609375 -6.328125 C 4.953125 -6.171875 5.25 -5.90625 5.5 -5.53125 L 5.625 -5.5625 L 5.625 -9.046875 L 6.578125 -9.046875 L 6.578125 0 L 5.625 0 L 5.625 -0.9375 L 5.5 -0.96875 C 5.289062 -0.644531 5.003906 -0.378906 4.640625 -0.171875 C 4.285156 0.0234375 3.851562 0.125 3.34375 0.125 Z M 3.640625 -0.734375 C 4.242188 -0.734375 4.722656 -0.9375 5.078125 -1.34375 C 5.441406 -1.757812 5.625 -2.382812 5.625 -3.21875 C 5.625 -4.0625 5.441406 -4.6875 5.078125 -5.09375 C 4.722656 -5.507812 4.242188 -5.71875 3.640625 -5.71875 C 3.023438 -5.71875 2.546875 -5.515625 2.203125 -5.109375 C 1.867188 -4.710938 1.703125 -4.082031 1.703125 -3.21875 C 1.703125 -1.5625 2.347656 -0.734375 3.640625 -0.734375 Z M 3.640625 -0.734375 "/></g></g><g transform="translate(165.661795, 164.118551)"><g><path d="M 6.15625 -3 L 1.71875 -3 C 1.738281 -2.21875 1.921875 -1.644531 2.265625 -1.28125 C 2.617188 -0.914062 3.101562 -0.734375 3.71875 -0.734375 C 4.175781 -0.734375 4.546875 -0.8125 4.828125 -0.96875 C 5.109375 -1.132812 5.328125 -1.394531 5.484375 -1.75 L 5.609375 -1.75 L 6.234375 -1.375 C 6.046875 -0.90625 5.742188 -0.535156 5.328125 -0.265625 C 4.921875 -0.00390625 4.382812 0.125 3.71875 0.125 C 3.09375 0.125 2.554688 0.00390625 2.109375 -0.234375 C 1.660156 -0.484375 1.3125 -0.859375 1.0625 -1.359375 C 0.820312 -1.859375 0.703125 -2.476562 0.703125 -3.21875 C 0.703125 -3.957031 0.828125 -4.578125 1.078125 -5.078125 C 1.335938 -5.578125 1.6875 -5.953125 2.125 -6.203125 C 2.570312 -6.453125 3.082031 -6.578125 3.65625 -6.578125 C 4.476562 -6.578125 5.125 -6.34375 5.59375 -5.875 C 6.0625 -5.40625 6.296875 -4.710938 6.296875 -3.796875 C 6.296875 -3.441406 6.285156 -3.203125 6.265625 -3.078125 Z M 5.359375 -3.796875 C 5.335938 -4.484375 5.179688 -4.984375 4.890625 -5.296875 C 4.609375 -5.609375 4.195312 -5.765625 3.65625 -5.765625 C 3.09375 -5.765625 2.648438 -5.609375 2.328125 -5.296875 C 2.003906 -4.984375 1.804688 -4.484375 1.734375 -3.796875 Z M 5.359375 -3.796875 "/></g></g><g transform="translate(172.543763, 164.118551)"><g><path d="M 1.125 0 L 1.125 -6.453125 L 2.03125 -6.453125 L 2.03125 -5.4375 L 2.15625 -5.40625 C 2.363281 -5.789062 2.632812 -6.082031 2.96875 -6.28125 C 3.300781 -6.476562 3.710938 -6.578125 4.203125 -6.578125 C 4.972656 -6.578125 5.53125 -6.378906 5.875 -5.984375 C 6.226562 -5.585938 6.40625 -4.976562 6.40625 -4.15625 L 6.40625 0 L 5.453125 0 L 5.453125 -4.125 C 5.453125 -4.519531 5.398438 -4.832031 5.296875 -5.0625 C 5.203125 -5.300781 5.050781 -5.472656 4.84375 -5.578125 C 4.632812 -5.691406 4.359375 -5.75 4.015625 -5.75 C 3.429688 -5.75 2.960938 -5.554688 2.609375 -5.171875 C 2.253906 -4.785156 2.078125 -4.164062 2.078125 -3.3125 L 2.078125 0 Z M 1.125 0 "/></g></g><g transform="translate(179.97582, 164.118551)"><g/></g><g transform="translate(182.913531, 164.118551)"><g><path d="M 2.296875 -8.5625 L 2.296875 -0.828125 L 6.421875 -0.828125 L 6.421875 0 L 1.296875 0 L 1.296875 -8.5625 Z M 2.296875 -8.5625 "/></g></g><g transform="translate(189.696015, 164.118551)"><g><path d="M 2.65625 0.125 C 2.019531 0.125 1.523438 -0.0390625 1.171875 -0.375 C 0.816406 -0.707031 0.640625 -1.179688 0.640625 -1.796875 C 0.640625 -2.179688 0.71875 -2.503906 0.875 -2.765625 C 1.03125 -3.023438 1.273438 -3.238281 1.609375 -3.40625 C 1.941406 -3.570312 2.375 -3.703125 2.90625 -3.796875 C 3.375 -3.867188 3.726562 -3.953125 3.96875 -4.046875 C 4.21875 -4.148438 4.382812 -4.257812 4.46875 -4.375 C 4.550781 -4.5 4.59375 -4.65625 4.59375 -4.84375 C 4.59375 -5.132812 4.488281 -5.359375 4.28125 -5.515625 C 4.082031 -5.671875 3.765625 -5.75 3.328125 -5.75 C 2.910156 -5.75 2.550781 -5.664062 2.25 -5.5 C 1.945312 -5.34375 1.671875 -5.101562 1.421875 -4.78125 L 1.3125 -4.78125 L 0.84375 -5.4375 C 1.113281 -5.789062 1.457031 -6.066406 1.875 -6.265625 C 2.300781 -6.472656 2.785156 -6.578125 3.328125 -6.578125 C 4.085938 -6.578125 4.644531 -6.410156 5 -6.078125 C 5.363281 -5.742188 5.546875 -5.28125 5.546875 -4.6875 L 5.546875 -1.265625 C 5.546875 -0.910156 5.695312 -0.734375 6 -0.734375 C 6.101562 -0.734375 6.203125 -0.75 6.296875 -0.78125 L 6.375 -0.765625 L 6.484375 -0.09375 C 6.421875 -0.0507812 6.328125 -0.0195312 6.203125 0 C 6.085938 0.03125 5.972656 0.046875 5.859375 0.046875 C 5.503906 0.046875 5.234375 -0.03125 5.046875 -0.1875 C 4.867188 -0.34375 4.753906 -0.570312 4.703125 -0.875 L 4.578125 -0.890625 C 4.398438 -0.546875 4.15625 -0.289062 3.84375 -0.125 C 3.53125 0.0390625 3.132812 0.125 2.65625 0.125 Z M 2.875 -0.640625 C 3.226562 -0.640625 3.535156 -0.722656 3.796875 -0.890625 C 4.066406 -1.054688 4.269531 -1.285156 4.40625 -1.578125 C 4.550781 -1.878906 4.625 -2.226562 4.625 -2.625 L 4.625 -3.453125 L 4.515625 -3.46875 C 4.367188 -3.363281 4.191406 -3.273438 3.984375 -3.203125 C 3.773438 -3.140625 3.488281 -3.082031 3.125 -3.03125 C 2.75 -2.976562 2.445312 -2.898438 2.21875 -2.796875 C 2 -2.691406 1.84375 -2.554688 1.75 -2.390625 C 1.65625 -2.234375 1.609375 -2.035156 1.609375 -1.796875 C 1.609375 -1.421875 1.71875 -1.132812 1.9375 -0.9375 C 2.164062 -0.738281 2.476562 -0.640625 2.875 -0.640625 Z M 2.875 -0.640625 "/></g></g><g transform="translate(196.373162, 164.118551)"><g><path d="M 1.296875 2.734375 C 1.078125 2.734375 0.867188 2.710938 0.671875 2.671875 C 0.484375 2.640625 0.320312 2.59375 0.1875 2.53125 L 0.375 1.765625 L 0.46875 1.734375 C 0.5625 1.785156 0.675781 1.828125 0.8125 1.859375 C 0.957031 1.890625 1.109375 1.90625 1.265625 1.90625 C 1.523438 1.90625 1.738281 1.867188 1.90625 1.796875 C 2.082031 1.734375 2.226562 1.617188 2.34375 1.453125 C 2.46875 1.296875 2.582031 1.070312 2.6875 0.78125 L 2.921875 0.15625 L 0.328125 -6.453125 L 1.359375 -6.453125 L 3.390625 -1.1875 L 3.5 -1.1875 L 5.46875 -6.453125 L 6.4375 -6.453125 L 3.5625 1.015625 C 3.394531 1.421875 3.207031 1.75 3 2 C 2.800781 2.257812 2.5625 2.445312 2.28125 2.5625 C 2.007812 2.675781 1.679688 2.734375 1.296875 2.734375 Z M 1.296875 2.734375 "/></g></g><g transform="translate(203.179054, 164.118551)"><g><path d="M 6.15625 -3 L 1.71875 -3 C 1.738281 -2.21875 1.921875 -1.644531 2.265625 -1.28125 C 2.617188 -0.914062 3.101562 -0.734375 3.71875 -0.734375 C 4.175781 -0.734375 4.546875 -0.8125 4.828125 -0.96875 C 5.109375 -1.132812 5.328125 -1.394531 5.484375 -1.75 L 5.609375 -1.75 L 6.234375 -1.375 C 6.046875 -0.90625 5.742188 -0.535156 5.328125 -0.265625 C 4.921875 -0.00390625 4.382812 0.125 3.71875 0.125 C 3.09375 0.125 2.554688 0.00390625 2.109375 -0.234375 C 1.660156 -0.484375 1.3125 -0.859375 1.0625 -1.359375 C 0.820312 -1.859375 0.703125 -2.476562 0.703125 -3.21875 C 0.703125 -3.957031 0.828125 -4.578125 1.078125 -5.078125 C 1.335938 -5.578125 1.6875 -5.953125 2.125 -6.203125 C 2.570312 -6.453125 3.082031 -6.578125 3.65625 -6.578125 C 4.476562 -6.578125 5.125 -6.34375 5.59375 -5.875 C 6.0625 -5.40625 6.296875 -4.710938 6.296875 -3.796875 C 6.296875 -3.441406 6.285156 -3.203125 6.265625 -3.078125 Z M 5.359375 -3.796875 C 5.335938 -4.484375 5.179688 -4.984375 4.890625 -5.296875 C 4.609375 -5.609375 4.195312 -5.765625 3.65625 -5.765625 C 3.09375 -5.765625 2.648438 -5.609375 2.328125 -5.296875 C 2.003906 -4.984375 1.804688 -4.484375 1.734375 -3.796875 Z M 5.359375 -3.796875 "/></g></g><g transform="translate(210.061022, 164.118551)"><g><path d="M 1.125 0 L 1.125 -6.453125 L 2.03125 -6.453125 L 2.03125 -5.4375 L 2.15625 -5.40625 C 2.457031 -6.144531 3.019531 -6.515625 3.84375 -6.515625 C 4.289062 -6.515625 4.625 -6.429688 4.84375 -6.265625 L 4.59375 -5.46875 L 4.484375 -5.4375 C 4.234375 -5.5625 3.96875 -5.625 3.6875 -5.625 C 3.164062 -5.625 2.765625 -5.429688 2.484375 -5.046875 C 2.210938 -4.660156 2.078125 -4.035156 2.078125 -3.171875 L 2.078125 0 Z M 1.125 0 "/></g></g><g transform="translate(215.046938, 164.118551)"><g><path d="M 2.9375 0.125 C 2.53125 0.125 2.15625 0.0703125 1.8125 -0.03125 C 1.46875 -0.144531 1.175781 -0.296875 0.9375 -0.484375 C 0.695312 -0.671875 0.53125 -0.878906 0.4375 -1.109375 L 1 -1.703125 L 1.125 -1.703125 C 1.332031 -1.378906 1.582031 -1.132812 1.875 -0.96875 C 2.175781 -0.8125 2.53125 -0.734375 2.9375 -0.734375 C 3.414062 -0.734375 3.78125 -0.820312 4.03125 -1 C 4.28125 -1.1875 4.40625 -1.445312 4.40625 -1.78125 C 4.40625 -2.039062 4.328125 -2.25 4.171875 -2.40625 C 4.023438 -2.570312 3.785156 -2.695312 3.453125 -2.78125 L 2.359375 -3.046875 C 1.773438 -3.191406 1.347656 -3.414062 1.078125 -3.71875 C 0.816406 -4.019531 0.6875 -4.394531 0.6875 -4.84375 C 0.6875 -5.195312 0.773438 -5.503906 0.953125 -5.765625 C 1.128906 -6.023438 1.382812 -6.222656 1.71875 -6.359375 C 2.0625 -6.503906 2.46875 -6.578125 2.9375 -6.578125 C 3.53125 -6.578125 3.992188 -6.492188 4.328125 -6.328125 C 4.671875 -6.160156 4.9375 -5.929688 5.125 -5.640625 L 4.59375 -5.109375 L 4.484375 -5.109375 C 4.273438 -5.347656 4.046875 -5.519531 3.796875 -5.625 C 3.554688 -5.726562 3.269531 -5.78125 2.9375 -5.78125 C 2.507812 -5.78125 2.179688 -5.703125 1.953125 -5.546875 C 1.722656 -5.398438 1.609375 -5.179688 1.609375 -4.890625 C 1.609375 -4.628906 1.6875 -4.414062 1.84375 -4.25 C 2.007812 -4.09375 2.289062 -3.96875 2.6875 -3.875 L 3.765625 -3.609375 C 4.328125 -3.484375 4.734375 -3.265625 4.984375 -2.953125 C 5.234375 -2.648438 5.359375 -2.265625 5.359375 -1.796875 C 5.359375 -1.421875 5.265625 -1.085938 5.078125 -0.796875 C 4.898438 -0.503906 4.628906 -0.273438 4.265625 -0.109375 C 3.910156 0.046875 3.46875 0.125 2.9375 0.125 Z M 2.9375 0.125 "/></g></g></g><g fill="#0c457d" fill-opacity="1"><g transform="translate(3.034335, 192.432934)"><g><path d="M 2.296875 0 L 1.296875 0 L 1.296875 -8.5625 L 2.296875 -8.5625 Z M 2.296875 0 "/></g></g><g transform="translate(6.633324, 192.432934)"><g><path d="M 1.125 0 L 1.125 -6.453125 L 2.03125 -6.453125 L 2.03125 -5.4375 L 2.15625 -5.40625 C 2.363281 -5.789062 2.632812 -6.082031 2.96875 -6.28125 C 3.300781 -6.476562 3.710938 -6.578125 4.203125 -6.578125 C 4.972656 -6.578125 5.53125 -6.378906 5.875 -5.984375 C 6.226562 -5.585938 6.40625 -4.976562 6.40625 -4.15625 L 6.40625 0 L 5.453125 0 L 5.453125 -4.125 C 5.453125 -4.519531 5.398438 -4.832031 5.296875 -5.0625 C 5.203125 -5.300781 5.050781 -5.472656 4.84375 -5.578125 C 4.632812 -5.691406 4.359375 -5.75 4.015625 -5.75 C 3.429688 -5.75 2.960938 -5.554688 2.609375 -5.171875 C 2.253906 -4.785156 2.078125 -4.164062 2.078125 -3.3125 L 2.078125 0 Z M 1.125 0 "/></g></g><g transform="translate(14.065381, 192.432934)"><g><path d="M 1.125 2.609375 L 1.125 -6.453125 L 2.078125 -6.453125 L 2.078125 -5.484375 L 2.203125 -5.46875 C 2.679688 -6.207031 3.382812 -6.578125 4.3125 -6.578125 C 4.851562 -6.578125 5.320312 -6.453125 5.71875 -6.203125 C 6.125 -5.960938 6.4375 -5.59375 6.65625 -5.09375 C 6.882812 -4.59375 7 -3.96875 7 -3.21875 C 7 -2.488281 6.878906 -1.875 6.640625 -1.375 C 6.410156 -0.875 6.085938 -0.5 5.671875 -0.25 C 5.253906 0 4.78125 0.125 4.25 0.125 C 3.8125 0.125 3.421875 0.0507812 3.078125 -0.09375 C 2.734375 -0.25 2.441406 -0.503906 2.203125 -0.859375 L 2.078125 -0.828125 L 2.078125 2.609375 Z M 4.03125 -0.734375 C 5.34375 -0.734375 6 -1.5625 6 -3.21875 C 6 -4.882812 5.34375 -5.71875 4.03125 -5.71875 C 3.644531 -5.71875 3.304688 -5.628906 3.015625 -5.453125 C 2.722656 -5.285156 2.492188 -5.015625 2.328125 -4.640625 C 2.160156 -4.265625 2.078125 -3.789062 2.078125 -3.21875 C 2.078125 -2.65625 2.160156 -2.1875 2.328125 -1.8125 C 2.492188 -1.445312 2.722656 -1.175781 3.015625 -1 C 3.304688 -0.820312 3.644531 -0.734375 4.03125 -0.734375 Z M 4.03125 -0.734375 "/></g></g><g transform="translate(21.766631, 192.432934)"><g><path d="M 3.1875 0.125 C 2.457031 0.125 1.914062 -0.0664062 1.5625 -0.453125 C 1.207031 -0.835938 1.03125 -1.40625 1.03125 -2.15625 L 1.03125 -6.453125 L 1.984375 -6.453125 L 1.984375 -2.171875 C 1.984375 -1.191406 2.441406 -0.703125 3.359375 -0.703125 C 3.941406 -0.703125 4.398438 -0.894531 4.734375 -1.28125 C 5.078125 -1.664062 5.25 -2.285156 5.25 -3.140625 L 5.25 -6.453125 L 6.203125 -6.453125 L 6.203125 0 L 5.3125 0 L 5.3125 -1.015625 L 5.1875 -1.046875 C 4.957031 -0.648438 4.6875 -0.351562 4.375 -0.15625 C 4.070312 0.03125 3.675781 0.125 3.1875 0.125 Z M 3.1875 0.125 "/></g></g><g transform="translate(29.099204, 192.432934)"><g><path d="M 4.359375 -1.03125 L 4.671875 -0.34375 C 4.515625 -0.1875 4.3125 -0.0703125 4.0625 0 C 3.820312 0.0820312 3.554688 0.125 3.265625 0.125 C 2.035156 0.125 1.421875 -0.5 1.421875 -1.75 L 1.421875 -5.671875 L 0.296875 -5.671875 L 0.296875 -6.453125 L 1.421875 -6.453125 L 1.421875 -7.828125 L 2.375 -7.984375 L 2.375 -6.453125 L 4.453125 -6.453125 L 4.453125 -5.671875 L 2.375 -5.671875 L 2.375 -1.84375 C 2.375 -1.101562 2.691406 -0.734375 3.328125 -0.734375 C 3.679688 -0.734375 3.988281 -0.832031 4.25 -1.03125 Z M 4.359375 -1.03125 "/></g></g><g transform="translate(34.014896, 192.432934)"><g/></g><g transform="translate(36.952606, 192.432934)"><g><path d="M 2.296875 -8.5625 L 2.296875 -0.828125 L 6.421875 -0.828125 L 6.421875 0 L 1.296875 0 L 1.296875 -8.5625 Z M 2.296875 -8.5625 "/></g></g><g transform="translate(43.73509, 192.432934)"><g><path d="M 2.65625 0.125 C 2.019531 0.125 1.523438 -0.0390625 1.171875 -0.375 C 0.816406 -0.707031 0.640625 -1.179688 0.640625 -1.796875 C 0.640625 -2.179688 0.71875 -2.503906 0.875 -2.765625 C 1.03125 -3.023438 1.273438 -3.238281 1.609375 -3.40625 C 1.941406 -3.570312 2.375 -3.703125 2.90625 -3.796875 C 3.375 -3.867188 3.726562 -3.953125 3.96875 -4.046875 C 4.21875 -4.148438 4.382812 -4.257812 4.46875 -4.375 C 4.550781 -4.5 4.59375 -4.65625 4.59375 -4.84375 C 4.59375 -5.132812 4.488281 -5.359375 4.28125 -5.515625 C 4.082031 -5.671875 3.765625 -5.75 3.328125 -5.75 C 2.910156 -5.75 2.550781 -5.664062 2.25 -5.5 C 1.945312 -5.34375 1.671875 -5.101562 1.421875 -4.78125 L 1.3125 -4.78125 L 0.84375 -5.4375 C 1.113281 -5.789062 1.457031 -6.066406 1.875 -6.265625 C 2.300781 -6.472656 2.785156 -6.578125 3.328125 -6.578125 C 4.085938 -6.578125 4.644531 -6.410156 5 -6.078125 C 5.363281 -5.742188 5.546875 -5.28125 5.546875 -4.6875 L 5.546875 -1.265625 C 5.546875 -0.910156 5.695312 -0.734375 6 -0.734375 C 6.101562 -0.734375 6.203125 -0.75 6.296875 -0.78125 L 6.375 -0.765625 L 6.484375 -0.09375 C 6.421875 -0.0507812 6.328125 -0.0195312 6.203125 0 C 6.085938 0.03125 5.972656 0.046875 5.859375 0.046875 C 5.503906 0.046875 5.234375 -0.03125 5.046875 -0.1875 C 4.867188 -0.34375 4.753906 -0.570312 4.703125 -0.875 L 4.578125 -0.890625 C 4.398438 -0.546875 4.15625 -0.289062 3.84375 -0.125 C 3.53125 0.0390625 3.132812 0.125 2.65625 0.125 Z M 2.875 -0.640625 C 3.226562 -0.640625 3.535156 -0.722656 3.796875 -0.890625 C 4.066406 -1.054688 4.269531 -1.285156 4.40625 -1.578125 C 4.550781 -1.878906 4.625 -2.226562 4.625 -2.625 L 4.625 -3.453125 L 4.515625 -3.46875 C 4.367188 -3.363281 4.191406 -3.273438 3.984375 -3.203125 C 3.773438 -3.140625 3.488281 -3.082031 3.125 -3.03125 C 2.75 -2.976562 2.445312 -2.898438 2.21875 -2.796875 C 2 -2.691406 1.84375 -2.554688 1.75 -2.390625 C 1.65625 -2.234375 1.609375 -2.035156 1.609375 -1.796875 C 1.609375 -1.421875 1.71875 -1.132812 1.9375 -0.9375 C 2.164062 -0.738281 2.476562 -0.640625 2.875 -0.640625 Z M 2.875 -0.640625 "/></g></g><g transform="translate(50.412238, 192.432934)"><g><path d="M 1.296875 2.734375 C 1.078125 2.734375 0.867188 2.710938 0.671875 2.671875 C 0.484375 2.640625 0.320312 2.59375 0.1875 2.53125 L 0.375 1.765625 L 0.46875 1.734375 C 0.5625 1.785156 0.675781 1.828125 0.8125 1.859375 C 0.957031 1.890625 1.109375 1.90625 1.265625 1.90625 C 1.523438 1.90625 1.738281 1.867188 1.90625 1.796875 C 2.082031 1.734375 2.226562 1.617188 2.34375 1.453125 C 2.46875 1.296875 2.582031 1.070312 2.6875 0.78125 L 2.921875 0.15625 L 0.328125 -6.453125 L 1.359375 -6.453125 L 3.390625 -1.1875 L 3.5 -1.1875 L 5.46875 -6.453125 L 6.4375 -6.453125 L 3.5625 1.015625 C 3.394531 1.421875 3.207031 1.75 3 2 C 2.800781 2.257812 2.5625 2.445312 2.28125 2.5625 C 2.007812 2.675781 1.679688 2.734375 1.296875 2.734375 Z M 1.296875 2.734375 "/></g></g><g transform="translate(57.21813, 192.432934)"><g><path d="M 6.15625 -3 L 1.71875 -3 C 1.738281 -2.21875 1.921875 -1.644531 2.265625 -1.28125 C 2.617188 -0.914062 3.101562 -0.734375 3.71875 -0.734375 C 4.175781 -0.734375 4.546875 -0.8125 4.828125 -0.96875 C 5.109375 -1.132812 5.328125 -1.394531 5.484375 -1.75 L 5.609375 -1.75 L 6.234375 -1.375 C 6.046875 -0.90625 5.742188 -0.535156 5.328125 -0.265625 C 4.921875 -0.00390625 4.382812 0.125 3.71875 0.125 C 3.09375 0.125 2.554688 0.00390625 2.109375 -0.234375 C 1.660156 -0.484375 1.3125 -0.859375 1.0625 -1.359375 C 0.820312 -1.859375 0.703125 -2.476562 0.703125 -3.21875 C 0.703125 -3.957031 0.828125 -4.578125 1.078125 -5.078125 C 1.335938 -5.578125 1.6875 -5.953125 2.125 -6.203125 C 2.570312 -6.453125 3.082031 -6.578125 3.65625 -6.578125 C 4.476562 -6.578125 5.125 -6.34375 5.59375 -5.875 C 6.0625 -5.40625 6.296875 -4.710938 6.296875 -3.796875 C 6.296875 -3.441406 6.285156 -3.203125 6.265625 -3.078125 Z M 5.359375 -3.796875 C 5.335938 -4.484375 5.179688 -4.984375 4.890625 -5.296875 C 4.609375 -5.609375 4.195312 -5.765625 3.65625 -5.765625 C 3.09375 -5.765625 2.648438 -5.609375 2.328125 -5.296875 C 2.003906 -4.984375 1.804688 -4.484375 1.734375 -3.796875 Z M 5.359375 -3.796875 "/></g></g><g transform="translate(64.100098, 192.432934)"><g><path d="M 1.125 0 L 1.125 -6.453125 L 2.03125 -6.453125 L 2.03125 -5.4375 L 2.15625 -5.40625 C 2.457031 -6.144531 3.019531 -6.515625 3.84375 -6.515625 C 4.289062 -6.515625 4.625 -6.429688 4.84375 -6.265625 L 4.59375 -5.46875 L 4.484375 -5.4375 C 4.234375 -5.5625 3.96875 -5.625 3.6875 -5.625 C 3.164062 -5.625 2.765625 -5.429688 2.484375 -5.046875 C 2.210938 -4.660156 2.078125 -4.035156 2.078125 -3.171875 L 2.078125 0 Z M 1.125 0 "/></g></g></g><g fill="#000000" fill-opacity="1"><g transform="translate(21.950067, 19.933287)"><g><path d="M 4.484375 0 L 3.859375 0 L 3.40625 -1.375 L 1.28125 -1.375 L 0.8125 0 L 0.203125 0 L 1.9375 -4.984375 L 2.75 -4.984375 Z M 2.296875 -4.375 L 1.4375 -1.859375 L 3.234375 -1.859375 L 2.375 -4.375 Z M 2.296875 -4.375 "/></g></g><g transform="translate(26.640515, 19.933287)"><g><path d="M 1.953125 0.078125 C 1.648438 0.078125 1.382812 0.00390625 1.15625 -0.140625 C 0.925781 -0.285156 0.742188 -0.503906 0.609375 -0.796875 C 0.472656 -1.085938 0.40625 -1.445312 0.40625 -1.875 C 0.40625 -2.3125 0.472656 -2.675781 0.609375 -2.96875 C 0.753906 -3.257812 0.945312 -3.472656 1.1875 -3.609375 C 1.425781 -3.753906 1.703125 -3.828125 2.015625 -3.828125 C 2.265625 -3.828125 2.488281 -3.78125 2.6875 -3.6875 C 2.882812 -3.59375 3.054688 -3.4375 3.203125 -3.21875 L 3.28125 -3.234375 L 3.28125 -5.265625 L 3.828125 -5.265625 L 3.828125 0 L 3.28125 0 L 3.28125 -0.546875 L 3.203125 -0.5625 C 3.078125 -0.375 2.910156 -0.21875 2.703125 -0.09375 C 2.492188 0.0195312 2.242188 0.078125 1.953125 0.078125 Z M 2.125 -0.421875 C 2.476562 -0.421875 2.757812 -0.539062 2.96875 -0.78125 C 3.175781 -1.019531 3.28125 -1.382812 3.28125 -1.875 C 3.28125 -2.363281 3.175781 -2.726562 2.96875 -2.96875 C 2.757812 -3.207031 2.476562 -3.328125 2.125 -3.328125 C 1.757812 -3.328125 1.476562 -3.207031 1.28125 -2.96875 C 1.09375 -2.738281 1 -2.375 1 -1.875 C 1 -0.90625 1.375 -0.421875 2.125 -0.421875 Z M 2.125 -0.421875 "/></g></g><g transform="translate(31.13638, 19.933287)"><g><path d="M 0.9375 -4.484375 C 0.8125 -4.484375 0.710938 -4.519531 0.640625 -4.59375 C 0.566406 -4.664062 0.53125 -4.757812 0.53125 -4.875 C 0.53125 -4.988281 0.566406 -5.082031 0.640625 -5.15625 C 0.710938 -5.226562 0.8125 -5.265625 0.9375 -5.265625 C 1.050781 -5.265625 1.144531 -5.226562 1.21875 -5.15625 C 1.289062 -5.082031 1.328125 -4.988281 1.328125 -4.875 C 1.328125 -4.757812 1.289062 -4.664062 1.21875 -4.59375 C 1.144531 -4.519531 1.050781 -4.484375 0.9375 -4.484375 Z M 0.1875 1.59375 C 0.0625 1.59375 -0.0390625 1.582031 -0.125 1.5625 C -0.21875 1.550781 -0.304688 1.53125 -0.390625 1.5 L -0.3125 1.0625 L -0.234375 1.046875 C -0.128906 1.085938 -0.015625 1.109375 0.109375 1.109375 C 0.285156 1.109375 0.421875 1.050781 0.515625 0.9375 C 0.609375 0.820312 0.65625 0.65625 0.65625 0.4375 L 0.65625 -3.765625 L 1.203125 -3.765625 L 1.203125 0.40625 C 1.203125 0.789062 1.113281 1.082031 0.9375 1.28125 C 0.757812 1.488281 0.507812 1.59375 0.1875 1.59375 Z M 0.1875 1.59375 "/></g></g><g transform="translate(33.003684, 19.933287)"><g><path d="M 1.34375 -2.34375 L 1.34375 -0.484375 L 3.875 -0.484375 L 3.875 0 L 0.75 0 L 0.75 -4.984375 L 3.828125 -4.984375 L 3.828125 -4.5 L 1.34375 -4.5 L 1.34375 -2.828125 L 3.53125 -2.828125 L 3.53125 -2.34375 Z M 1.34375 -2.34375 "/></g></g><g transform="translate(37.219624, 19.933287)"><g><path d="M 0.65625 0 L 0.65625 -3.765625 L 1.1875 -3.765625 L 1.1875 -3.203125 L 1.25 -3.1875 C 1.382812 -3.40625 1.539062 -3.566406 1.71875 -3.671875 C 1.894531 -3.773438 2.109375 -3.828125 2.359375 -3.828125 C 2.648438 -3.828125 2.875 -3.769531 3.03125 -3.65625 C 3.195312 -3.550781 3.320312 -3.378906 3.40625 -3.140625 L 3.484375 -3.140625 C 3.617188 -3.367188 3.78125 -3.539062 3.96875 -3.65625 C 4.15625 -3.769531 4.390625 -3.828125 4.671875 -3.828125 C 5.054688 -3.828125 5.34375 -3.722656 5.53125 -3.515625 C 5.71875 -3.304688 5.8125 -2.988281 5.8125 -2.5625 L 5.8125 0 L 5.265625 0 L 5.265625 -2.546875 C 5.265625 -2.816406 5.207031 -3.015625 5.09375 -3.140625 C 4.976562 -3.273438 4.789062 -3.34375 4.53125 -3.34375 C 4.226562 -3.34375 3.984375 -3.234375 3.796875 -3.015625 C 3.609375 -2.796875 3.515625 -2.4375 3.515625 -1.9375 L 3.515625 0 L 2.953125 0 L 2.953125 -2.546875 C 2.953125 -2.816406 2.894531 -3.015625 2.78125 -3.140625 C 2.664062 -3.273438 2.484375 -3.34375 2.234375 -3.34375 C 1.929688 -3.34375 1.679688 -3.238281 1.484375 -3.03125 C 1.296875 -2.820312 1.203125 -2.476562 1.203125 -2 L 1.203125 0 Z M 0.65625 0 "/></g></g><g transform="translate(43.637413, 19.933287)"><g><path d="M 3.015625 0.796875 L 0 0.796875 L 0 0.328125 L 3.015625 0.328125 Z M 3.015625 0.796875 "/></g></g><g transform="translate(46.644898, 19.933287)"><g><path d="M 0.78125 0 L 0.171875 0 L 1.328125 -1.953125 L 0.234375 -3.765625 L 0.859375 -3.765625 L 1.71875 -2.3125 L 1.796875 -2.3125 L 2.671875 -3.765625 L 3.28125 -3.765625 L 2.203125 -1.953125 L 3.328125 0 L 2.703125 0 L 1.78125 -1.59375 L 1.703125 -1.59375 Z M 0.78125 0 "/></g></g></g><g fill="#000000" fill-opacity="1"><g transform="translate(21.722486, 68.996574)"><g><path d="M 4.484375 0 L 3.859375 0 L 3.40625 -1.375 L 1.28125 -1.375 L 0.8125 0 L 0.203125 0 L 1.9375 -4.984375 L 2.75 -4.984375 Z M 2.296875 -4.375 L 1.4375 -1.859375 L 3.234375 -1.859375 L 2.375 -4.375 Z M 2.296875 -4.375 "/></g></g><g transform="translate(26.412934, 68.996574)"><g><path d="M 1.953125 0.078125 C 1.648438 0.078125 1.382812 0.00390625 1.15625 -0.140625 C 0.925781 -0.285156 0.742188 -0.503906 0.609375 -0.796875 C 0.472656 -1.085938 0.40625 -1.445312 0.40625 -1.875 C 0.40625 -2.3125 0.472656 -2.675781 0.609375 -2.96875 C 0.753906 -3.257812 0.945312 -3.472656 1.1875 -3.609375 C 1.425781 -3.753906 1.703125 -3.828125 2.015625 -3.828125 C 2.265625 -3.828125 2.488281 -3.78125 2.6875 -3.6875 C 2.882812 -3.59375 3.054688 -3.4375 3.203125 -3.21875 L 3.28125 -3.234375 L 3.28125 -5.265625 L 3.828125 -5.265625 L 3.828125 0 L 3.28125 0 L 3.28125 -0.546875 L 3.203125 -0.5625 C 3.078125 -0.375 2.910156 -0.21875 2.703125 -0.09375 C 2.492188 0.0195312 2.242188 0.078125 1.953125 0.078125 Z M 2.125 -0.421875 C 2.476562 -0.421875 2.757812 -0.539062 2.96875 -0.78125 C 3.175781 -1.019531 3.28125 -1.382812 3.28125 -1.875 C 3.28125 -2.363281 3.175781 -2.726562 2.96875 -2.96875 C 2.757812 -3.207031 2.476562 -3.328125 2.125 -3.328125 C 1.757812 -3.328125 1.476562 -3.207031 1.28125 -2.96875 C 1.09375 -2.738281 1 -2.375 1 -1.875 C 1 -0.90625 1.375 -0.421875 2.125 -0.421875 Z M 2.125 -0.421875 "/></g></g><g transform="translate(30.908799, 68.996574)"><g><path d="M 0.9375 -4.484375 C 0.8125 -4.484375 0.710938 -4.519531 0.640625 -4.59375 C 0.566406 -4.664062 0.53125 -4.757812 0.53125 -4.875 C 0.53125 -4.988281 0.566406 -5.082031 0.640625 -5.15625 C 0.710938 -5.226562 0.8125 -5.265625 0.9375 -5.265625 C 1.050781 -5.265625 1.144531 -5.226562 1.21875 -5.15625 C 1.289062 -5.082031 1.328125 -4.988281 1.328125 -4.875 C 1.328125 -4.757812 1.289062 -4.664062 1.21875 -4.59375 C 1.144531 -4.519531 1.050781 -4.484375 0.9375 -4.484375 Z M 0.1875 1.59375 C 0.0625 1.59375 -0.0390625 1.582031 -0.125 1.5625 C -0.21875 1.550781 -0.304688 1.53125 -0.390625 1.5 L -0.3125 1.0625 L -0.234375 1.046875 C -0.128906 1.085938 -0.015625 1.109375 0.109375 1.109375 C 0.285156 1.109375 0.421875 1.050781 0.515625 0.9375 C 0.609375 0.820312 0.65625 0.65625 0.65625 0.4375 L 0.65625 -3.765625 L 1.203125 -3.765625 L 1.203125 0.40625 C 1.203125 0.789062 1.113281 1.082031 0.9375 1.28125 C 0.757812 1.488281 0.507812 1.59375 0.1875 1.59375 Z M 0.1875 1.59375 "/></g></g><g transform="translate(32.776103, 68.996574)"><g><path d="M 1.34375 -2.34375 L 1.34375 -0.484375 L 3.875 -0.484375 L 3.875 0 L 0.75 0 L 0.75 -4.984375 L 3.828125 -4.984375 L 3.828125 -4.5 L 1.34375 -4.5 L 1.34375 -2.828125 L 3.53125 -2.828125 L 3.53125 -2.34375 Z M 1.34375 -2.34375 "/></g></g><g transform="translate(36.992043, 68.996574)"><g><path d="M 0.65625 0 L 0.65625 -3.765625 L 1.1875 -3.765625 L 1.1875 -3.203125 L 1.25 -3.1875 C 1.382812 -3.40625 1.539062 -3.566406 1.71875 -3.671875 C 1.894531 -3.773438 2.109375 -3.828125 2.359375 -3.828125 C 2.648438 -3.828125 2.875 -3.769531 3.03125 -3.65625 C 3.195312 -3.550781 3.320312 -3.378906 3.40625 -3.140625 L 3.484375 -3.140625 C 3.617188 -3.367188 3.78125 -3.539062 3.96875 -3.65625 C 4.15625 -3.769531 4.390625 -3.828125 4.671875 -3.828125 C 5.054688 -3.828125 5.34375 -3.722656 5.53125 -3.515625 C 5.71875 -3.304688 5.8125 -2.988281 5.8125 -2.5625 L 5.8125 0 L 5.265625 0 L 5.265625 -2.546875 C 5.265625 -2.816406 5.207031 -3.015625 5.09375 -3.140625 C 4.976562 -3.273438 4.789062 -3.34375 4.53125 -3.34375 C 4.226562 -3.34375 3.984375 -3.234375 3.796875 -3.015625 C 3.609375 -2.796875 3.515625 -2.4375 3.515625 -1.9375 L 3.515625 0 L 2.953125 0 L 2.953125 -2.546875 C 2.953125 -2.816406 2.894531 -3.015625 2.78125 -3.140625 C 2.664062 -3.273438 2.484375 -3.34375 2.234375 -3.34375 C 1.929688 -3.34375 1.679688 -3.238281 1.484375 -3.03125 C 1.296875 -2.820312 1.203125 -2.476562 1.203125 -2 L 1.203125 0 Z M 0.65625 0 "/></g></g><g transform="translate(43.409832, 68.996574)"><g><path d="M 3.015625 0.796875 L 0 0.796875 L 0 0.328125 L 3.015625 0.328125 Z M 3.015625 0.796875 "/></g></g><g transform="translate(46.417317, 68.996574)"><g><path d="M 0.75 1.59375 C 0.625 1.59375 0.503906 1.582031 0.390625 1.5625 C 0.285156 1.539062 0.191406 1.507812 0.109375 1.46875 L 0.21875 1.03125 L 0.28125 1.015625 C 0.332031 1.035156 0.398438 1.054688 0.484375 1.078125 C 0.566406 1.097656 0.648438 1.109375 0.734375 1.109375 C 0.890625 1.109375 1.015625 1.085938 1.109375 1.046875 C 1.210938 1.003906 1.300781 0.9375 1.375 0.84375 C 1.445312 0.75 1.507812 0.617188 1.5625 0.453125 L 1.703125 0.09375 L 0.1875 -3.765625 L 0.796875 -3.765625 L 1.96875 -0.6875 L 2.046875 -0.6875 L 3.1875 -3.765625 L 3.75 -3.765625 L 2.078125 0.59375 C 1.984375 0.832031 1.875 1.023438 1.75 1.171875 C 1.632812 1.316406 1.492188 1.421875 1.328125 1.484375 C 1.171875 1.554688 0.976562 1.59375 0.75 1.59375 Z M 0.75 1.59375 "/></g></g></g><g fill="#000000" fill-opacity="1"><g transform="translate(21.922758, 151.392919)"><g><path d="M 2.53125 -4.984375 C 2.875 -4.984375 3.164062 -4.921875 3.40625 -4.796875 C 3.65625 -4.679688 3.84375 -4.507812 3.96875 -4.28125 C 4.101562 -4.050781 4.171875 -3.78125 4.171875 -3.46875 C 4.171875 -3.15625 4.101562 -2.882812 3.96875 -2.65625 C 3.84375 -2.4375 3.65625 -2.265625 3.40625 -2.140625 C 3.164062 -2.015625 2.875 -1.953125 2.53125 -1.953125 L 1.34375 -1.953125 L 1.34375 0 L 0.75 0 L 0.75 -4.984375 Z M 2.515625 -2.453125 C 3.210938 -2.453125 3.5625 -2.789062 3.5625 -3.46875 C 3.5625 -4.144531 3.210938 -4.484375 2.515625 -4.484375 L 1.34375 -4.484375 L 1.34375 -2.453125 Z M 2.515625 -2.453125 "/></g></g><g transform="translate(26.473243, 151.392919)"><g><path d="M 2.625 0.078125 C 2.207031 0.078125 1.835938 -0.015625 1.515625 -0.203125 C 1.191406 -0.398438 0.941406 -0.691406 0.765625 -1.078125 C 0.585938 -1.460938 0.5 -1.9375 0.5 -2.5 C 0.5 -3.050781 0.59375 -3.519531 0.78125 -3.90625 C 0.976562 -4.289062 1.242188 -4.578125 1.578125 -4.765625 C 1.921875 -4.960938 2.316406 -5.0625 2.765625 -5.0625 C 3.242188 -5.0625 3.632812 -4.972656 3.9375 -4.796875 C 4.25 -4.628906 4.46875 -4.375 4.59375 -4.03125 L 4.21875 -3.8125 L 4.125 -3.8125 C 4 -4.0625 3.820312 -4.242188 3.59375 -4.359375 C 3.375 -4.472656 3.097656 -4.53125 2.765625 -4.53125 C 1.671875 -4.53125 1.125 -3.851562 1.125 -2.5 C 1.125 -1.789062 1.257812 -1.269531 1.53125 -0.9375 C 1.8125 -0.613281 2.195312 -0.453125 2.6875 -0.453125 C 3.144531 -0.453125 3.488281 -0.554688 3.71875 -0.765625 C 3.945312 -0.972656 4.0625 -1.300781 4.0625 -1.75 L 4.0625 -2.1875 L 2.640625 -2.1875 L 2.640625 -2.65625 L 4.625 -2.65625 L 4.625 0 L 4.078125 0 L 4.078125 -0.671875 L 4.015625 -0.6875 C 3.878906 -0.425781 3.691406 -0.234375 3.453125 -0.109375 C 3.222656 0.015625 2.945312 0.078125 2.625 0.078125 Z M 2.625 0.078125 "/></g></g><g transform="translate(31.662093, 151.392919)"><g><path d="M 3.9375 -2.96875 L 3.9375 -4.984375 L 4.515625 -4.984375 L 4.515625 0 L 3.9375 0 L 3.9375 -2.46875 L 1.34375 -2.46875 L 1.34375 0 L 0.75 0 L 0.75 -4.984375 L 1.34375 -4.984375 L 1.34375 -2.96875 Z M 3.9375 -2.96875 "/></g></g><g transform="translate(36.9397, 151.392919)"><g><path d="M 1.9375 1.59375 C 1.34375 1.59375 0.910156 1.492188 0.640625 1.296875 C 0.367188 1.097656 0.234375 0.835938 0.234375 0.515625 C 0.234375 0.296875 0.296875 0.125 0.421875 0 C 0.546875 -0.125 0.726562 -0.210938 0.96875 -0.265625 L 0.96875 -0.328125 C 0.851562 -0.398438 0.765625 -0.476562 0.703125 -0.5625 C 0.648438 -0.65625 0.625 -0.765625 0.625 -0.890625 C 0.625 -1.023438 0.671875 -1.140625 0.765625 -1.234375 C 0.859375 -1.328125 0.992188 -1.398438 1.171875 -1.453125 L 1.171875 -1.515625 C 0.765625 -1.734375 0.5625 -2.085938 0.5625 -2.578125 C 0.5625 -2.816406 0.613281 -3.03125 0.71875 -3.21875 C 0.832031 -3.414062 0.992188 -3.566406 1.203125 -3.671875 C 1.410156 -3.773438 1.65625 -3.828125 1.9375 -3.828125 C 2.25 -3.828125 2.507812 -3.757812 2.71875 -3.625 C 2.800781 -3.71875 2.859375 -3.8125 2.890625 -3.90625 C 2.929688 -4.007812 2.960938 -4.125 2.984375 -4.25 L 3.046875 -4.296875 L 3.5 -4.1875 C 3.476562 -4 3.421875 -3.835938 3.328125 -3.703125 C 3.242188 -3.566406 3.113281 -3.457031 2.9375 -3.375 L 2.9375 -3.296875 C 3.0625 -3.203125 3.148438 -3.09375 3.203125 -2.96875 C 3.265625 -2.84375 3.296875 -2.691406 3.296875 -2.515625 C 3.296875 -2.285156 3.238281 -2.070312 3.125 -1.875 C 3.007812 -1.6875 2.847656 -1.539062 2.640625 -1.4375 C 2.441406 -1.332031 2.207031 -1.28125 1.9375 -1.28125 C 1.894531 -1.28125 1.835938 -1.28125 1.765625 -1.28125 C 1.671875 -1.289062 1.601562 -1.296875 1.5625 -1.296875 C 1.4375 -1.296875 1.335938 -1.265625 1.265625 -1.203125 C 1.203125 -1.140625 1.171875 -1.0625 1.171875 -0.96875 C 1.171875 -0.84375 1.207031 -0.753906 1.28125 -0.703125 C 1.351562 -0.648438 1.476562 -0.617188 1.65625 -0.609375 L 2.546875 -0.578125 C 2.929688 -0.566406 3.21875 -0.476562 3.40625 -0.3125 C 3.59375 -0.144531 3.6875 0.0859375 3.6875 0.390625 C 3.6875 0.617188 3.625 0.820312 3.5 1 C 3.382812 1.175781 3.191406 1.316406 2.921875 1.421875 C 2.660156 1.535156 2.332031 1.59375 1.9375 1.59375 Z M 1.9375 -1.75 C 2.195312 -1.75 2.398438 -1.816406 2.546875 -1.953125 C 2.691406 -2.097656 2.765625 -2.296875 2.765625 -2.546875 C 2.765625 -2.804688 2.691406 -3.003906 2.546875 -3.140625 C 2.398438 -3.285156 2.195312 -3.359375 1.9375 -3.359375 C 1.664062 -3.359375 1.457031 -3.285156 1.3125 -3.140625 C 1.175781 -3.003906 1.109375 -2.804688 1.109375 -2.546875 C 1.109375 -2.296875 1.175781 -2.097656 1.3125 -1.953125 C 1.457031 -1.816406 1.664062 -1.75 1.9375 -1.75 Z M 1.9375 1.125 C 2.21875 1.125 2.441406 1.09375 2.609375 1.03125 C 2.785156 0.96875 2.910156 0.882812 2.984375 0.78125 C 3.066406 0.675781 3.109375 0.5625 3.109375 0.4375 C 3.109375 0.332031 3.085938 0.242188 3.046875 0.171875 C 3.003906 0.109375 2.9375 0.0546875 2.84375 0.015625 C 2.75 -0.015625 2.625 -0.0351562 2.46875 -0.046875 L 1.625 -0.078125 L 1.5 -0.078125 C 1.03125 -0.078125 0.796875 0.101562 0.796875 0.46875 C 0.796875 0.90625 1.175781 1.125 1.9375 1.125 Z M 1.9375 1.125 "/></g></g><g transform="translate(40.7972, 151.392919)"><g><path d="M 2.546875 -0.59375 L 2.71875 -0.203125 C 2.632812 -0.109375 2.519531 -0.0390625 2.375 0 C 2.226562 0.0507812 2.070312 0.078125 1.90625 0.078125 C 1.1875 0.078125 0.828125 -0.285156 0.828125 -1.015625 L 0.828125 -3.3125 L 0.171875 -3.3125 L 0.171875 -3.765625 L 0.828125 -3.765625 L 0.828125 -4.5625 L 1.375 -4.65625 L 1.375 -3.765625 L 2.59375 -3.765625 L 2.59375 -3.3125 L 1.375 -3.3125 L 1.375 -1.078125 C 1.375 -0.640625 1.5625 -0.421875 1.9375 -0.421875 C 2.144531 -0.421875 2.320312 -0.476562 2.46875 -0.59375 Z M 2.546875 -0.59375 "/></g></g><g transform="translate(43.664723, 151.392919)"><g><path d="M 3.015625 0.796875 L 0 0.796875 L 0 0.328125 L 3.015625 0.328125 Z M 3.015625 0.796875 "/></g></g><g transform="translate(46.672207, 151.392919)"><g><path d="M 0.78125 0 L 0.171875 0 L 1.328125 -1.953125 L 0.234375 -3.765625 L 0.859375 -3.765625 L 1.71875 -2.3125 L 1.796875 -2.3125 L 2.671875 -3.765625 L 3.28125 -3.765625 L 2.203125 -1.953125 L 3.328125 0 L 2.703125 0 L 1.78125 -1.59375 L 1.703125 -1.59375 Z M 0.78125 0 "/></g></g></g><path stroke-linecap="round" transform="matrix(0.36767, -0.652615, 0.652615, 0.36767, 52.360674, 148.327053)" fill="none" stroke-linejoin="miter" d="M 1.999966 2.001704 L 159.987134 1.999786 " stroke="#0c457d" stroke-width="4" stroke-opacity="1" stroke-miterlimit="4"/><path stroke-linecap="round" transform="matrix(0.36767, -0.652615, 0.652615, 0.36767, 52.360674, 148.327053)" fill="none" stroke-linejoin="round" d="M 152.986692 -3.99828 L 160.986502 1.999402 L 152.982212 7.99926 " stroke="#0c457d" stroke-width="4" stroke-opacity="1" stroke-miterlimit="4"/><path stroke-linecap="round" transform="matrix(0.695483, -0.278193, 0.278193, 0.695483, 53.109398, 65.274289)" fill="none" stroke-linejoin="miter" d="M 2.002034 2.001542 L 83.161947 2.001542 " stroke="#0c457d" stroke-width="4" stroke-opacity="1" stroke-miterlimit="4"/><path stroke-linecap="round" transform="matrix(0.695483, -0.278193, 0.278193, 0.695483, 53.109398, 65.274289)" fill="none" stroke-linejoin="round" d="M 76.160561 -4.000476 L 84.163252 1.997669 L 76.163466 7.99775 " stroke="#0c457d" stroke-width="4" stroke-opacity="1" stroke-miterlimit="4"/><path stroke-linecap="round" transform="matrix(0.690926, 0.289325, -0.289325, 0.690926, 54.244253, 16.222764)" fill="none" stroke-linejoin="miter" d="M 1.999456 2.000703 L 83.727663 1.998536 " stroke="#0c457d" stroke-width="4" stroke-opacity="1" stroke-miterlimit="4"/><path stroke-linecap="round" transform="matrix(0.690926, 0.289325, -0.289325, 0.690926, 54.244253, 16.222764)" fill="none" stroke-linejoin="round" d="M 76.732676 -3.999421 L 84.730133 2.002775 L 76.730692 7.998448 " stroke="#0c457d" stroke-width="4" stroke-opacity="1" stroke-miterlimit="4"/><path stroke-linecap="round" transform="matrix(0.749058, 0, 0, 0.749058, 148.79629, 109.062604)" fill="none" stroke-linejoin="miter" d="M 1.998082 2.002378 L 76.998558 2.002378 " stroke="#0c457d" stroke-width="4" stroke-opacity="1" stroke-miterlimit="4"/><path stroke-linecap="round" transform="matrix(0.749058, 0, 0, 0.749058, 148.79629, 109.062604)" fill="none" stroke-linejoin="round" d="M 70.000182 -3.999955 L 77.999816 2.002378 L 70.000182 7.999495 " stroke="#0c457d" stroke-width="4" stroke-opacity="1" stroke-miterlimit="4"/><path stroke-linecap="round" transform="matrix(0.495799, -0.56149, 0.56149, 0.495799, 147.672617, 109.567596)" fill="none" stroke-linejoin="miter" d="M 2.000362 2.003007 L 117.866547 2.001274 " stroke="#0c457d" stroke-width="4" stroke-opacity="1" stroke-miterlimit="4"/><path stroke-linecap="round" transform="matrix(0.495799, -0.56149, 0.56149, 0.495799, 147.672617, 109.567596)" fill="none" stroke-linejoin="round" d="M 110.86488 -3.99781 L 118.867819 2.000677 L 110.865595 8.002267 " stroke="#0c457d" stroke-width="4" stroke-opacity="1" stroke-miterlimit="4"/><path stroke-linecap="round" transform="matrix(0.749058, 0, 0, 0.749058, 148.79629, 41.198176)" fill="none" stroke-linejoin="miter" d="M 1.998082 1.998693 L 76.998558 1.998693 " stroke="#0c457d" stroke-width="4" stroke-opacity="1" stroke-miterlimit="4"/><path stroke-linecap="round" transform="matrix(0.749058, 0, 0, 0.749058, 148.79629, 41.198176)" fill="none" stroke-linejoin="round" d="M 70.000182 -3.998425 L 77.999816 1.998693 L 70.000182 8.001026 " stroke="#0c457d" stroke-width="4" stroke-opacity="1" stroke-miterlimit="4"/><path stroke-linecap="round" transform="matrix(0.630193, -0.404901, 0.404901, 0.630193, 52.855486, 147.799831)" fill="none" stroke-linejoin="miter" d="M 2.000421 1.999612 L 92.089035 2.000241 " stroke="#0c457d" stroke-width="4" stroke-opacity="1" stroke-miterlimit="4"/><path stroke-linecap="round" transform="matrix(0.630193, -0.404901, 0.404901, 0.630193, 52.855486, 147.799831)" fill="none" stroke-linejoin="round" d="M 85.088948 -3.997376 L 93.088564 1.997797 L 85.092265 7.998855 " stroke="#0c457d" stroke-width="4" stroke-opacity="1" stroke-miterlimit="4"/><path stroke-linecap="round" transform="matrix(0.604285, 0.442637, -0.442637, 0.604285, 54.550514, 65.459761)" fill="none" stroke-linejoin="miter" d="M 2.002136 2.000228 L 96.166035 1.999054 " stroke="#0c457d" stroke-width="4" stroke-opacity="1" stroke-miterlimit="4"/><path stroke-linecap="round" transform="matrix(0.604285, 0.442637, -0.442637, 0.604285, 54.550514, 65.459761)" fill="none" stroke-linejoin="round" d="M 89.167178 -3.999285 L 97.166339 1.996795 L 89.165133 7.999865 " stroke="#0c457d" stroke-width="4" stroke-opacity="1" stroke-miterlimit="4"/><path stroke-linecap="round" transform="matrix(0.495799, 0.56149, -0.56149, 0.495799, 149.918575, 41.706229)" fill="none" stroke-linejoin="miter" d="M 2.001159 1.997691 L 117.867345 1.999425 " stroke="#0c457d" stroke-width="4" stroke-opacity="1" stroke-miterlimit="4"/><path stroke-linecap="round" transform="matrix(0.495799, 0.56149, -0.56149, 0.495799, 149.918575, 41.706229)" fill="none" stroke-linejoin="round" d="M 110.866393 -4.001568 L 118.864707 1.99657 L 110.865677 7.998509 " stroke="#0c457d" stroke-width="4" stroke-opacity="1" stroke-miterlimit="4"/><path stroke-linecap="round" transform="matrix(0.645846, -0.379435, 0.379435, 0.645846, 243.167589, 109.26839)" fill="none" stroke-linejoin="miter" d="M 2.000982 1.999909 L 89.785625 1.999799 " stroke="#0c457d" stroke-width="4" stroke-opacity="1" stroke-miterlimit="4"/><path stroke-linecap="round" transform="matrix(0.645846, -0.379435, 0.379435, 0.645846, 243.167589, 109.26839)" fill="none" stroke-linejoin="round" d="M 82.786185 -3.999432 L 90.783755 1.999518 L 82.783487 7.998749 " stroke="#0c457d" stroke-width="4" stroke-opacity="1" stroke-miterlimit="4"/><path stroke-linecap="round" transform="matrix(0.657721, 0.358456, -0.358456, 0.657721, 244.643526, 41.380864)" fill="none" stroke-linejoin="miter" d="M 2.000694 2.000906 L 88.111475 2.001332 " stroke="#0c457d" stroke-width="4" stroke-opacity="1" stroke-miterlimit="4"/><path stroke-linecap="round" transform="matrix(0.657721, 0.358456, -0.358456, 0.657721, 244.643526, 41.380864)" fill="none" stroke-linejoin="round" d="M 81.110727 -4.000564 L 89.107843 1.99877 L 81.110239 7.99662 " stroke="#0c457d" stroke-width="4" stroke-opacity="1" stroke-miterlimit="4"/><path stroke-linecap="round" transform="matrix(0.405854, 0.629579, -0.629579, 0.405854, 54.923379, 16.794336)" fill="none" stroke-linejoin="miter" d="M 1.998304 1.997899 L 144.651302 2.00064 " stroke="#0c457d" stroke-width="4" stroke-opacity="1" stroke-miterlimit="4"/><path stroke-linecap="round" transform="matrix(0.405854, 0.629579, -0.629579, 0.405854, 54.923379, 16.794336)" fill="none" stroke-linejoin="round" d="M 137.650262 -4.001619 L 145.650833 1.999709 L 137.651406 7.998697 " stroke="#0c457d" stroke-width="4" stroke-opacity="1" stroke-miterlimit="4"/><g fill="#000000" fill-opacity="1"><g transform="translate(303.896759, 77.685445)"><g><path d="M 2.53125 -4.984375 C 2.875 -4.984375 3.164062 -4.921875 3.40625 -4.796875 C 3.65625 -4.679688 3.84375 -4.507812 3.96875 -4.28125 C 4.101562 -4.050781 4.171875 -3.78125 4.171875 -3.46875 C 4.171875 -3.15625 4.101562 -2.882812 3.96875 -2.65625 C 3.84375 -2.4375 3.65625 -2.265625 3.40625 -2.140625 C 3.164062 -2.015625 2.875 -1.953125 2.53125 -1.953125 L 1.34375 -1.953125 L 1.34375 0 L 0.75 0 L 0.75 -4.984375 Z M 2.515625 -2.453125 C 3.210938 -2.453125 3.5625 -2.789062 3.5625 -3.46875 C 3.5625 -4.144531 3.210938 -4.484375 2.515625 -4.484375 L 1.34375 -4.484375 L 1.34375 -2.453125 Z M 2.515625 -2.453125 "/></g></g><g transform="translate(308.447244, 77.685445)"><g><path d="M 0.65625 0 L 0.65625 -3.765625 L 1.1875 -3.765625 L 1.1875 -3.171875 L 1.25 -3.15625 C 1.425781 -3.582031 1.757812 -3.796875 2.25 -3.796875 C 2.5 -3.796875 2.691406 -3.75 2.828125 -3.65625 L 2.671875 -3.1875 L 2.609375 -3.171875 C 2.460938 -3.242188 2.304688 -3.28125 2.140625 -3.28125 C 1.835938 -3.28125 1.601562 -3.164062 1.4375 -2.9375 C 1.28125 -2.71875 1.203125 -2.351562 1.203125 -1.84375 L 1.203125 0 Z M 0.65625 0 "/></g></g><g transform="translate(311.355731, 77.685445)"><g><path d="M 3.578125 -1.75 L 1 -1.75 C 1.007812 -1.289062 1.117188 -0.953125 1.328125 -0.734375 C 1.535156 -0.523438 1.816406 -0.421875 2.171875 -0.421875 C 2.429688 -0.421875 2.644531 -0.46875 2.8125 -0.5625 C 2.976562 -0.664062 3.109375 -0.816406 3.203125 -1.015625 L 3.265625 -1.015625 L 3.625 -0.8125 C 3.519531 -0.53125 3.347656 -0.3125 3.109375 -0.15625 C 2.867188 0 2.554688 0.078125 2.171875 0.078125 C 1.804688 0.078125 1.488281 0.00390625 1.21875 -0.140625 C 0.957031 -0.285156 0.753906 -0.503906 0.609375 -0.796875 C 0.472656 -1.085938 0.40625 -1.445312 0.40625 -1.875 C 0.40625 -2.300781 0.476562 -2.660156 0.625 -2.953125 C 0.78125 -3.253906 0.988281 -3.472656 1.25 -3.609375 C 1.507812 -3.753906 1.800781 -3.828125 2.125 -3.828125 C 2.613281 -3.828125 2.992188 -3.691406 3.265625 -3.421875 C 3.535156 -3.148438 3.671875 -2.75 3.671875 -2.21875 C 3.671875 -2.007812 3.664062 -1.867188 3.65625 -1.796875 Z M 3.125 -2.21875 C 3.113281 -2.613281 3.023438 -2.898438 2.859375 -3.078125 C 2.691406 -3.265625 2.445312 -3.359375 2.125 -3.359375 C 1.800781 -3.359375 1.546875 -3.265625 1.359375 -3.078125 C 1.171875 -2.898438 1.054688 -2.613281 1.015625 -2.21875 Z M 3.125 -2.21875 "/></g></g><g transform="translate(315.370263, 77.685445)"><g><path d="M 1.953125 0.078125 C 1.648438 0.078125 1.382812 0.00390625 1.15625 -0.140625 C 0.925781 -0.285156 0.742188 -0.503906 0.609375 -0.796875 C 0.472656 -1.085938 0.40625 -1.445312 0.40625 -1.875 C 0.40625 -2.3125 0.472656 -2.675781 0.609375 -2.96875 C 0.753906 -3.257812 0.945312 -3.472656 1.1875 -3.609375 C 1.425781 -3.753906 1.703125 -3.828125 2.015625 -3.828125 C 2.265625 -3.828125 2.488281 -3.78125 2.6875 -3.6875 C 2.882812 -3.59375 3.054688 -3.4375 3.203125 -3.21875 L 3.28125 -3.234375 L 3.28125 -5.265625 L 3.828125 -5.265625 L 3.828125 0 L 3.28125 0 L 3.28125 -0.546875 L 3.203125 -0.5625 C 3.078125 -0.375 2.910156 -0.21875 2.703125 -0.09375 C 2.492188 0.0195312 2.242188 0.078125 1.953125 0.078125 Z M 2.125 -0.421875 C 2.476562 -0.421875 2.757812 -0.539062 2.96875 -0.78125 C 3.175781 -1.019531 3.28125 -1.382812 3.28125 -1.875 C 3.28125 -2.363281 3.175781 -2.726562 2.96875 -2.96875 C 2.757812 -3.207031 2.476562 -3.328125 2.125 -3.328125 C 1.757812 -3.328125 1.476562 -3.207031 1.28125 -2.96875 C 1.09375 -2.738281 1 -2.375 1 -1.875 C 1 -0.90625 1.375 -0.421875 2.125 -0.421875 Z M 2.125 -0.421875 "/></g></g><g transform="translate(319.866128, 77.685445)"><g><path d="M 0.9375 -4.484375 C 0.8125 -4.484375 0.710938 -4.519531 0.640625 -4.59375 C 0.566406 -4.664062 0.53125 -4.757812 0.53125 -4.875 C 0.53125 -4.988281 0.566406 -5.082031 0.640625 -5.15625 C 0.710938 -5.226562 0.8125 -5.265625 0.9375 -5.265625 C 1.050781 -5.265625 1.144531 -5.226562 1.21875 -5.15625 C 1.289062 -5.082031 1.328125 -4.988281 1.328125 -4.875 C 1.328125 -4.757812 1.289062 -4.664062 1.21875 -4.59375 C 1.144531 -4.519531 1.050781 -4.484375 0.9375 -4.484375 Z M 0.65625 0 L 0.65625 -3.765625 L 1.203125 -3.765625 L 1.203125 0 Z M 0.65625 0 "/></g></g><g transform="translate(321.733432, 77.685445)"><g><path d="M 2.15625 0.078125 C 1.820312 0.078125 1.523438 0.00390625 1.265625 -0.140625 C 1.003906 -0.296875 0.796875 -0.519531 0.640625 -0.8125 C 0.484375 -1.113281 0.40625 -1.46875 0.40625 -1.875 C 0.40625 -2.289062 0.484375 -2.644531 0.640625 -2.9375 C 0.796875 -3.226562 1.003906 -3.445312 1.265625 -3.59375 C 1.523438 -3.75 1.820312 -3.828125 2.15625 -3.828125 C 2.550781 -3.828125 2.867188 -3.753906 3.109375 -3.609375 C 3.347656 -3.460938 3.519531 -3.265625 3.625 -3.015625 L 3.234375 -2.734375 L 3.171875 -2.734375 C 3.066406 -2.941406 2.929688 -3.09375 2.765625 -3.1875 C 2.609375 -3.28125 2.40625 -3.328125 2.15625 -3.328125 C 1.925781 -3.328125 1.722656 -3.273438 1.546875 -3.171875 C 1.367188 -3.066406 1.234375 -2.90625 1.140625 -2.6875 C 1.046875 -2.46875 1 -2.195312 1 -1.875 C 1 -1.5625 1.046875 -1.296875 1.140625 -1.078125 C 1.242188 -0.859375 1.378906 -0.691406 1.546875 -0.578125 C 1.722656 -0.472656 1.925781 -0.421875 2.15625 -0.421875 C 2.414062 -0.421875 2.628906 -0.476562 2.796875 -0.59375 C 2.972656 -0.71875 3.113281 -0.90625 3.21875 -1.15625 L 3.28125 -1.15625 L 3.65625 -0.953125 C 3.550781 -0.628906 3.375 -0.375 3.125 -0.1875 C 2.875 -0.0078125 2.550781 0.078125 2.15625 0.078125 Z M 2.15625 0.078125 "/></g></g><g transform="translate(325.614828, 77.685445)"><g><path d="M 2.546875 -0.59375 L 2.71875 -0.203125 C 2.632812 -0.109375 2.519531 -0.0390625 2.375 0 C 2.226562 0.0507812 2.070312 0.078125 1.90625 0.078125 C 1.1875 0.078125 0.828125 -0.285156 0.828125 -1.015625 L 0.828125 -3.3125 L 0.171875 -3.3125 L 0.171875 -3.765625 L 0.828125 -3.765625 L 0.828125 -4.5625 L 1.375 -4.65625 L 1.375 -3.765625 L 2.59375 -3.765625 L 2.59375 -3.3125 L 1.375 -3.3125 L 1.375 -1.078125 C 1.375 -0.640625 1.5625 -0.421875 1.9375 -0.421875 C 2.144531 -0.421875 2.320312 -0.476562 2.46875 -0.59375 Z M 2.546875 -0.59375 "/></g></g><g transform="translate(328.482351, 77.685445)"><g><path d="M 0.9375 -4.484375 C 0.8125 -4.484375 0.710938 -4.519531 0.640625 -4.59375 C 0.566406 -4.664062 0.53125 -4.757812 0.53125 -4.875 C 0.53125 -4.988281 0.566406 -5.082031 0.640625 -5.15625 C 0.710938 -5.226562 0.8125 -5.265625 0.9375 -5.265625 C 1.050781 -5.265625 1.144531 -5.226562 1.21875 -5.15625 C 1.289062 -5.082031 1.328125 -4.988281 1.328125 -4.875 C 1.328125 -4.757812 1.289062 -4.664062 1.21875 -4.59375 C 1.144531 -4.519531 1.050781 -4.484375 0.9375 -4.484375 Z M 0.65625 0 L 0.65625 -3.765625 L 1.203125 -3.765625 L 1.203125 0 Z M 0.65625 0 "/></g></g><g transform="translate(330.349654, 77.685445)"><g><path d="M 2.15625 0.078125 C 1.800781 0.078125 1.492188 0.00390625 1.234375 -0.140625 C 0.972656 -0.296875 0.769531 -0.519531 0.625 -0.8125 C 0.476562 -1.101562 0.40625 -1.457031 0.40625 -1.875 C 0.40625 -2.289062 0.476562 -2.644531 0.625 -2.9375 C 0.769531 -3.238281 0.972656 -3.460938 1.234375 -3.609375 C 1.492188 -3.753906 1.800781 -3.828125 2.15625 -3.828125 C 2.507812 -3.828125 2.816406 -3.753906 3.078125 -3.609375 C 3.347656 -3.460938 3.550781 -3.238281 3.6875 -2.9375 C 3.832031 -2.644531 3.90625 -2.289062 3.90625 -1.875 C 3.90625 -1.457031 3.832031 -1.101562 3.6875 -0.8125 C 3.550781 -0.519531 3.347656 -0.296875 3.078125 -0.140625 C 2.816406 0.00390625 2.507812 0.078125 2.15625 0.078125 Z M 2.15625 -0.421875 C 2.53125 -0.421875 2.816406 -0.539062 3.015625 -0.78125 C 3.210938 -1.019531 3.3125 -1.382812 3.3125 -1.875 C 3.3125 -2.375 3.210938 -2.738281 3.015625 -2.96875 C 2.816406 -3.207031 2.53125 -3.328125 2.15625 -3.328125 C 1.78125 -3.328125 1.492188 -3.207031 1.296875 -2.96875 C 1.097656 -2.738281 1 -2.375 1 -1.875 C 1 -1.382812 1.097656 -1.019531 1.296875 -0.78125 C 1.492188 -0.539062 1.78125 -0.421875 2.15625 -0.421875 Z M 2.15625 -0.421875 "/></g></g><g transform="translate(334.67142, 77.685445)"><g><path d="M 0.65625 0 L 0.65625 -3.765625 L 1.1875 -3.765625 L 1.1875 -3.171875 L 1.25 -3.15625 C 1.375 -3.375 1.535156 -3.539062 1.734375 -3.65625 C 1.929688 -3.769531 2.164062 -3.828125 2.4375 -3.828125 C 2.894531 -3.828125 3.222656 -3.710938 3.421875 -3.484375 C 3.628906 -3.253906 3.734375 -2.898438 3.734375 -2.421875 L 3.734375 0 L 3.171875 0 L 3.171875 -2.40625 C 3.171875 -2.632812 3.140625 -2.816406 3.078125 -2.953125 C 3.023438 -3.085938 2.9375 -3.1875 2.8125 -3.25 C 2.695312 -3.3125 2.539062 -3.34375 2.34375 -3.34375 C 2 -3.34375 1.722656 -3.226562 1.515625 -3 C 1.304688 -2.78125 1.203125 -2.425781 1.203125 -1.9375 L 1.203125 0 Z M 0.65625 0 "/></g></g></g><g fill="#000000" fill-opacity="1"><g transform="translate(121.432283, 46.516486)"><g><path d="M 1.4375 0 L 1.4375 -5.671875 L 0.3125 -5.671875 L 0.3125 -6.453125 L 1.4375 -6.453125 C 1.363281 -6.734375 1.328125 -7.003906 1.328125 -7.265625 C 1.328125 -7.679688 1.414062 -8.03125 1.59375 -8.3125 C 1.769531 -8.601562 2.015625 -8.816406 2.328125 -8.953125 C 2.648438 -9.097656 3.019531 -9.171875 3.4375 -9.171875 C 4.082031 -9.171875 4.578125 -9.03125 4.921875 -8.75 L 4.546875 -8.078125 L 4.421875 -8.0625 C 4.171875 -8.257812 3.84375 -8.359375 3.4375 -8.359375 C 3.0625 -8.359375 2.773438 -8.257812 2.578125 -8.0625 C 2.378906 -7.875 2.28125 -7.597656 2.28125 -7.234375 C 2.28125 -7.015625 2.316406 -6.753906 2.390625 -6.453125 L 4.453125 -6.453125 L 4.453125 -5.671875 L 2.390625 -5.671875 L 2.390625 0 Z M 1.4375 0 "/></g></g><g transform="translate(126.031966, 46.516486)"><g><path d="M 2.734375 1.21875 C 2.222656 0.570312 1.8125 -0.148438 1.5 -0.953125 C 1.1875 -1.765625 1.03125 -2.75 1.03125 -3.90625 C 1.03125 -5.0625 1.1875 -6.039062 1.5 -6.84375 C 1.8125 -7.65625 2.222656 -8.390625 2.734375 -9.046875 L 3.390625 -9.046875 L 3.40625 -8.921875 C 3.125 -8.453125 2.878906 -7.984375 2.671875 -7.515625 C 2.472656 -7.046875 2.3125 -6.507812 2.1875 -5.90625 C 2.0625 -5.3125 2 -4.644531 2 -3.90625 C 2 -3.175781 2.0625 -2.507812 2.1875 -1.90625 C 2.3125 -1.3125 2.472656 -0.78125 2.671875 -0.3125 C 2.878906 0.15625 3.125 0.625 3.40625 1.09375 L 3.390625 1.21875 Z M 2.734375 1.21875 "/></g></g></g><g fill="#000000" fill-opacity="1"><g transform="translate(129.929407, 46.516486)"><g><path d="M 6.46875 -4.515625 C 6.46875 -3.546875 6.367188 -2.71875 6.171875 -2.03125 C 5.984375 -1.34375 5.675781 -0.8125 5.25 -0.4375 C 4.820312 -0.0625 4.253906 0.125 3.546875 0.125 C 2.554688 0.125 1.828125 -0.285156 1.359375 -1.109375 C 0.890625 -1.929688 0.65625 -3.066406 0.65625 -4.515625 C 0.65625 -5.492188 0.75 -6.328125 0.9375 -7.015625 C 1.132812 -7.710938 1.445312 -8.242188 1.875 -8.609375 C 2.300781 -8.984375 2.859375 -9.171875 3.546875 -9.171875 C 4.535156 -9.171875 5.269531 -8.765625 5.75 -7.953125 C 6.226562 -7.140625 6.46875 -5.992188 6.46875 -4.515625 Z M 3.546875 -8.3125 C 2.941406 -8.3125 2.492188 -8.039062 2.203125 -7.5 C 1.921875 -6.957031 1.757812 -6.148438 1.71875 -5.078125 L 5.390625 -5.078125 C 5.347656 -6.148438 5.179688 -6.957031 4.890625 -7.5 C 4.597656 -8.039062 4.148438 -8.3125 3.546875 -8.3125 Z M 3.546875 -0.75 C 4.171875 -0.75 4.628906 -1.035156 4.921875 -1.609375 C 5.222656 -2.179688 5.382812 -3.046875 5.40625 -4.203125 L 1.71875 -4.203125 C 1.738281 -3.066406 1.890625 -2.207031 2.171875 -1.625 C 2.453125 -1.039062 2.910156 -0.75 3.546875 -0.75 Z M 3.546875 -0.75 "/></g></g></g><g fill="#000000" fill-opacity="1"><g transform="translate(137.060452, 46.516486)"><g><path d="M 0.484375 1.09375 C 0.773438 0.625 1.019531 0.15625 1.21875 -0.3125 C 1.414062 -0.78125 1.578125 -1.3125 1.703125 -1.90625 C 1.828125 -2.507812 1.890625 -3.175781 1.890625 -3.90625 C 1.890625 -4.644531 1.828125 -5.3125 1.703125 -5.90625 C 1.578125 -6.5 1.414062 -7.03125 1.21875 -7.5 C 1.019531 -7.976562 0.773438 -8.453125 0.484375 -8.921875 L 0.515625 -9.046875 L 1.15625 -9.046875 C 1.664062 -8.398438 2.078125 -7.671875 2.390625 -6.859375 C 2.710938 -6.046875 2.875 -5.0625 2.875 -3.90625 C 2.875 -2.75 2.710938 -1.765625 2.390625 -0.953125 C 2.078125 -0.148438 1.664062 0.570312 1.15625 1.21875 L 0.515625 1.21875 Z M 0.484375 1.09375 "/></g></g></g><g fill="#000000" fill-opacity="1"><g transform="translate(121.432283, 115.055066)"><g><path d="M 1.4375 0 L 1.4375 -5.671875 L 0.3125 -5.671875 L 0.3125 -6.453125 L 1.4375 -6.453125 C 1.363281 -6.734375 1.328125 -7.003906 1.328125 -7.265625 C 1.328125 -7.679688 1.414062 -8.03125 1.59375 -8.3125 C 1.769531 -8.601562 2.015625 -8.816406 2.328125 -8.953125 C 2.648438 -9.097656 3.019531 -9.171875 3.4375 -9.171875 C 4.082031 -9.171875 4.578125 -9.03125 4.921875 -8.75 L 4.546875 -8.078125 L 4.421875 -8.0625 C 4.171875 -8.257812 3.84375 -8.359375 3.4375 -8.359375 C 3.0625 -8.359375 2.773438 -8.257812 2.578125 -8.0625 C 2.378906 -7.875 2.28125 -7.597656 2.28125 -7.234375 C 2.28125 -7.015625 2.316406 -6.753906 2.390625 -6.453125 L 4.453125 -6.453125 L 4.453125 -5.671875 L 2.390625 -5.671875 L 2.390625 0 Z M 1.4375 0 "/></g></g><g transform="translate(126.031966, 115.055066)"><g><path d="M 2.734375 1.21875 C 2.222656 0.570312 1.8125 -0.148438 1.5 -0.953125 C 1.1875 -1.765625 1.03125 -2.75 1.03125 -3.90625 C 1.03125 -5.0625 1.1875 -6.039062 1.5 -6.84375 C 1.8125 -7.65625 2.222656 -8.390625 2.734375 -9.046875 L 3.390625 -9.046875 L 3.40625 -8.921875 C 3.125 -8.453125 2.878906 -7.984375 2.671875 -7.515625 C 2.472656 -7.046875 2.3125 -6.507812 2.1875 -5.90625 C 2.0625 -5.3125 2 -4.644531 2 -3.90625 C 2 -3.175781 2.0625 -2.507812 2.1875 -1.90625 C 2.3125 -1.3125 2.472656 -0.78125 2.671875 -0.3125 C 2.878906 0.15625 3.125 0.625 3.40625 1.09375 L 3.390625 1.21875 Z M 2.734375 1.21875 "/></g></g></g><g fill="#000000" fill-opacity="1"><g transform="translate(129.929407, 115.055066)"><g><path d="M 6.46875 -4.515625 C 6.46875 -3.546875 6.367188 -2.71875 6.171875 -2.03125 C 5.984375 -1.34375 5.675781 -0.8125 5.25 -0.4375 C 4.820312 -0.0625 4.253906 0.125 3.546875 0.125 C 2.554688 0.125 1.828125 -0.285156 1.359375 -1.109375 C 0.890625 -1.929688 0.65625 -3.066406 0.65625 -4.515625 C 0.65625 -5.492188 0.75 -6.328125 0.9375 -7.015625 C 1.132812 -7.710938 1.445312 -8.242188 1.875 -8.609375 C 2.300781 -8.984375 2.859375 -9.171875 3.546875 -9.171875 C 4.535156 -9.171875 5.269531 -8.765625 5.75 -7.953125 C 6.226562 -7.140625 6.46875 -5.992188 6.46875 -4.515625 Z M 3.546875 -8.3125 C 2.941406 -8.3125 2.492188 -8.039062 2.203125 -7.5 C 1.921875 -6.957031 1.757812 -6.148438 1.71875 -5.078125 L 5.390625 -5.078125 C 5.347656 -6.148438 5.179688 -6.957031 4.890625 -7.5 C 4.597656 -8.039062 4.148438 -8.3125 3.546875 -8.3125 Z M 3.546875 -0.75 C 4.171875 -0.75 4.628906 -1.035156 4.921875 -1.609375 C 5.222656 -2.179688 5.382812 -3.046875 5.40625 -4.203125 L 1.71875 -4.203125 C 1.738281 -3.066406 1.890625 -2.207031 2.171875 -1.625 C 2.453125 -1.039062 2.910156 -0.75 3.546875 -0.75 Z M 3.546875 -0.75 "/></g></g></g><g fill="#000000" fill-opacity="1"><g transform="translate(137.060452, 115.055066)"><g><path d="M 0.484375 1.09375 C 0.773438 0.625 1.019531 0.15625 1.21875 -0.3125 C 1.414062 -0.78125 1.578125 -1.3125 1.703125 -1.90625 C 1.828125 -2.507812 1.890625 -3.175781 1.890625 -3.90625 C 1.890625 -4.644531 1.828125 -5.3125 1.703125 -5.90625 C 1.578125 -6.5 1.414062 -7.03125 1.21875 -7.5 C 1.019531 -7.976562 0.773438 -8.453125 0.484375 -8.921875 L 0.515625 -9.046875 L 1.15625 -9.046875 C 1.664062 -8.398438 2.078125 -7.671875 2.390625 -6.859375 C 2.710938 -6.046875 2.875 -5.0625 2.875 -3.90625 C 2.875 -2.75 2.710938 -1.765625 2.390625 -0.953125 C 2.078125 -0.148438 1.664062 0.570312 1.15625 1.21875 L 0.515625 1.21875 Z M 0.484375 1.09375 "/></g></g></g><g fill="#000000" fill-opacity="1"><g transform="translate(216.562609, 115.055066)"><g><path d="M 1.4375 0 L 1.4375 -5.671875 L 0.3125 -5.671875 L 0.3125 -6.453125 L 1.4375 -6.453125 C 1.363281 -6.734375 1.328125 -7.003906 1.328125 -7.265625 C 1.328125 -7.679688 1.414062 -8.03125 1.59375 -8.3125 C 1.769531 -8.601562 2.015625 -8.816406 2.328125 -8.953125 C 2.648438 -9.097656 3.019531 -9.171875 3.4375 -9.171875 C 4.082031 -9.171875 4.578125 -9.03125 4.921875 -8.75 L 4.546875 -8.078125 L 4.421875 -8.0625 C 4.171875 -8.257812 3.84375 -8.359375 3.4375 -8.359375 C 3.0625 -8.359375 2.773438 -8.257812 2.578125 -8.0625 C 2.378906 -7.875 2.28125 -7.597656 2.28125 -7.234375 C 2.28125 -7.015625 2.316406 -6.753906 2.390625 -6.453125 L 4.453125 -6.453125 L 4.453125 -5.671875 L 2.390625 -5.671875 L 2.390625 0 Z M 1.4375 0 "/></g></g><g transform="translate(221.162292, 115.055066)"><g><path d="M 2.734375 1.21875 C 2.222656 0.570312 1.8125 -0.148438 1.5 -0.953125 C 1.1875 -1.765625 1.03125 -2.75 1.03125 -3.90625 C 1.03125 -5.0625 1.1875 -6.039062 1.5 -6.84375 C 1.8125 -7.65625 2.222656 -8.390625 2.734375 -9.046875 L 3.390625 -9.046875 L 3.40625 -8.921875 C 3.125 -8.453125 2.878906 -7.984375 2.671875 -7.515625 C 2.472656 -7.046875 2.3125 -6.507812 2.1875 -5.90625 C 2.0625 -5.3125 2 -4.644531 2 -3.90625 C 2 -3.175781 2.0625 -2.507812 2.1875 -1.90625 C 2.3125 -1.3125 2.472656 -0.78125 2.671875 -0.3125 C 2.878906 0.15625 3.125 0.625 3.40625 1.09375 L 3.390625 1.21875 Z M 2.734375 1.21875 "/></g></g></g><g fill="#000000" fill-opacity="1"><g transform="translate(225.059733, 115.055066)"><g><path d="M 6.46875 -4.515625 C 6.46875 -3.546875 6.367188 -2.71875 6.171875 -2.03125 C 5.984375 -1.34375 5.675781 -0.8125 5.25 -0.4375 C 4.820312 -0.0625 4.253906 0.125 3.546875 0.125 C 2.554688 0.125 1.828125 -0.285156 1.359375 -1.109375 C 0.890625 -1.929688 0.65625 -3.066406 0.65625 -4.515625 C 0.65625 -5.492188 0.75 -6.328125 0.9375 -7.015625 C 1.132812 -7.710938 1.445312 -8.242188 1.875 -8.609375 C 2.300781 -8.984375 2.859375 -9.171875 3.546875 -9.171875 C 4.535156 -9.171875 5.269531 -8.765625 5.75 -7.953125 C 6.226562 -7.140625 6.46875 -5.992188 6.46875 -4.515625 Z M 3.546875 -8.3125 C 2.941406 -8.3125 2.492188 -8.039062 2.203125 -7.5 C 1.921875 -6.957031 1.757812 -6.148438 1.71875 -5.078125 L 5.390625 -5.078125 C 5.347656 -6.148438 5.179688 -6.957031 4.890625 -7.5 C 4.597656 -8.039062 4.148438 -8.3125 3.546875 -8.3125 Z M 3.546875 -0.75 C 4.171875 -0.75 4.628906 -1.035156 4.921875 -1.609375 C 5.222656 -2.179688 5.382812 -3.046875 5.40625 -4.203125 L 1.71875 -4.203125 C 1.738281 -3.066406 1.890625 -2.207031 2.171875 -1.625 C 2.453125 -1.039062 2.910156 -0.75 3.546875 -0.75 Z M 3.546875 -0.75 "/></g></g></g><g fill="#000000" fill-opacity="1"><g transform="translate(232.190778, 115.055066)"><g><path d="M 0.484375 1.09375 C 0.773438 0.625 1.019531 0.15625 1.21875 -0.3125 C 1.414062 -0.78125 1.578125 -1.3125 1.703125 -1.90625 C 1.828125 -2.507812 1.890625 -3.175781 1.890625 -3.90625 C 1.890625 -4.644531 1.828125 -5.3125 1.703125 -5.90625 C 1.578125 -6.5 1.414062 -7.03125 1.21875 -7.5 C 1.019531 -7.976562 0.773438 -8.453125 0.484375 -8.921875 L 0.515625 -9.046875 L 1.15625 -9.046875 C 1.664062 -8.398438 2.078125 -7.671875 2.390625 -6.859375 C 2.710938 -6.046875 2.875 -5.0625 2.875 -3.90625 C 2.875 -2.75 2.710938 -1.765625 2.390625 -0.953125 C 2.078125 -0.148438 1.664062 0.570312 1.15625 1.21875 L 0.515625 1.21875 Z M 0.484375 1.09375 "/></g></g></g><g fill="#000000" fill-opacity="1"><g transform="translate(217.33446, 47.190638)"><g><path d="M 1.4375 0 L 1.4375 -5.671875 L 0.3125 -5.671875 L 0.3125 -6.453125 L 1.4375 -6.453125 C 1.363281 -6.734375 1.328125 -7.003906 1.328125 -7.265625 C 1.328125 -7.679688 1.414062 -8.03125 1.59375 -8.3125 C 1.769531 -8.601562 2.015625 -8.816406 2.328125 -8.953125 C 2.648438 -9.097656 3.019531 -9.171875 3.4375 -9.171875 C 4.082031 -9.171875 4.578125 -9.03125 4.921875 -8.75 L 4.546875 -8.078125 L 4.421875 -8.0625 C 4.171875 -8.257812 3.84375 -8.359375 3.4375 -8.359375 C 3.0625 -8.359375 2.773438 -8.257812 2.578125 -8.0625 C 2.378906 -7.875 2.28125 -7.597656 2.28125 -7.234375 C 2.28125 -7.015625 2.316406 -6.753906 2.390625 -6.453125 L 4.453125 -6.453125 L 4.453125 -5.671875 L 2.390625 -5.671875 L 2.390625 0 Z M 1.4375 0 "/></g></g><g transform="translate(221.934143, 47.190638)"><g><path d="M 2.734375 1.21875 C 2.222656 0.570312 1.8125 -0.148438 1.5 -0.953125 C 1.1875 -1.765625 1.03125 -2.75 1.03125 -3.90625 C 1.03125 -5.0625 1.1875 -6.039062 1.5 -6.84375 C 1.8125 -7.65625 2.222656 -8.390625 2.734375 -9.046875 L 3.390625 -9.046875 L 3.40625 -8.921875 C 3.125 -8.453125 2.878906 -7.984375 2.671875 -7.515625 C 2.472656 -7.046875 2.3125 -6.507812 2.1875 -5.90625 C 2.0625 -5.3125 2 -4.644531 2 -3.90625 C 2 -3.175781 2.0625 -2.507812 2.1875 -1.90625 C 2.3125 -1.3125 2.472656 -0.78125 2.671875 -0.3125 C 2.878906 0.15625 3.125 0.625 3.40625 1.09375 L 3.390625 1.21875 Z M 2.734375 1.21875 "/></g></g></g><g fill="#000000" fill-opacity="1"><g transform="translate(225.831584, 47.190638)"><g><path d="M 6.46875 -4.515625 C 6.46875 -3.546875 6.367188 -2.71875 6.171875 -2.03125 C 5.984375 -1.34375 5.675781 -0.8125 5.25 -0.4375 C 4.820312 -0.0625 4.253906 0.125 3.546875 0.125 C 2.554688 0.125 1.828125 -0.285156 1.359375 -1.109375 C 0.890625 -1.929688 0.65625 -3.066406 0.65625 -4.515625 C 0.65625 -5.492188 0.75 -6.328125 0.9375 -7.015625 C 1.132812 -7.710938 1.445312 -8.242188 1.875 -8.609375 C 2.300781 -8.984375 2.859375 -9.171875 3.546875 -9.171875 C 4.535156 -9.171875 5.269531 -8.765625 5.75 -7.953125 C 6.226562 -7.140625 6.46875 -5.992188 6.46875 -4.515625 Z M 3.546875 -8.3125 C 2.941406 -8.3125 2.492188 -8.039062 2.203125 -7.5 C 1.921875 -6.957031 1.757812 -6.148438 1.71875 -5.078125 L 5.390625 -5.078125 C 5.347656 -6.148438 5.179688 -6.957031 4.890625 -7.5 C 4.597656 -8.039062 4.148438 -8.3125 3.546875 -8.3125 Z M 3.546875 -0.75 C 4.171875 -0.75 4.628906 -1.035156 4.921875 -1.609375 C 5.222656 -2.179688 5.382812 -3.046875 5.40625 -4.203125 L 1.71875 -4.203125 C 1.738281 -3.066406 1.890625 -2.207031 2.171875 -1.625 C 2.453125 -1.039062 2.910156 -0.75 3.546875 -0.75 Z M 3.546875 -0.75 "/></g></g></g><g fill="#000000" fill-opacity="1"><g transform="translate(232.962628, 47.190638)"><g><path d="M 0.484375 1.09375 C 0.773438 0.625 1.019531 0.15625 1.21875 -0.3125 C 1.414062 -0.78125 1.578125 -1.3125 1.703125 -1.90625 C 1.828125 -2.507812 1.890625 -3.175781 1.890625 -3.90625 C 1.890625 -4.644531 1.828125 -5.3125 1.703125 -5.90625 C 1.578125 -6.5 1.414062 -7.03125 1.21875 -7.5 C 1.019531 -7.976562 0.773438 -8.453125 0.484375 -8.921875 L 0.515625 -9.046875 L 1.15625 -9.046875 C 1.664062 -8.398438 2.078125 -7.671875 2.390625 -6.859375 C 2.710938 -6.046875 2.875 -5.0625 2.875 -3.90625 C 2.875 -2.75 2.710938 -1.765625 2.390625 -0.953125 C 2.078125 -0.148438 1.664062 0.570312 1.15625 1.21875 L 0.515625 1.21875 Z M 0.484375 1.09375 "/></g></g></g></svg>