<svg xmlns="http://www.w3.org/2000/svg" xmlns:xlink="http://www.w3.org/1999/xlink" width="623" zoomAndPan="magnify" viewBox="0 0 467.25 236.249991" height="315" preserveAspectRatio="xMidYMid meet" version="1.0"><defs><g/><clipPath id="4f8c57bca1"><path d="M 3.289062 0 L 144.992188 0 L 144.992188 100.183594 L 3.289062 100.183594 Z M 3.289062 0 " clip-rule="nonzero"/></clipPath><clipPath id="1204b09227"><path d="M 310.652344 0 L 389.472656 0 L 389.472656 100.183594 L 310.652344 100.183594 Z M 310.652344 0 " clip-rule="nonzero"/></clipPath><clipPath id="5e2b470e68"><path d="M 237.066406 0 L 315.886719 0 L 315.886719 100.183594 L 237.066406 100.183594 Z M 237.066406 0 " clip-rule="nonzero"/></clipPath><clipPath id="4f3beab701"><path d="M 160.609375 0 L 239.429688 0 L 239.429688 100.183594 L 160.609375 100.183594 Z M 160.609375 0 " clip-rule="nonzero"/></clipPath><clipPath id="a4d616fddb"><path d="M 384.238281 0 L 463.058594 0 L 463.058594 100.183594 L 384.238281 100.183594 Z M 384.238281 0 " clip-rule="nonzero"/></clipPath><clipPath id="7c4f8821cb"><path d="M 3.289062 135.003906 L 82.109375 135.003906 L 82.109375 235.183594 L 3.289062 235.183594 Z M 3.289062 135.003906 " clip-rule="nonzero"/></clipPath><clipPath id="d8a2cad8ce"><path d="M 160.929688 135.003906 L 239.75 135.003906 L 239.75 235.183594 L 160.929688 235.183594 Z M 160.929688 135.003906 " clip-rule="nonzero"/></clipPath><clipPath id="4be3bb8307"><path d="M 318.570312 135.003906 L 397.390625 135.003906 L 397.390625 235.183594 L 318.570312 235.183594 Z M 318.570312 135.003906 " clip-rule="nonzero"/></clipPath><clipPath id="e3707afbc5"><path d="M 82.109375 135.003906 L 160.929688 135.003906 L 160.929688 235.183594 L 82.109375 235.183594 Z M 82.109375 135.003906 " clip-rule="nonzero"/></clipPath><clipPath id="d047df2822"><path d="M 239.75 135.003906 L 318.570312 135.003906 L 318.570312 235.183594 L 239.75 235.183594 Z M 239.75 135.003906 " clip-rule="nonzero"/></clipPath><clipPath id="f1b3848e6d"><path d="M 318.25 135.003906 L 397.070312 135.003906 L 397.070312 235.183594 L 318.25 235.183594 Z M 318.25 135.003906 " clip-rule="nonzero"/></clipPath></defs><g clip-path="url(#4f8c57bca1)"><path fill="#f9b96e" d="M 3.289062 0 L 144.953125 0 L 144.953125 100.183594 L 3.289062 100.183594 Z M 3.289062 0 " fill-opacity="1" fill-rule="nonzero"/></g><g fill="#000000" fill-opacity="1"><g transform="translate(42.646131, 54.576736)"><g><path d="M 3.734375 0.125 C 3.191406 0.125 2.707031 0.0507812 2.28125 -0.09375 C 1.851562 -0.238281 1.5 -0.429688 1.21875 -0.671875 C 0.9375 -0.910156 0.722656 -1.171875 0.578125 -1.453125 L 1.140625 -2.125 L 1.28125 -2.125 C 1.8125 -1.226562 2.628906 -0.78125 3.734375 -0.78125 C 4.378906 -0.78125 4.859375 -0.914062 5.171875 -1.1875 C 5.484375 -1.457031 5.640625 -1.832031 5.640625 -2.3125 C 5.640625 -2.59375 5.585938 -2.828125 5.484375 -3.015625 C 5.378906 -3.210938 5.207031 -3.378906 4.96875 -3.515625 C 4.726562 -3.660156 4.40625 -3.78125 4 -3.875 L 3 -4.125 C 2.257812 -4.300781 1.710938 -4.582031 1.359375 -4.96875 C 1.003906 -5.363281 0.828125 -5.863281 0.828125 -6.46875 C 0.828125 -6.894531 0.9375 -7.273438 1.15625 -7.609375 C 1.375 -7.941406 1.691406 -8.203125 2.109375 -8.390625 C 2.535156 -8.578125 3.039062 -8.671875 3.625 -8.671875 C 4.269531 -8.671875 4.8125 -8.578125 5.25 -8.390625 C 5.695312 -8.210938 6.050781 -7.941406 6.3125 -7.578125 L 5.828125 -6.921875 L 5.671875 -6.921875 C 5.429688 -7.222656 5.140625 -7.441406 4.796875 -7.578125 C 4.460938 -7.722656 4.070312 -7.796875 3.625 -7.796875 C 3.03125 -7.796875 2.582031 -7.675781 2.28125 -7.4375 C 1.976562 -7.207031 1.828125 -6.894531 1.828125 -6.5 C 1.828125 -6.113281 1.9375 -5.804688 2.15625 -5.578125 C 2.382812 -5.347656 2.757812 -5.171875 3.28125 -5.046875 L 4.3125 -4.796875 C 5.132812 -4.597656 5.734375 -4.296875 6.109375 -3.890625 C 6.484375 -3.492188 6.671875 -2.984375 6.671875 -2.359375 C 6.671875 -1.867188 6.5625 -1.4375 6.34375 -1.0625 C 6.125 -0.695312 5.796875 -0.40625 5.359375 -0.1875 C 4.921875 0.0195312 4.378906 0.125 3.734375 0.125 Z M 3.734375 0.125 "/></g></g><g transform="translate(49.964694, 54.576736)"><g><path d="M 4.359375 -1.015625 L 4.65625 -0.34375 C 4.507812 -0.1875 4.3125 -0.0703125 4.0625 0 C 3.8125 0.0820312 3.546875 0.125 3.265625 0.125 C 2.035156 0.125 1.421875 -0.5 1.421875 -1.75 L 1.421875 -5.671875 L 0.296875 -5.671875 L 0.296875 -6.453125 L 1.421875 -6.453125 L 1.421875 -7.8125 L 2.359375 -7.96875 L 2.359375 -6.453125 L 4.4375 -6.453125 L 4.4375 -5.671875 L 2.359375 -5.671875 L 2.359375 -1.84375 C 2.359375 -1.101562 2.679688 -0.734375 3.328125 -0.734375 C 3.679688 -0.734375 3.984375 -0.828125 4.234375 -1.015625 Z M 4.359375 -1.015625 "/></g></g><g transform="translate(54.870993, 54.576736)"><g><path d="M 2.65625 0.125 C 2.019531 0.125 1.523438 -0.0390625 1.171875 -0.375 C 0.816406 -0.707031 0.640625 -1.179688 0.640625 -1.796875 C 0.640625 -2.171875 0.71875 -2.488281 0.875 -2.75 C 1.03125 -3.019531 1.273438 -3.238281 1.609375 -3.40625 C 1.941406 -3.570312 2.375 -3.695312 2.90625 -3.78125 C 3.375 -3.863281 3.726562 -3.953125 3.96875 -4.046875 C 4.21875 -4.148438 4.382812 -4.257812 4.46875 -4.375 C 4.550781 -4.5 4.59375 -4.648438 4.59375 -4.828125 C 4.59375 -5.117188 4.488281 -5.34375 4.28125 -5.5 C 4.082031 -5.65625 3.757812 -5.734375 3.3125 -5.734375 C 2.894531 -5.734375 2.535156 -5.648438 2.234375 -5.484375 C 1.941406 -5.328125 1.671875 -5.09375 1.421875 -4.78125 L 1.3125 -4.78125 L 0.84375 -5.4375 C 1.113281 -5.78125 1.457031 -6.050781 1.875 -6.25 C 2.300781 -6.457031 2.78125 -6.5625 3.3125 -6.5625 C 4.070312 -6.5625 4.632812 -6.394531 5 -6.0625 C 5.363281 -5.726562 5.546875 -5.269531 5.546875 -4.6875 L 5.546875 -1.265625 C 5.546875 -0.910156 5.695312 -0.734375 6 -0.734375 C 6.09375 -0.734375 6.1875 -0.75 6.28125 -0.78125 L 6.375 -0.765625 L 6.484375 -0.09375 C 6.410156 -0.0507812 6.316406 -0.0195312 6.203125 0 C 6.085938 0.03125 5.96875 0.046875 5.84375 0.046875 C 5.488281 0.046875 5.222656 -0.03125 5.046875 -0.1875 C 4.867188 -0.34375 4.753906 -0.570312 4.703125 -0.875 L 4.578125 -0.890625 C 4.390625 -0.546875 4.140625 -0.289062 3.828125 -0.125 C 3.515625 0.0390625 3.125 0.125 2.65625 0.125 Z M 2.875 -0.640625 C 3.226562 -0.640625 3.535156 -0.722656 3.796875 -0.890625 C 4.066406 -1.054688 4.269531 -1.285156 4.40625 -1.578125 C 4.539062 -1.878906 4.609375 -2.226562 4.609375 -2.625 L 4.609375 -3.4375 L 4.5 -3.46875 C 4.363281 -3.363281 4.191406 -3.273438 3.984375 -3.203125 C 3.773438 -3.140625 3.484375 -3.082031 3.109375 -3.03125 C 2.734375 -2.976562 2.4375 -2.898438 2.21875 -2.796875 C 2 -2.691406 1.84375 -2.554688 1.75 -2.390625 C 1.65625 -2.234375 1.609375 -2.035156 1.609375 -1.796875 C 1.609375 -1.421875 1.71875 -1.132812 1.9375 -0.9375 C 2.164062 -0.738281 2.476562 -0.640625 2.875 -0.640625 Z M 2.875 -0.640625 "/></g></g><g transform="translate(61.535383, 54.576736)"><g><path d="M 4.359375 -1.015625 L 4.65625 -0.34375 C 4.507812 -0.1875 4.3125 -0.0703125 4.0625 0 C 3.8125 0.0820312 3.546875 0.125 3.265625 0.125 C 2.035156 0.125 1.421875 -0.5 1.421875 -1.75 L 1.421875 -5.671875 L 0.296875 -5.671875 L 0.296875 -6.453125 L 1.421875 -6.453125 L 1.421875 -7.8125 L 2.359375 -7.96875 L 2.359375 -6.453125 L 4.4375 -6.453125 L 4.4375 -5.671875 L 2.359375 -5.671875 L 2.359375 -1.84375 C 2.359375 -1.101562 2.679688 -0.734375 3.328125 -0.734375 C 3.679688 -0.734375 3.984375 -0.828125 4.234375 -1.015625 Z M 4.359375 -1.015625 "/></g></g><g transform="translate(66.441682, 54.576736)"><g/></g><g transform="translate(69.37378, 54.576736)"><g><path d="M 6.3125 -8.546875 L 6.3125 -7.71875 L 2.296875 -7.71875 L 2.296875 -4.609375 L 5.90625 -4.609375 L 5.90625 -3.765625 L 2.296875 -3.765625 L 2.296875 0 L 1.296875 0 L 1.296875 -8.546875 Z M 6.3125 -8.546875 "/></g></g><g transform="translate(76.143304, 54.576736)"><g><path d="M 1.125 0 L 1.125 -6.453125 L 2.03125 -6.453125 L 2.03125 -5.4375 L 2.15625 -5.40625 C 2.445312 -6.132812 3.007812 -6.5 3.84375 -6.5 C 4.28125 -6.5 4.609375 -6.421875 4.828125 -6.265625 L 4.59375 -5.453125 L 4.46875 -5.4375 C 4.226562 -5.550781 3.960938 -5.609375 3.671875 -5.609375 C 3.160156 -5.609375 2.765625 -5.414062 2.484375 -5.03125 C 2.210938 -4.644531 2.078125 -4.019531 2.078125 -3.15625 L 2.078125 0 Z M 1.125 0 "/></g></g><g transform="translate(81.119693, 54.576736)"><g><path d="M 2.65625 0.125 C 2.019531 0.125 1.523438 -0.0390625 1.171875 -0.375 C 0.816406 -0.707031 0.640625 -1.179688 0.640625 -1.796875 C 0.640625 -2.171875 0.71875 -2.488281 0.875 -2.75 C 1.03125 -3.019531 1.273438 -3.238281 1.609375 -3.40625 C 1.941406 -3.570312 2.375 -3.695312 2.90625 -3.78125 C 3.375 -3.863281 3.726562 -3.953125 3.96875 -4.046875 C 4.21875 -4.148438 4.382812 -4.257812 4.46875 -4.375 C 4.550781 -4.5 4.59375 -4.648438 4.59375 -4.828125 C 4.59375 -5.117188 4.488281 -5.34375 4.28125 -5.5 C 4.082031 -5.65625 3.757812 -5.734375 3.3125 -5.734375 C 2.894531 -5.734375 2.535156 -5.648438 2.234375 -5.484375 C 1.941406 -5.328125 1.671875 -5.09375 1.421875 -4.78125 L 1.3125 -4.78125 L 0.84375 -5.4375 C 1.113281 -5.78125 1.457031 -6.050781 1.875 -6.25 C 2.300781 -6.457031 2.78125 -6.5625 3.3125 -6.5625 C 4.070312 -6.5625 4.632812 -6.394531 5 -6.0625 C 5.363281 -5.726562 5.546875 -5.269531 5.546875 -4.6875 L 5.546875 -1.265625 C 5.546875 -0.910156 5.695312 -0.734375 6 -0.734375 C 6.09375 -0.734375 6.1875 -0.75 6.28125 -0.78125 L 6.375 -0.765625 L 6.484375 -0.09375 C 6.410156 -0.0507812 6.316406 -0.0195312 6.203125 0 C 6.085938 0.03125 5.96875 0.046875 5.84375 0.046875 C 5.488281 0.046875 5.222656 -0.03125 5.046875 -0.1875 C 4.867188 -0.34375 4.753906 -0.570312 4.703125 -0.875 L 4.578125 -0.890625 C 4.390625 -0.546875 4.140625 -0.289062 3.828125 -0.125 C 3.515625 0.0390625 3.125 0.125 2.65625 0.125 Z M 2.875 -0.640625 C 3.226562 -0.640625 3.535156 -0.722656 3.796875 -0.890625 C 4.066406 -1.054688 4.269531 -1.285156 4.40625 -1.578125 C 4.539062 -1.878906 4.609375 -2.226562 4.609375 -2.625 L 4.609375 -3.4375 L 4.5 -3.46875 C 4.363281 -3.363281 4.191406 -3.273438 3.984375 -3.203125 C 3.773438 -3.140625 3.484375 -3.082031 3.109375 -3.03125 C 2.734375 -2.976562 2.4375 -2.898438 2.21875 -2.796875 C 2 -2.691406 1.84375 -2.554688 1.75 -2.390625 C 1.65625 -2.234375 1.609375 -2.035156 1.609375 -1.796875 C 1.609375 -1.421875 1.71875 -1.132812 1.9375 -0.9375 C 2.164062 -0.738281 2.476562 -0.640625 2.875 -0.640625 Z M 2.875 -0.640625 "/></g></g><g transform="translate(87.784083, 54.576736)"><g><path d="M 1.125 0 L 1.125 -6.453125 L 2.03125 -6.453125 L 2.03125 -5.5 L 2.15625 -5.46875 C 2.375 -5.832031 2.632812 -6.101562 2.9375 -6.28125 C 3.25 -6.46875 3.625 -6.5625 4.0625 -6.5625 C 4.550781 -6.5625 4.929688 -6.46875 5.203125 -6.28125 C 5.484375 -6.09375 5.695312 -5.789062 5.84375 -5.375 L 5.96875 -5.375 C 6.195312 -5.769531 6.472656 -6.066406 6.796875 -6.265625 C 7.117188 -6.460938 7.519531 -6.5625 8 -6.5625 C 8.65625 -6.5625 9.144531 -6.382812 9.46875 -6.03125 C 9.800781 -5.675781 9.96875 -5.128906 9.96875 -4.390625 L 9.96875 0 L 9.015625 0 L 9.015625 -4.375 C 9.015625 -4.84375 8.914062 -5.1875 8.71875 -5.40625 C 8.519531 -5.625 8.203125 -5.734375 7.765625 -5.734375 C 7.253906 -5.734375 6.832031 -5.546875 6.5 -5.171875 C 6.175781 -4.796875 6.015625 -4.179688 6.015625 -3.328125 L 6.015625 0 L 5.0625 0 L 5.0625 -4.375 C 5.0625 -4.84375 4.960938 -5.1875 4.765625 -5.40625 C 4.578125 -5.625 4.265625 -5.734375 3.828125 -5.734375 C 3.304688 -5.734375 2.882812 -5.550781 2.5625 -5.1875 C 2.238281 -4.832031 2.078125 -4.25 2.078125 -3.4375 L 2.078125 0 Z M 1.125 0 "/></g></g><g transform="translate(98.764847, 54.576736)"><g><path d="M 6.140625 -3 L 1.71875 -3 C 1.738281 -2.21875 1.921875 -1.644531 2.265625 -1.28125 C 2.617188 -0.914062 3.101562 -0.734375 3.71875 -0.734375 C 4.175781 -0.734375 4.539062 -0.8125 4.8125 -0.96875 C 5.09375 -1.132812 5.316406 -1.394531 5.484375 -1.75 L 5.609375 -1.75 L 6.21875 -1.375 C 6.03125 -0.90625 5.726562 -0.535156 5.3125 -0.265625 C 4.90625 -0.00390625 4.375 0.125 3.71875 0.125 C 3.09375 0.125 2.554688 0.00390625 2.109375 -0.234375 C 1.660156 -0.484375 1.3125 -0.859375 1.0625 -1.359375 C 0.820312 -1.859375 0.703125 -2.476562 0.703125 -3.21875 C 0.703125 -3.945312 0.828125 -4.5625 1.078125 -5.0625 C 1.335938 -5.570312 1.6875 -5.945312 2.125 -6.1875 C 2.570312 -6.4375 3.082031 -6.5625 3.65625 -6.5625 C 4.476562 -6.5625 5.117188 -6.328125 5.578125 -5.859375 C 6.046875 -5.398438 6.28125 -4.710938 6.28125 -3.796875 C 6.28125 -3.441406 6.273438 -3.203125 6.265625 -3.078125 Z M 5.34375 -3.796875 C 5.332031 -4.484375 5.179688 -4.984375 4.890625 -5.296875 C 4.597656 -5.609375 4.1875 -5.765625 3.65625 -5.765625 C 3.09375 -5.765625 2.648438 -5.609375 2.328125 -5.296875 C 2.003906 -4.984375 1.804688 -4.484375 1.734375 -3.796875 Z M 5.34375 -3.796875 "/></g></g></g><g clip-path="url(#1204b09227)"><path fill="#4070a0" d="M 310.652344 0 L 389.472656 0 L 389.472656 100.0625 L 310.652344 100.0625 Z M 310.652344 0 " fill-opacity="1" fill-rule="nonzero"/></g><g fill="#000000" fill-opacity="1"><g transform="translate(331.591343, 54.58201)"><g><path d="M 3.734375 0.125 C 3.191406 0.125 2.707031 0.0507812 2.28125 -0.09375 C 1.851562 -0.238281 1.5 -0.429688 1.21875 -0.671875 C 0.9375 -0.910156 0.722656 -1.171875 0.578125 -1.453125 L 1.140625 -2.125 L 1.28125 -2.125 C 1.8125 -1.226562 2.628906 -0.78125 3.734375 -0.78125 C 4.378906 -0.78125 4.859375 -0.914062 5.171875 -1.1875 C 5.484375 -1.457031 5.640625 -1.832031 5.640625 -2.3125 C 5.640625 -2.59375 5.585938 -2.828125 5.484375 -3.015625 C 5.378906 -3.210938 5.207031 -3.378906 4.96875 -3.515625 C 4.726562 -3.660156 4.40625 -3.78125 4 -3.875 L 3 -4.125 C 2.257812 -4.300781 1.710938 -4.582031 1.359375 -4.96875 C 1.003906 -5.363281 0.828125 -5.863281 0.828125 -6.46875 C 0.828125 -6.894531 0.9375 -7.273438 1.15625 -7.609375 C 1.375 -7.941406 1.691406 -8.203125 2.109375 -8.390625 C 2.535156 -8.578125 3.039062 -8.671875 3.625 -8.671875 C 4.269531 -8.671875 4.8125 -8.578125 5.25 -8.390625 C 5.695312 -8.210938 6.050781 -7.941406 6.3125 -7.578125 L 5.828125 -6.921875 L 5.671875 -6.921875 C 5.429688 -7.222656 5.140625 -7.441406 4.796875 -7.578125 C 4.460938 -7.722656 4.070312 -7.796875 3.625 -7.796875 C 3.03125 -7.796875 2.582031 -7.675781 2.28125 -7.4375 C 1.976562 -7.207031 1.828125 -6.894531 1.828125 -6.5 C 1.828125 -6.113281 1.9375 -5.804688 2.15625 -5.578125 C 2.382812 -5.347656 2.757812 -5.171875 3.28125 -5.046875 L 4.3125 -4.796875 C 5.132812 -4.597656 5.734375 -4.296875 6.109375 -3.890625 C 6.484375 -3.492188 6.671875 -2.984375 6.671875 -2.359375 C 6.671875 -1.867188 6.5625 -1.4375 6.34375 -1.0625 C 6.125 -0.695312 5.796875 -0.40625 5.359375 -0.1875 C 4.921875 0.0195312 4.378906 0.125 3.734375 0.125 Z M 3.734375 0.125 "/></g></g><g transform="translate(338.918513, 54.58201)"><g><path d="M 6.140625 -3 L 1.71875 -3 C 1.738281 -2.21875 1.921875 -1.644531 2.265625 -1.28125 C 2.617188 -0.914062 3.101562 -0.734375 3.71875 -0.734375 C 4.175781 -0.734375 4.539062 -0.8125 4.8125 -0.96875 C 5.09375 -1.132812 5.316406 -1.394531 5.484375 -1.75 L 5.609375 -1.75 L 6.21875 -1.375 C 6.03125 -0.90625 5.726562 -0.535156 5.3125 -0.265625 C 4.90625 -0.00390625 4.375 0.125 3.71875 0.125 C 3.09375 0.125 2.554688 0.00390625 2.109375 -0.234375 C 1.660156 -0.484375 1.3125 -0.859375 1.0625 -1.359375 C 0.820312 -1.859375 0.703125 -2.476562 0.703125 -3.21875 C 0.703125 -3.945312 0.828125 -4.5625 1.078125 -5.0625 C 1.335938 -5.570312 1.6875 -5.945312 2.125 -6.1875 C 2.570312 -6.4375 3.082031 -6.5625 3.65625 -6.5625 C 4.476562 -6.5625 5.117188 -6.328125 5.578125 -5.859375 C 6.046875 -5.398438 6.28125 -4.710938 6.28125 -3.796875 C 6.28125 -3.441406 6.273438 -3.203125 6.265625 -3.078125 Z M 5.34375 -3.796875 C 5.332031 -4.484375 5.179688 -4.984375 4.890625 -5.296875 C 4.597656 -5.609375 4.1875 -5.765625 3.65625 -5.765625 C 3.09375 -5.765625 2.648438 -5.609375 2.328125 -5.296875 C 2.003906 -4.984375 1.804688 -4.484375 1.734375 -3.796875 Z M 5.34375 -3.796875 "/></g></g><g transform="translate(345.795411, 54.58201)"><g><path d="M 2.65625 0.125 C 2.019531 0.125 1.523438 -0.0390625 1.171875 -0.375 C 0.816406 -0.707031 0.640625 -1.179688 0.640625 -1.796875 C 0.640625 -2.171875 0.71875 -2.488281 0.875 -2.75 C 1.03125 -3.019531 1.273438 -3.238281 1.609375 -3.40625 C 1.941406 -3.570312 2.375 -3.695312 2.90625 -3.78125 C 3.375 -3.863281 3.726562 -3.953125 3.96875 -4.046875 C 4.21875 -4.148438 4.382812 -4.257812 4.46875 -4.375 C 4.550781 -4.5 4.59375 -4.648438 4.59375 -4.828125 C 4.59375 -5.117188 4.488281 -5.34375 4.28125 -5.5 C 4.082031 -5.65625 3.757812 -5.734375 3.3125 -5.734375 C 2.894531 -5.734375 2.535156 -5.648438 2.234375 -5.484375 C 1.941406 -5.328125 1.671875 -5.09375 1.421875 -4.78125 L 1.3125 -4.78125 L 0.84375 -5.4375 C 1.113281 -5.78125 1.457031 -6.050781 1.875 -6.25 C 2.300781 -6.457031 2.78125 -6.5625 3.3125 -6.5625 C 4.070312 -6.5625 4.632812 -6.394531 5 -6.0625 C 5.363281 -5.726562 5.546875 -5.269531 5.546875 -4.6875 L 5.546875 -1.265625 C 5.546875 -0.910156 5.695312 -0.734375 6 -0.734375 C 6.09375 -0.734375 6.1875 -0.75 6.28125 -0.78125 L 6.375 -0.765625 L 6.484375 -0.09375 C 6.410156 -0.0507812 6.316406 -0.0195312 6.203125 0 C 6.085938 0.03125 5.96875 0.046875 5.84375 0.046875 C 5.488281 0.046875 5.222656 -0.03125 5.046875 -0.1875 C 4.867188 -0.34375 4.753906 -0.570312 4.703125 -0.875 L 4.578125 -0.890625 C 4.390625 -0.546875 4.140625 -0.289062 3.828125 -0.125 C 3.515625 0.0390625 3.125 0.125 2.65625 0.125 Z M 2.875 -0.640625 C 3.226562 -0.640625 3.535156 -0.722656 3.796875 -0.890625 C 4.066406 -1.054688 4.269531 -1.285156 4.40625 -1.578125 C 4.539062 -1.878906 4.609375 -2.226562 4.609375 -2.625 L 4.609375 -3.4375 L 4.5 -3.46875 C 4.363281 -3.363281 4.191406 -3.273438 3.984375 -3.203125 C 3.773438 -3.140625 3.484375 -3.082031 3.109375 -3.03125 C 2.734375 -2.976562 2.4375 -2.898438 2.21875 -2.796875 C 2 -2.691406 1.84375 -2.554688 1.75 -2.390625 C 1.65625 -2.234375 1.609375 -2.035156 1.609375 -1.796875 C 1.609375 -1.421875 1.71875 -1.132812 1.9375 -0.9375 C 2.164062 -0.738281 2.476562 -0.640625 2.875 -0.640625 Z M 2.875 -0.640625 "/></g></g><g transform="translate(352.467639, 54.58201)"><g><path d="M 2.9375 0.125 C 2.53125 0.125 2.15625 0.0703125 1.8125 -0.03125 C 1.46875 -0.144531 1.175781 -0.296875 0.9375 -0.484375 C 0.695312 -0.671875 0.53125 -0.878906 0.4375 -1.109375 L 1 -1.6875 L 1.125 -1.6875 C 1.332031 -1.375 1.582031 -1.132812 1.875 -0.96875 C 2.175781 -0.8125 2.53125 -0.734375 2.9375 -0.734375 C 3.414062 -0.734375 3.773438 -0.820312 4.015625 -1 C 4.265625 -1.1875 4.390625 -1.445312 4.390625 -1.78125 C 4.390625 -2.03125 4.3125 -2.238281 4.15625 -2.40625 C 4.007812 -2.570312 3.769531 -2.695312 3.4375 -2.78125 L 2.359375 -3.046875 C 1.773438 -3.191406 1.347656 -3.414062 1.078125 -3.71875 C 0.816406 -4.019531 0.6875 -4.394531 0.6875 -4.84375 C 0.6875 -5.195312 0.773438 -5.5 0.953125 -5.75 C 1.128906 -6.007812 1.382812 -6.207031 1.71875 -6.34375 C 2.0625 -6.488281 2.460938 -6.5625 2.921875 -6.5625 C 3.515625 -6.5625 3.984375 -6.476562 4.328125 -6.3125 C 4.671875 -6.15625 4.9375 -5.925781 5.125 -5.625 L 4.59375 -5.109375 L 4.46875 -5.109375 C 4.257812 -5.335938 4.035156 -5.503906 3.796875 -5.609375 C 3.554688 -5.722656 3.265625 -5.78125 2.921875 -5.78125 C 2.503906 -5.78125 2.179688 -5.703125 1.953125 -5.546875 C 1.722656 -5.390625 1.609375 -5.171875 1.609375 -4.890625 C 1.609375 -4.628906 1.6875 -4.414062 1.84375 -4.25 C 2.007812 -4.09375 2.289062 -3.96875 2.6875 -3.875 L 3.75 -3.609375 C 4.3125 -3.472656 4.71875 -3.25 4.96875 -2.9375 C 5.21875 -2.632812 5.34375 -2.253906 5.34375 -1.796875 C 5.34375 -1.421875 5.253906 -1.085938 5.078125 -0.796875 C 4.898438 -0.503906 4.628906 -0.273438 4.265625 -0.109375 C 3.898438 0.046875 3.457031 0.125 2.9375 0.125 Z M 2.9375 0.125 "/></g></g><g transform="translate(358.432295, 54.58201)"><g><path d="M 3.703125 0.125 C 3.085938 0.125 2.554688 -0.00390625 2.109375 -0.265625 C 1.660156 -0.523438 1.3125 -0.90625 1.0625 -1.40625 C 0.820312 -1.90625 0.703125 -2.507812 0.703125 -3.21875 C 0.703125 -3.9375 0.820312 -4.546875 1.0625 -5.046875 C 1.3125 -5.546875 1.660156 -5.921875 2.109375 -6.171875 C 2.554688 -6.429688 3.085938 -6.5625 3.703125 -6.5625 C 4.304688 -6.5625 4.832031 -6.429688 5.28125 -6.171875 C 5.738281 -5.921875 6.085938 -5.546875 6.328125 -5.046875 C 6.566406 -4.546875 6.6875 -3.9375 6.6875 -3.21875 C 6.6875 -2.507812 6.566406 -1.90625 6.328125 -1.40625 C 6.085938 -0.90625 5.738281 -0.523438 5.28125 -0.265625 C 4.832031 -0.00390625 4.304688 0.125 3.703125 0.125 Z M 3.703125 -0.734375 C 4.335938 -0.734375 4.828125 -0.9375 5.171875 -1.34375 C 5.515625 -1.75 5.6875 -2.375 5.6875 -3.21875 C 5.6875 -4.070312 5.515625 -4.703125 5.171875 -5.109375 C 4.828125 -5.515625 4.335938 -5.71875 3.703125 -5.71875 C 3.054688 -5.71875 2.5625 -5.515625 2.21875 -5.109375 C 1.875 -4.703125 1.703125 -4.070312 1.703125 -3.21875 C 1.703125 -2.375 1.875 -1.75 2.21875 -1.34375 C 2.5625 -0.9375 3.054688 -0.734375 3.703125 -0.734375 Z M 3.703125 -0.734375 "/></g></g><g transform="translate(365.835485, 54.58201)"><g><path d="M 1.125 0 L 1.125 -6.453125 L 2.03125 -6.453125 L 2.03125 -5.4375 L 2.15625 -5.40625 C 2.363281 -5.78125 2.632812 -6.066406 2.96875 -6.265625 C 3.300781 -6.460938 3.707031 -6.5625 4.1875 -6.5625 C 4.96875 -6.5625 5.53125 -6.363281 5.875 -5.96875 C 6.226562 -5.570312 6.40625 -4.96875 6.40625 -4.15625 L 6.40625 0 L 5.453125 0 L 5.453125 -4.125 C 5.453125 -4.507812 5.398438 -4.820312 5.296875 -5.0625 C 5.203125 -5.300781 5.046875 -5.472656 4.828125 -5.578125 C 4.617188 -5.679688 4.347656 -5.734375 4.015625 -5.734375 C 3.429688 -5.734375 2.960938 -5.539062 2.609375 -5.15625 C 2.253906 -4.78125 2.078125 -4.164062 2.078125 -3.3125 L 2.078125 0 Z M 1.125 0 "/></g></g></g><g clip-path="url(#5e2b470e68)"><path fill="#4070a0" d="M 237.066406 0 L 315.886719 0 L 315.886719 100.0625 L 237.066406 100.0625 Z M 237.066406 0 " fill-opacity="1" fill-rule="nonzero"/></g><g fill="#000000" fill-opacity="1"><g transform="translate(250.336386, 54.576736)"><g><path d="M 6.671875 -8.546875 L 6.671875 -7.6875 L 3.984375 -7.6875 L 3.984375 0 L 3 0 L 3 -7.6875 L 0.3125 -7.6875 L 0.3125 -8.546875 Z M 6.671875 -8.546875 "/></g></g><g transform="translate(257.310339, 54.576736)"><g><path d="M 6.140625 -3 L 1.71875 -3 C 1.738281 -2.21875 1.921875 -1.644531 2.265625 -1.28125 C 2.617188 -0.914062 3.101562 -0.734375 3.71875 -0.734375 C 4.175781 -0.734375 4.539062 -0.8125 4.8125 -0.96875 C 5.09375 -1.132812 5.316406 -1.394531 5.484375 -1.75 L 5.609375 -1.75 L 6.21875 -1.375 C 6.03125 -0.90625 5.726562 -0.535156 5.3125 -0.265625 C 4.90625 -0.00390625 4.375 0.125 3.71875 0.125 C 3.09375 0.125 2.554688 0.00390625 2.109375 -0.234375 C 1.660156 -0.484375 1.3125 -0.859375 1.0625 -1.359375 C 0.820312 -1.859375 0.703125 -2.476562 0.703125 -3.21875 C 0.703125 -3.945312 0.828125 -4.5625 1.078125 -5.0625 C 1.335938 -5.570312 1.6875 -5.945312 2.125 -6.1875 C 2.570312 -6.4375 3.082031 -6.5625 3.65625 -6.5625 C 4.476562 -6.5625 5.117188 -6.328125 5.578125 -5.859375 C 6.046875 -5.398438 6.28125 -4.710938 6.28125 -3.796875 C 6.28125 -3.441406 6.273438 -3.203125 6.265625 -3.078125 Z M 5.34375 -3.796875 C 5.332031 -4.484375 5.179688 -4.984375 4.890625 -5.296875 C 4.597656 -5.609375 4.1875 -5.765625 3.65625 -5.765625 C 3.09375 -5.765625 2.648438 -5.609375 2.328125 -5.296875 C 2.003906 -4.984375 1.804688 -4.484375 1.734375 -3.796875 Z M 5.34375 -3.796875 "/></g></g><g transform="translate(264.179158, 54.576736)"><g><path d="M 2.65625 0.125 C 2.019531 0.125 1.523438 -0.0390625 1.171875 -0.375 C 0.816406 -0.707031 0.640625 -1.179688 0.640625 -1.796875 C 0.640625 -2.171875 0.71875 -2.488281 0.875 -2.75 C 1.03125 -3.019531 1.273438 -3.238281 1.609375 -3.40625 C 1.941406 -3.570312 2.375 -3.695312 2.90625 -3.78125 C 3.375 -3.863281 3.726562 -3.953125 3.96875 -4.046875 C 4.21875 -4.148438 4.382812 -4.257812 4.46875 -4.375 C 4.550781 -4.5 4.59375 -4.648438 4.59375 -4.828125 C 4.59375 -5.117188 4.488281 -5.34375 4.28125 -5.5 C 4.082031 -5.65625 3.757812 -5.734375 3.3125 -5.734375 C 2.894531 -5.734375 2.535156 -5.648438 2.234375 -5.484375 C 1.941406 -5.328125 1.671875 -5.09375 1.421875 -4.78125 L 1.3125 -4.78125 L 0.84375 -5.4375 C 1.113281 -5.78125 1.457031 -6.050781 1.875 -6.25 C 2.300781 -6.457031 2.78125 -6.5625 3.3125 -6.5625 C 4.070312 -6.5625 4.632812 -6.394531 5 -6.0625 C 5.363281 -5.726562 5.546875 -5.269531 5.546875 -4.6875 L 5.546875 -1.265625 C 5.546875 -0.910156 5.695312 -0.734375 6 -0.734375 C 6.09375 -0.734375 6.1875 -0.75 6.28125 -0.78125 L 6.375 -0.765625 L 6.484375 -0.09375 C 6.410156 -0.0507812 6.316406 -0.0195312 6.203125 0 C 6.085938 0.03125 5.96875 0.046875 5.84375 0.046875 C 5.488281 0.046875 5.222656 -0.03125 5.046875 -0.1875 C 4.867188 -0.34375 4.753906 -0.570312 4.703125 -0.875 L 4.578125 -0.890625 C 4.390625 -0.546875 4.140625 -0.289062 3.828125 -0.125 C 3.515625 0.0390625 3.125 0.125 2.65625 0.125 Z M 2.875 -0.640625 C 3.226562 -0.640625 3.535156 -0.722656 3.796875 -0.890625 C 4.066406 -1.054688 4.269531 -1.285156 4.40625 -1.578125 C 4.539062 -1.878906 4.609375 -2.226562 4.609375 -2.625 L 4.609375 -3.4375 L 4.5 -3.46875 C 4.363281 -3.363281 4.191406 -3.273438 3.984375 -3.203125 C 3.773438 -3.140625 3.484375 -3.082031 3.109375 -3.03125 C 2.734375 -2.976562 2.4375 -2.898438 2.21875 -2.796875 C 2 -2.691406 1.84375 -2.554688 1.75 -2.390625 C 1.65625 -2.234375 1.609375 -2.035156 1.609375 -1.796875 C 1.609375 -1.421875 1.71875 -1.132812 1.9375 -0.9375 C 2.164062 -0.738281 2.476562 -0.640625 2.875 -0.640625 Z M 2.875 -0.640625 "/></g></g><g transform="translate(270.843548, 54.576736)"><g><path d="M 1.125 0 L 1.125 -6.453125 L 2.03125 -6.453125 L 2.03125 -5.5 L 2.15625 -5.46875 C 2.375 -5.832031 2.632812 -6.101562 2.9375 -6.28125 C 3.25 -6.46875 3.625 -6.5625 4.0625 -6.5625 C 4.550781 -6.5625 4.929688 -6.46875 5.203125 -6.28125 C 5.484375 -6.09375 5.695312 -5.789062 5.84375 -5.375 L 5.96875 -5.375 C 6.195312 -5.769531 6.472656 -6.066406 6.796875 -6.265625 C 7.117188 -6.460938 7.519531 -6.5625 8 -6.5625 C 8.65625 -6.5625 9.144531 -6.382812 9.46875 -6.03125 C 9.800781 -5.675781 9.96875 -5.128906 9.96875 -4.390625 L 9.96875 0 L 9.015625 0 L 9.015625 -4.375 C 9.015625 -4.84375 8.914062 -5.1875 8.71875 -5.40625 C 8.519531 -5.625 8.203125 -5.734375 7.765625 -5.734375 C 7.253906 -5.734375 6.832031 -5.546875 6.5 -5.171875 C 6.175781 -4.796875 6.015625 -4.179688 6.015625 -3.328125 L 6.015625 0 L 5.0625 0 L 5.0625 -4.375 C 5.0625 -4.84375 4.960938 -5.1875 4.765625 -5.40625 C 4.578125 -5.625 4.265625 -5.734375 3.828125 -5.734375 C 3.304688 -5.734375 2.882812 -5.550781 2.5625 -5.1875 C 2.238281 -4.832031 2.078125 -4.25 2.078125 -3.4375 L 2.078125 0 Z M 1.125 0 "/></g></g><g transform="translate(281.824312, 54.576736)"><g><path d="M 0.515625 -0.390625 C 0.515625 -0.859375 0.566406 -1.238281 0.671875 -1.53125 C 0.773438 -1.820312 0.953125 -2.09375 1.203125 -2.34375 C 1.453125 -2.59375 1.847656 -2.914062 2.390625 -3.3125 L 3.328125 -3.984375 C 3.671875 -4.242188 3.953125 -4.476562 4.171875 -4.6875 C 4.390625 -4.90625 4.5625 -5.140625 4.6875 -5.390625 C 4.820312 -5.640625 4.890625 -5.921875 4.890625 -6.234375 C 4.890625 -6.742188 4.753906 -7.125 4.484375 -7.375 C 4.210938 -7.632812 3.789062 -7.765625 3.21875 -7.765625 C 2.769531 -7.765625 2.367188 -7.660156 2.015625 -7.453125 C 1.660156 -7.242188 1.378906 -6.945312 1.171875 -6.5625 L 1.046875 -6.53125 L 0.4375 -7.171875 C 0.726562 -7.628906 1.109375 -7.992188 1.578125 -8.265625 C 2.046875 -8.535156 2.59375 -8.671875 3.21875 -8.671875 C 3.820312 -8.671875 4.320312 -8.566406 4.71875 -8.359375 C 5.125 -8.148438 5.421875 -7.863281 5.609375 -7.5 C 5.804688 -7.132812 5.90625 -6.710938 5.90625 -6.234375 C 5.90625 -5.847656 5.820312 -5.488281 5.65625 -5.15625 C 5.5 -4.832031 5.273438 -4.523438 4.984375 -4.234375 C 4.691406 -3.941406 4.328125 -3.632812 3.890625 -3.3125 L 2.9375 -2.609375 C 2.582031 -2.347656 2.304688 -2.125 2.109375 -1.9375 C 1.921875 -1.757812 1.785156 -1.582031 1.703125 -1.40625 C 1.617188 -1.238281 1.578125 -1.046875 1.578125 -0.828125 L 5.90625 -0.828125 L 5.90625 0 L 0.515625 0 Z M 0.515625 -0.390625 "/></g></g><g transform="translate(288.389408, 54.576736)"><g/></g><g transform="translate(291.321505, 54.576736)"><g><path d="M 2.296875 0 L 1.296875 0 L 1.296875 -8.546875 L 2.296875 -8.546875 Z M 2.296875 0 "/></g></g><g transform="translate(294.913617, 54.576736)"><g><path d="M 3.34375 0.125 C 2.820312 0.125 2.363281 0 1.96875 -0.25 C 1.570312 -0.5 1.257812 -0.867188 1.03125 -1.359375 C 0.8125 -1.859375 0.703125 -2.476562 0.703125 -3.21875 C 0.703125 -3.957031 0.816406 -4.578125 1.046875 -5.078125 C 1.285156 -5.578125 1.609375 -5.945312 2.015625 -6.1875 C 2.429688 -6.4375 2.910156 -6.5625 3.453125 -6.5625 C 3.878906 -6.5625 4.265625 -6.476562 4.609375 -6.3125 C 4.953125 -6.15625 5.25 -5.894531 5.5 -5.53125 L 5.609375 -5.546875 L 5.609375 -9.03125 L 6.5625 -9.03125 L 6.5625 0 L 5.609375 0 L 5.609375 -0.9375 L 5.5 -0.96875 C 5.28125 -0.644531 4.988281 -0.378906 4.625 -0.171875 C 4.269531 0.0234375 3.84375 0.125 3.34375 0.125 Z M 3.640625 -0.734375 C 4.242188 -0.734375 4.722656 -0.9375 5.078125 -1.34375 C 5.429688 -1.757812 5.609375 -2.382812 5.609375 -3.21875 C 5.609375 -4.0625 5.429688 -4.6875 5.078125 -5.09375 C 4.722656 -5.507812 4.242188 -5.71875 3.640625 -5.71875 C 3.023438 -5.71875 2.546875 -5.515625 2.203125 -5.109375 C 1.867188 -4.710938 1.703125 -4.082031 1.703125 -3.21875 C 1.703125 -1.5625 2.347656 -0.734375 3.640625 -0.734375 Z M 3.640625 -0.734375 "/></g></g></g><g clip-path="url(#4f3beab701)"><path fill="#4070a0" d="M 160.609375 0 L 239.429688 0 L 239.429688 100.0625 L 160.609375 100.0625 Z M 160.609375 0 " fill-opacity="1" fill-rule="nonzero"/></g><g fill="#000000" fill-opacity="1"><g transform="translate(173.974835, 54.576736)"><g><path d="M 6.671875 -8.546875 L 6.671875 -7.6875 L 3.984375 -7.6875 L 3.984375 0 L 3 0 L 3 -7.6875 L 0.3125 -7.6875 L 0.3125 -8.546875 Z M 6.671875 -8.546875 "/></g></g><g transform="translate(180.948789, 54.576736)"><g><path d="M 6.140625 -3 L 1.71875 -3 C 1.738281 -2.21875 1.921875 -1.644531 2.265625 -1.28125 C 2.617188 -0.914062 3.101562 -0.734375 3.71875 -0.734375 C 4.175781 -0.734375 4.539062 -0.8125 4.8125 -0.96875 C 5.09375 -1.132812 5.316406 -1.394531 5.484375 -1.75 L 5.609375 -1.75 L 6.21875 -1.375 C 6.03125 -0.90625 5.726562 -0.535156 5.3125 -0.265625 C 4.90625 -0.00390625 4.375 0.125 3.71875 0.125 C 3.09375 0.125 2.554688 0.00390625 2.109375 -0.234375 C 1.660156 -0.484375 1.3125 -0.859375 1.0625 -1.359375 C 0.820312 -1.859375 0.703125 -2.476562 0.703125 -3.21875 C 0.703125 -3.945312 0.828125 -4.5625 1.078125 -5.0625 C 1.335938 -5.570312 1.6875 -5.945312 2.125 -6.1875 C 2.570312 -6.4375 3.082031 -6.5625 3.65625 -6.5625 C 4.476562 -6.5625 5.117188 -6.328125 5.578125 -5.859375 C 6.046875 -5.398438 6.28125 -4.710938 6.28125 -3.796875 C 6.28125 -3.441406 6.273438 -3.203125 6.265625 -3.078125 Z M 5.34375 -3.796875 C 5.332031 -4.484375 5.179688 -4.984375 4.890625 -5.296875 C 4.597656 -5.609375 4.1875 -5.765625 3.65625 -5.765625 C 3.09375 -5.765625 2.648438 -5.609375 2.328125 -5.296875 C 2.003906 -4.984375 1.804688 -4.484375 1.734375 -3.796875 Z M 5.34375 -3.796875 "/></g></g><g transform="translate(187.817608, 54.576736)"><g><path d="M 2.65625 0.125 C 2.019531 0.125 1.523438 -0.0390625 1.171875 -0.375 C 0.816406 -0.707031 0.640625 -1.179688 0.640625 -1.796875 C 0.640625 -2.171875 0.71875 -2.488281 0.875 -2.75 C 1.03125 -3.019531 1.273438 -3.238281 1.609375 -3.40625 C 1.941406 -3.570312 2.375 -3.695312 2.90625 -3.78125 C 3.375 -3.863281 3.726562 -3.953125 3.96875 -4.046875 C 4.21875 -4.148438 4.382812 -4.257812 4.46875 -4.375 C 4.550781 -4.5 4.59375 -4.648438 4.59375 -4.828125 C 4.59375 -5.117188 4.488281 -5.34375 4.28125 -5.5 C 4.082031 -5.65625 3.757812 -5.734375 3.3125 -5.734375 C 2.894531 -5.734375 2.535156 -5.648438 2.234375 -5.484375 C 1.941406 -5.328125 1.671875 -5.09375 1.421875 -4.78125 L 1.3125 -4.78125 L 0.84375 -5.4375 C 1.113281 -5.78125 1.457031 -6.050781 1.875 -6.25 C 2.300781 -6.457031 2.78125 -6.5625 3.3125 -6.5625 C 4.070312 -6.5625 4.632812 -6.394531 5 -6.0625 C 5.363281 -5.726562 5.546875 -5.269531 5.546875 -4.6875 L 5.546875 -1.265625 C 5.546875 -0.910156 5.695312 -0.734375 6 -0.734375 C 6.09375 -0.734375 6.1875 -0.75 6.28125 -0.78125 L 6.375 -0.765625 L 6.484375 -0.09375 C 6.410156 -0.0507812 6.316406 -0.0195312 6.203125 0 C 6.085938 0.03125 5.96875 0.046875 5.84375 0.046875 C 5.488281 0.046875 5.222656 -0.03125 5.046875 -0.1875 C 4.867188 -0.34375 4.753906 -0.570312 4.703125 -0.875 L 4.578125 -0.890625 C 4.390625 -0.546875 4.140625 -0.289062 3.828125 -0.125 C 3.515625 0.0390625 3.125 0.125 2.65625 0.125 Z M 2.875 -0.640625 C 3.226562 -0.640625 3.535156 -0.722656 3.796875 -0.890625 C 4.066406 -1.054688 4.269531 -1.285156 4.40625 -1.578125 C 4.539062 -1.878906 4.609375 -2.226562 4.609375 -2.625 L 4.609375 -3.4375 L 4.5 -3.46875 C 4.363281 -3.363281 4.191406 -3.273438 3.984375 -3.203125 C 3.773438 -3.140625 3.484375 -3.082031 3.109375 -3.03125 C 2.734375 -2.976562 2.4375 -2.898438 2.21875 -2.796875 C 2 -2.691406 1.84375 -2.554688 1.75 -2.390625 C 1.65625 -2.234375 1.609375 -2.035156 1.609375 -1.796875 C 1.609375 -1.421875 1.71875 -1.132812 1.9375 -0.9375 C 2.164062 -0.738281 2.476562 -0.640625 2.875 -0.640625 Z M 2.875 -0.640625 "/></g></g><g transform="translate(194.481997, 54.576736)"><g><path d="M 1.125 0 L 1.125 -6.453125 L 2.03125 -6.453125 L 2.03125 -5.5 L 2.15625 -5.46875 C 2.375 -5.832031 2.632812 -6.101562 2.9375 -6.28125 C 3.25 -6.46875 3.625 -6.5625 4.0625 -6.5625 C 4.550781 -6.5625 4.929688 -6.46875 5.203125 -6.28125 C 5.484375 -6.09375 5.695312 -5.789062 5.84375 -5.375 L 5.96875 -5.375 C 6.195312 -5.769531 6.472656 -6.066406 6.796875 -6.265625 C 7.117188 -6.460938 7.519531 -6.5625 8 -6.5625 C 8.65625 -6.5625 9.144531 -6.382812 9.46875 -6.03125 C 9.800781 -5.675781 9.96875 -5.128906 9.96875 -4.390625 L 9.96875 0 L 9.015625 0 L 9.015625 -4.375 C 9.015625 -4.84375 8.914062 -5.1875 8.71875 -5.40625 C 8.519531 -5.625 8.203125 -5.734375 7.765625 -5.734375 C 7.253906 -5.734375 6.832031 -5.546875 6.5 -5.171875 C 6.175781 -4.796875 6.015625 -4.179688 6.015625 -3.328125 L 6.015625 0 L 5.0625 0 L 5.0625 -4.375 C 5.0625 -4.84375 4.960938 -5.1875 4.765625 -5.40625 C 4.578125 -5.625 4.265625 -5.734375 3.828125 -5.734375 C 3.304688 -5.734375 2.882812 -5.550781 2.5625 -5.1875 C 2.238281 -4.832031 2.078125 -4.25 2.078125 -3.4375 L 2.078125 0 Z M 1.125 0 "/></g></g><g transform="translate(205.462762, 54.576736)"><g><path d="M 0.609375 0 L 0.609375 -0.828125 L 2.9375 -0.828125 L 2.9375 -7.359375 L 2.8125 -7.40625 C 2.425781 -7.21875 2.09375 -7.070312 1.8125 -6.96875 C 1.53125 -6.863281 1.164062 -6.769531 0.71875 -6.6875 L 0.71875 -7.609375 C 1.15625 -7.703125 1.585938 -7.828125 2.015625 -7.984375 C 2.453125 -8.140625 2.847656 -8.328125 3.203125 -8.546875 L 3.921875 -8.546875 L 3.921875 -0.828125 L 6 -0.828125 L 6 0 Z M 0.609375 0 "/></g></g><g transform="translate(211.829269, 54.576736)"><g/></g><g transform="translate(214.761367, 54.576736)"><g><path d="M 2.296875 0 L 1.296875 0 L 1.296875 -8.546875 L 2.296875 -8.546875 Z M 2.296875 0 "/></g></g><g transform="translate(218.353479, 54.576736)"><g><path d="M 3.34375 0.125 C 2.820312 0.125 2.363281 0 1.96875 -0.25 C 1.570312 -0.5 1.257812 -0.867188 1.03125 -1.359375 C 0.8125 -1.859375 0.703125 -2.476562 0.703125 -3.21875 C 0.703125 -3.957031 0.816406 -4.578125 1.046875 -5.078125 C 1.285156 -5.578125 1.609375 -5.945312 2.015625 -6.1875 C 2.429688 -6.4375 2.910156 -6.5625 3.453125 -6.5625 C 3.878906 -6.5625 4.265625 -6.476562 4.609375 -6.3125 C 4.953125 -6.15625 5.25 -5.894531 5.5 -5.53125 L 5.609375 -5.546875 L 5.609375 -9.03125 L 6.5625 -9.03125 L 6.5625 0 L 5.609375 0 L 5.609375 -0.9375 L 5.5 -0.96875 C 5.28125 -0.644531 4.988281 -0.378906 4.625 -0.171875 C 4.269531 0.0234375 3.84375 0.125 3.34375 0.125 Z M 3.640625 -0.734375 C 4.242188 -0.734375 4.722656 -0.9375 5.078125 -1.34375 C 5.429688 -1.757812 5.609375 -2.382812 5.609375 -3.21875 C 5.609375 -4.0625 5.429688 -4.6875 5.078125 -5.09375 C 4.722656 -5.507812 4.242188 -5.71875 3.640625 -5.71875 C 3.023438 -5.71875 2.546875 -5.515625 2.203125 -5.109375 C 1.867188 -4.710938 1.703125 -4.082031 1.703125 -3.21875 C 1.703125 -1.5625 2.347656 -0.734375 3.640625 -0.734375 Z M 3.640625 -0.734375 "/></g></g></g><g clip-path="url(#a4d616fddb)"><path fill="#4070a0" d="M 384.238281 0 L 463.058594 0 L 463.058594 100.0625 L 384.238281 100.0625 Z M 384.238281 0 " fill-opacity="1" fill-rule="nonzero"/></g><g fill="#000000" fill-opacity="1"><g transform="translate(402.426822, 54.576736)"><g><path d="M 1.296875 0 L 1.296875 -8.546875 L 4.390625 -8.546875 C 4.960938 -8.546875 5.441406 -8.453125 5.828125 -8.265625 C 6.222656 -8.078125 6.515625 -7.804688 6.703125 -7.453125 C 6.898438 -7.109375 7 -6.703125 7 -6.234375 C 7 -5.703125 6.867188 -5.265625 6.609375 -4.921875 C 6.347656 -4.578125 5.9375 -4.320312 5.375 -4.15625 L 5.375 -4.03125 C 5.644531 -3.914062 5.867188 -3.738281 6.046875 -3.5 C 6.222656 -3.269531 6.382812 -2.925781 6.53125 -2.46875 L 7.328125 0 L 6.28125 0 L 5.4375 -2.609375 C 5.332031 -2.921875 5.210938 -3.160156 5.078125 -3.328125 C 4.953125 -3.503906 4.785156 -3.628906 4.578125 -3.703125 C 4.378906 -3.785156 4.125 -3.828125 3.8125 -3.828125 L 2.296875 -3.828125 L 2.296875 0 Z M 4.375 -4.6875 C 4.90625 -4.6875 5.300781 -4.804688 5.5625 -5.046875 C 5.820312 -5.296875 5.953125 -5.675781 5.953125 -6.1875 C 5.953125 -6.695312 5.820312 -7.070312 5.5625 -7.3125 C 5.300781 -7.5625 4.90625 -7.6875 4.375 -7.6875 L 2.296875 -7.6875 L 2.296875 -4.6875 Z M 4.375 -4.6875 "/></g></g><g transform="translate(410.335309, 54.576736)"><g><path d="M 6.140625 -3 L 1.71875 -3 C 1.738281 -2.21875 1.921875 -1.644531 2.265625 -1.28125 C 2.617188 -0.914062 3.101562 -0.734375 3.71875 -0.734375 C 4.175781 -0.734375 4.539062 -0.8125 4.8125 -0.96875 C 5.09375 -1.132812 5.316406 -1.394531 5.484375 -1.75 L 5.609375 -1.75 L 6.21875 -1.375 C 6.03125 -0.90625 5.726562 -0.535156 5.3125 -0.265625 C 4.90625 -0.00390625 4.375 0.125 3.71875 0.125 C 3.09375 0.125 2.554688 0.00390625 2.109375 -0.234375 C 1.660156 -0.484375 1.3125 -0.859375 1.0625 -1.359375 C 0.820312 -1.859375 0.703125 -2.476562 0.703125 -3.21875 C 0.703125 -3.945312 0.828125 -4.5625 1.078125 -5.0625 C 1.335938 -5.570312 1.6875 -5.945312 2.125 -6.1875 C 2.570312 -6.4375 3.082031 -6.5625 3.65625 -6.5625 C 4.476562 -6.5625 5.117188 -6.328125 5.578125 -5.859375 C 6.046875 -5.398438 6.28125 -4.710938 6.28125 -3.796875 C 6.28125 -3.441406 6.273438 -3.203125 6.265625 -3.078125 Z M 5.34375 -3.796875 C 5.332031 -4.484375 5.179688 -4.984375 4.890625 -5.296875 C 4.597656 -5.609375 4.1875 -5.765625 3.65625 -5.765625 C 3.09375 -5.765625 2.648438 -5.609375 2.328125 -5.296875 C 2.003906 -4.984375 1.804688 -4.484375 1.734375 -3.796875 Z M 5.34375 -3.796875 "/></g></g><g transform="translate(417.204128, 54.576736)"><g><path d="M 2.9375 0.125 C 2.53125 0.125 2.15625 0.0703125 1.8125 -0.03125 C 1.46875 -0.144531 1.175781 -0.296875 0.9375 -0.484375 C 0.695312 -0.671875 0.53125 -0.878906 0.4375 -1.109375 L 1 -1.6875 L 1.125 -1.6875 C 1.332031 -1.375 1.582031 -1.132812 1.875 -0.96875 C 2.175781 -0.8125 2.53125 -0.734375 2.9375 -0.734375 C 3.414062 -0.734375 3.773438 -0.820312 4.015625 -1 C 4.265625 -1.1875 4.390625 -1.445312 4.390625 -1.78125 C 4.390625 -2.03125 4.3125 -2.238281 4.15625 -2.40625 C 4.007812 -2.570312 3.769531 -2.695312 3.4375 -2.78125 L 2.359375 -3.046875 C 1.773438 -3.191406 1.347656 -3.414062 1.078125 -3.71875 C 0.816406 -4.019531 0.6875 -4.394531 0.6875 -4.84375 C 0.6875 -5.195312 0.773438 -5.5 0.953125 -5.75 C 1.128906 -6.007812 1.382812 -6.207031 1.71875 -6.34375 C 2.0625 -6.488281 2.460938 -6.5625 2.921875 -6.5625 C 3.515625 -6.5625 3.984375 -6.476562 4.328125 -6.3125 C 4.671875 -6.15625 4.9375 -5.925781 5.125 -5.625 L 4.59375 -5.109375 L 4.46875 -5.109375 C 4.257812 -5.335938 4.035156 -5.503906 3.796875 -5.609375 C 3.554688 -5.722656 3.265625 -5.78125 2.921875 -5.78125 C 2.503906 -5.78125 2.179688 -5.703125 1.953125 -5.546875 C 1.722656 -5.390625 1.609375 -5.171875 1.609375 -4.890625 C 1.609375 -4.628906 1.6875 -4.414062 1.84375 -4.25 C 2.007812 -4.09375 2.289062 -3.96875 2.6875 -3.875 L 3.75 -3.609375 C 4.3125 -3.472656 4.71875 -3.25 4.96875 -2.9375 C 5.21875 -2.632812 5.34375 -2.253906 5.34375 -1.796875 C 5.34375 -1.421875 5.253906 -1.085938 5.078125 -0.796875 C 4.898438 -0.503906 4.628906 -0.273438 4.265625 -0.109375 C 3.898438 0.046875 3.457031 0.125 2.9375 0.125 Z M 2.9375 0.125 "/></g></g><g transform="translate(423.161776, 54.576736)"><g><path d="M 3.1875 0.125 C 2.457031 0.125 1.910156 -0.0664062 1.546875 -0.453125 C 1.191406 -0.835938 1.015625 -1.40625 1.015625 -2.15625 L 1.015625 -6.453125 L 1.96875 -6.453125 L 1.96875 -2.171875 C 1.96875 -1.191406 2.429688 -0.703125 3.359375 -0.703125 C 3.941406 -0.703125 4.398438 -0.894531 4.734375 -1.28125 C 5.078125 -1.664062 5.25 -2.285156 5.25 -3.140625 L 5.25 -6.453125 L 6.203125 -6.453125 L 6.203125 0 L 5.296875 0 L 5.296875 -1.015625 L 5.171875 -1.046875 C 4.953125 -0.648438 4.6875 -0.351562 4.375 -0.15625 C 4.070312 0.03125 3.675781 0.125 3.1875 0.125 Z M 3.1875 0.125 "/></g></g><g transform="translate(430.480339, 54.576736)"><g><path d="M 2.5625 0.125 C 2.101562 0.125 1.742188 -0.00390625 1.484375 -0.265625 C 1.222656 -0.523438 1.09375 -0.910156 1.09375 -1.421875 L 1.09375 -9.03125 L 2.046875 -9.03125 L 2.046875 -1.484375 C 2.046875 -1.222656 2.097656 -1.03125 2.203125 -0.90625 C 2.304688 -0.789062 2.46875 -0.734375 2.6875 -0.734375 C 2.820312 -0.734375 2.957031 -0.753906 3.09375 -0.796875 L 3.171875 -0.765625 L 3.28125 -0.015625 C 3.207031 0.0234375 3.101562 0.0546875 2.96875 0.078125 C 2.84375 0.109375 2.707031 0.125 2.5625 0.125 Z M 2.5625 0.125 "/></g></g><g transform="translate(433.984839, 54.576736)"><g><path d="M 4.359375 -1.015625 L 4.65625 -0.34375 C 4.507812 -0.1875 4.3125 -0.0703125 4.0625 0 C 3.8125 0.0820312 3.546875 0.125 3.265625 0.125 C 2.035156 0.125 1.421875 -0.5 1.421875 -1.75 L 1.421875 -5.671875 L 0.296875 -5.671875 L 0.296875 -6.453125 L 1.421875 -6.453125 L 1.421875 -7.8125 L 2.359375 -7.96875 L 2.359375 -6.453125 L 4.4375 -6.453125 L 4.4375 -5.671875 L 2.359375 -5.671875 L 2.359375 -1.84375 C 2.359375 -1.101562 2.679688 -0.734375 3.328125 -0.734375 C 3.679688 -0.734375 3.984375 -0.828125 4.234375 -1.015625 Z M 4.359375 -1.015625 "/></g></g><g transform="translate(438.891138, 54.576736)"><g><path d="M 2.9375 0.125 C 2.53125 0.125 2.15625 0.0703125 1.8125 -0.03125 C 1.46875 -0.144531 1.175781 -0.296875 0.9375 -0.484375 C 0.695312 -0.671875 0.53125 -0.878906 0.4375 -1.109375 L 1 -1.6875 L 1.125 -1.6875 C 1.332031 -1.375 1.582031 -1.132812 1.875 -0.96875 C 2.175781 -0.8125 2.53125 -0.734375 2.9375 -0.734375 C 3.414062 -0.734375 3.773438 -0.820312 4.015625 -1 C 4.265625 -1.1875 4.390625 -1.445312 4.390625 -1.78125 C 4.390625 -2.03125 4.3125 -2.238281 4.15625 -2.40625 C 4.007812 -2.570312 3.769531 -2.695312 3.4375 -2.78125 L 2.359375 -3.046875 C 1.773438 -3.191406 1.347656 -3.414062 1.078125 -3.71875 C 0.816406 -4.019531 0.6875 -4.394531 0.6875 -4.84375 C 0.6875 -5.195312 0.773438 -5.5 0.953125 -5.75 C 1.128906 -6.007812 1.382812 -6.207031 1.71875 -6.34375 C 2.0625 -6.488281 2.460938 -6.5625 2.921875 -6.5625 C 3.515625 -6.5625 3.984375 -6.476562 4.328125 -6.3125 C 4.671875 -6.15625 4.9375 -5.925781 5.125 -5.625 L 4.59375 -5.109375 L 4.46875 -5.109375 C 4.257812 -5.335938 4.035156 -5.503906 3.796875 -5.609375 C 3.554688 -5.722656 3.265625 -5.78125 2.921875 -5.78125 C 2.503906 -5.78125 2.179688 -5.703125 1.953125 -5.546875 C 1.722656 -5.390625 1.609375 -5.171875 1.609375 -4.890625 C 1.609375 -4.628906 1.6875 -4.414062 1.84375 -4.25 C 2.007812 -4.09375 2.289062 -3.96875 2.6875 -3.875 L 3.75 -3.609375 C 4.3125 -3.472656 4.71875 -3.25 4.96875 -2.9375 C 5.21875 -2.632812 5.34375 -2.253906 5.34375 -1.796875 C 5.34375 -1.421875 5.253906 -1.085938 5.078125 -0.796875 C 4.898438 -0.503906 4.628906 -0.273438 4.265625 -0.109375 C 3.898438 0.046875 3.457031 0.125 2.9375 0.125 Z M 2.9375 0.125 "/></g></g></g><g clip-path="url(#7c4f8821cb)"><path fill="#4070a0" d="M 3.289062 135.003906 L 82.109375 135.003906 L 82.109375 235.066406 L 3.289062 235.066406 Z M 3.289062 135.003906 " fill-opacity="1" fill-rule="nonzero"/></g><g fill="#000000" fill-opacity="1"><g transform="translate(16.654428, 189.580141)"><g><path d="M 6.671875 -8.546875 L 6.671875 -7.6875 L 3.984375 -7.6875 L 3.984375 0 L 3 0 L 3 -7.6875 L 0.3125 -7.6875 L 0.3125 -8.546875 Z M 6.671875 -8.546875 "/></g></g><g transform="translate(23.628382, 189.580141)"><g><path d="M 6.140625 -3 L 1.71875 -3 C 1.738281 -2.21875 1.921875 -1.644531 2.265625 -1.28125 C 2.617188 -0.914062 3.101562 -0.734375 3.71875 -0.734375 C 4.175781 -0.734375 4.539062 -0.8125 4.8125 -0.96875 C 5.09375 -1.132812 5.316406 -1.394531 5.484375 -1.75 L 5.609375 -1.75 L 6.21875 -1.375 C 6.03125 -0.90625 5.726562 -0.535156 5.3125 -0.265625 C 4.90625 -0.00390625 4.375 0.125 3.71875 0.125 C 3.09375 0.125 2.554688 0.00390625 2.109375 -0.234375 C 1.660156 -0.484375 1.3125 -0.859375 1.0625 -1.359375 C 0.820312 -1.859375 0.703125 -2.476562 0.703125 -3.21875 C 0.703125 -3.945312 0.828125 -4.5625 1.078125 -5.0625 C 1.335938 -5.570312 1.6875 -5.945312 2.125 -6.1875 C 2.570312 -6.4375 3.082031 -6.5625 3.65625 -6.5625 C 4.476562 -6.5625 5.117188 -6.328125 5.578125 -5.859375 C 6.046875 -5.398438 6.28125 -4.710938 6.28125 -3.796875 C 6.28125 -3.441406 6.273438 -3.203125 6.265625 -3.078125 Z M 5.34375 -3.796875 C 5.332031 -4.484375 5.179688 -4.984375 4.890625 -5.296875 C 4.597656 -5.609375 4.1875 -5.765625 3.65625 -5.765625 C 3.09375 -5.765625 2.648438 -5.609375 2.328125 -5.296875 C 2.003906 -4.984375 1.804688 -4.484375 1.734375 -3.796875 Z M 5.34375 -3.796875 "/></g></g><g transform="translate(30.4972, 189.580141)"><g><path d="M 2.65625 0.125 C 2.019531 0.125 1.523438 -0.0390625 1.171875 -0.375 C 0.816406 -0.707031 0.640625 -1.179688 0.640625 -1.796875 C 0.640625 -2.171875 0.71875 -2.488281 0.875 -2.75 C 1.03125 -3.019531 1.273438 -3.238281 1.609375 -3.40625 C 1.941406 -3.570312 2.375 -3.695312 2.90625 -3.78125 C 3.375 -3.863281 3.726562 -3.953125 3.96875 -4.046875 C 4.21875 -4.148438 4.382812 -4.257812 4.46875 -4.375 C 4.550781 -4.5 4.59375 -4.648438 4.59375 -4.828125 C 4.59375 -5.117188 4.488281 -5.34375 4.28125 -5.5 C 4.082031 -5.65625 3.757812 -5.734375 3.3125 -5.734375 C 2.894531 -5.734375 2.535156 -5.648438 2.234375 -5.484375 C 1.941406 -5.328125 1.671875 -5.09375 1.421875 -4.78125 L 1.3125 -4.78125 L 0.84375 -5.4375 C 1.113281 -5.78125 1.457031 -6.050781 1.875 -6.25 C 2.300781 -6.457031 2.78125 -6.5625 3.3125 -6.5625 C 4.070312 -6.5625 4.632812 -6.394531 5 -6.0625 C 5.363281 -5.726562 5.546875 -5.269531 5.546875 -4.6875 L 5.546875 -1.265625 C 5.546875 -0.910156 5.695312 -0.734375 6 -0.734375 C 6.09375 -0.734375 6.1875 -0.75 6.28125 -0.78125 L 6.375 -0.765625 L 6.484375 -0.09375 C 6.410156 -0.0507812 6.316406 -0.0195312 6.203125 0 C 6.085938 0.03125 5.96875 0.046875 5.84375 0.046875 C 5.488281 0.046875 5.222656 -0.03125 5.046875 -0.1875 C 4.867188 -0.34375 4.753906 -0.570312 4.703125 -0.875 L 4.578125 -0.890625 C 4.390625 -0.546875 4.140625 -0.289062 3.828125 -0.125 C 3.515625 0.0390625 3.125 0.125 2.65625 0.125 Z M 2.875 -0.640625 C 3.226562 -0.640625 3.535156 -0.722656 3.796875 -0.890625 C 4.066406 -1.054688 4.269531 -1.285156 4.40625 -1.578125 C 4.539062 -1.878906 4.609375 -2.226562 4.609375 -2.625 L 4.609375 -3.4375 L 4.5 -3.46875 C 4.363281 -3.363281 4.191406 -3.273438 3.984375 -3.203125 C 3.773438 -3.140625 3.484375 -3.082031 3.109375 -3.03125 C 2.734375 -2.976562 2.4375 -2.898438 2.21875 -2.796875 C 2 -2.691406 1.84375 -2.554688 1.75 -2.390625 C 1.65625 -2.234375 1.609375 -2.035156 1.609375 -1.796875 C 1.609375 -1.421875 1.71875 -1.132812 1.9375 -0.9375 C 2.164062 -0.738281 2.476562 -0.640625 2.875 -0.640625 Z M 2.875 -0.640625 "/></g></g><g transform="translate(37.16159, 189.580141)"><g><path d="M 1.125 0 L 1.125 -6.453125 L 2.03125 -6.453125 L 2.03125 -5.5 L 2.15625 -5.46875 C 2.375 -5.832031 2.632812 -6.101562 2.9375 -6.28125 C 3.25 -6.46875 3.625 -6.5625 4.0625 -6.5625 C 4.550781 -6.5625 4.929688 -6.46875 5.203125 -6.28125 C 5.484375 -6.09375 5.695312 -5.789062 5.84375 -5.375 L 5.96875 -5.375 C 6.195312 -5.769531 6.472656 -6.066406 6.796875 -6.265625 C 7.117188 -6.460938 7.519531 -6.5625 8 -6.5625 C 8.65625 -6.5625 9.144531 -6.382812 9.46875 -6.03125 C 9.800781 -5.675781 9.96875 -5.128906 9.96875 -4.390625 L 9.96875 0 L 9.015625 0 L 9.015625 -4.375 C 9.015625 -4.84375 8.914062 -5.1875 8.71875 -5.40625 C 8.519531 -5.625 8.203125 -5.734375 7.765625 -5.734375 C 7.253906 -5.734375 6.832031 -5.546875 6.5 -5.171875 C 6.175781 -4.796875 6.015625 -4.179688 6.015625 -3.328125 L 6.015625 0 L 5.0625 0 L 5.0625 -4.375 C 5.0625 -4.84375 4.960938 -5.1875 4.765625 -5.40625 C 4.578125 -5.625 4.265625 -5.734375 3.828125 -5.734375 C 3.304688 -5.734375 2.882812 -5.550781 2.5625 -5.1875 C 2.238281 -4.832031 2.078125 -4.25 2.078125 -3.4375 L 2.078125 0 Z M 1.125 0 "/></g></g><g transform="translate(48.142355, 189.580141)"><g><path d="M 0.609375 0 L 0.609375 -0.828125 L 2.9375 -0.828125 L 2.9375 -7.359375 L 2.8125 -7.40625 C 2.425781 -7.21875 2.09375 -7.070312 1.8125 -6.96875 C 1.53125 -6.863281 1.164062 -6.769531 0.71875 -6.6875 L 0.71875 -7.609375 C 1.15625 -7.703125 1.585938 -7.828125 2.015625 -7.984375 C 2.453125 -8.140625 2.847656 -8.328125 3.203125 -8.546875 L 3.921875 -8.546875 L 3.921875 -0.828125 L 6 -0.828125 L 6 0 Z M 0.609375 0 "/></g></g><g transform="translate(54.508862, 189.580141)"><g/></g><g transform="translate(57.440959, 189.580141)"><g><path d="M 2.296875 0 L 1.296875 0 L 1.296875 -8.546875 L 2.296875 -8.546875 Z M 2.296875 0 "/></g></g><g transform="translate(61.033071, 189.580141)"><g><path d="M 3.34375 0.125 C 2.820312 0.125 2.363281 0 1.96875 -0.25 C 1.570312 -0.5 1.257812 -0.867188 1.03125 -1.359375 C 0.8125 -1.859375 0.703125 -2.476562 0.703125 -3.21875 C 0.703125 -3.957031 0.816406 -4.578125 1.046875 -5.078125 C 1.285156 -5.578125 1.609375 -5.945312 2.015625 -6.1875 C 2.429688 -6.4375 2.910156 -6.5625 3.453125 -6.5625 C 3.878906 -6.5625 4.265625 -6.476562 4.609375 -6.3125 C 4.953125 -6.15625 5.25 -5.894531 5.5 -5.53125 L 5.609375 -5.546875 L 5.609375 -9.03125 L 6.5625 -9.03125 L 6.5625 0 L 5.609375 0 L 5.609375 -0.9375 L 5.5 -0.96875 C 5.28125 -0.644531 4.988281 -0.378906 4.625 -0.171875 C 4.269531 0.0234375 3.84375 0.125 3.34375 0.125 Z M 3.640625 -0.734375 C 4.242188 -0.734375 4.722656 -0.9375 5.078125 -1.34375 C 5.429688 -1.757812 5.609375 -2.382812 5.609375 -3.21875 C 5.609375 -4.0625 5.429688 -4.6875 5.078125 -5.09375 C 4.722656 -5.507812 4.242188 -5.71875 3.640625 -5.71875 C 3.023438 -5.71875 2.546875 -5.515625 2.203125 -5.109375 C 1.867188 -4.710938 1.703125 -4.082031 1.703125 -3.21875 C 1.703125 -1.5625 2.347656 -0.734375 3.640625 -0.734375 Z M 3.640625 -0.734375 "/></g></g></g><g clip-path="url(#d8a2cad8ce)"><path fill="#4070a0" d="M 160.929688 135.003906 L 239.75 135.003906 L 239.75 235.066406 L 160.929688 235.066406 Z M 160.929688 135.003906 " fill-opacity="1" fill-rule="nonzero"/></g><g fill="#000000" fill-opacity="1"><g transform="translate(174.200232, 189.580141)"><g><path d="M 6.671875 -8.546875 L 6.671875 -7.6875 L 3.984375 -7.6875 L 3.984375 0 L 3 0 L 3 -7.6875 L 0.3125 -7.6875 L 0.3125 -8.546875 Z M 6.671875 -8.546875 "/></g></g><g transform="translate(181.174186, 189.580141)"><g><path d="M 6.140625 -3 L 1.71875 -3 C 1.738281 -2.21875 1.921875 -1.644531 2.265625 -1.28125 C 2.617188 -0.914062 3.101562 -0.734375 3.71875 -0.734375 C 4.175781 -0.734375 4.539062 -0.8125 4.8125 -0.96875 C 5.09375 -1.132812 5.316406 -1.394531 5.484375 -1.75 L 5.609375 -1.75 L 6.21875 -1.375 C 6.03125 -0.90625 5.726562 -0.535156 5.3125 -0.265625 C 4.90625 -0.00390625 4.375 0.125 3.71875 0.125 C 3.09375 0.125 2.554688 0.00390625 2.109375 -0.234375 C 1.660156 -0.484375 1.3125 -0.859375 1.0625 -1.359375 C 0.820312 -1.859375 0.703125 -2.476562 0.703125 -3.21875 C 0.703125 -3.945312 0.828125 -4.5625 1.078125 -5.0625 C 1.335938 -5.570312 1.6875 -5.945312 2.125 -6.1875 C 2.570312 -6.4375 3.082031 -6.5625 3.65625 -6.5625 C 4.476562 -6.5625 5.117188 -6.328125 5.578125 -5.859375 C 6.046875 -5.398438 6.28125 -4.710938 6.28125 -3.796875 C 6.28125 -3.441406 6.273438 -3.203125 6.265625 -3.078125 Z M 5.34375 -3.796875 C 5.332031 -4.484375 5.179688 -4.984375 4.890625 -5.296875 C 4.597656 -5.609375 4.1875 -5.765625 3.65625 -5.765625 C 3.09375 -5.765625 2.648438 -5.609375 2.328125 -5.296875 C 2.003906 -4.984375 1.804688 -4.484375 1.734375 -3.796875 Z M 5.34375 -3.796875 "/></g></g><g transform="translate(188.043005, 189.580141)"><g><path d="M 2.65625 0.125 C 2.019531 0.125 1.523438 -0.0390625 1.171875 -0.375 C 0.816406 -0.707031 0.640625 -1.179688 0.640625 -1.796875 C 0.640625 -2.171875 0.71875 -2.488281 0.875 -2.75 C 1.03125 -3.019531 1.273438 -3.238281 1.609375 -3.40625 C 1.941406 -3.570312 2.375 -3.695312 2.90625 -3.78125 C 3.375 -3.863281 3.726562 -3.953125 3.96875 -4.046875 C 4.21875 -4.148438 4.382812 -4.257812 4.46875 -4.375 C 4.550781 -4.5 4.59375 -4.648438 4.59375 -4.828125 C 4.59375 -5.117188 4.488281 -5.34375 4.28125 -5.5 C 4.082031 -5.65625 3.757812 -5.734375 3.3125 -5.734375 C 2.894531 -5.734375 2.535156 -5.648438 2.234375 -5.484375 C 1.941406 -5.328125 1.671875 -5.09375 1.421875 -4.78125 L 1.3125 -4.78125 L 0.84375 -5.4375 C 1.113281 -5.78125 1.457031 -6.050781 1.875 -6.25 C 2.300781 -6.457031 2.78125 -6.5625 3.3125 -6.5625 C 4.070312 -6.5625 4.632812 -6.394531 5 -6.0625 C 5.363281 -5.726562 5.546875 -5.269531 5.546875 -4.6875 L 5.546875 -1.265625 C 5.546875 -0.910156 5.695312 -0.734375 6 -0.734375 C 6.09375 -0.734375 6.1875 -0.75 6.28125 -0.78125 L 6.375 -0.765625 L 6.484375 -0.09375 C 6.410156 -0.0507812 6.316406 -0.0195312 6.203125 0 C 6.085938 0.03125 5.96875 0.046875 5.84375 0.046875 C 5.488281 0.046875 5.222656 -0.03125 5.046875 -0.1875 C 4.867188 -0.34375 4.753906 -0.570312 4.703125 -0.875 L 4.578125 -0.890625 C 4.390625 -0.546875 4.140625 -0.289062 3.828125 -0.125 C 3.515625 0.0390625 3.125 0.125 2.65625 0.125 Z M 2.875 -0.640625 C 3.226562 -0.640625 3.535156 -0.722656 3.796875 -0.890625 C 4.066406 -1.054688 4.269531 -1.285156 4.40625 -1.578125 C 4.539062 -1.878906 4.609375 -2.226562 4.609375 -2.625 L 4.609375 -3.4375 L 4.5 -3.46875 C 4.363281 -3.363281 4.191406 -3.273438 3.984375 -3.203125 C 3.773438 -3.140625 3.484375 -3.082031 3.109375 -3.03125 C 2.734375 -2.976562 2.4375 -2.898438 2.21875 -2.796875 C 2 -2.691406 1.84375 -2.554688 1.75 -2.390625 C 1.65625 -2.234375 1.609375 -2.035156 1.609375 -1.796875 C 1.609375 -1.421875 1.71875 -1.132812 1.9375 -0.9375 C 2.164062 -0.738281 2.476562 -0.640625 2.875 -0.640625 Z M 2.875 -0.640625 "/></g></g><g transform="translate(194.707394, 189.580141)"><g><path d="M 1.125 0 L 1.125 -6.453125 L 2.03125 -6.453125 L 2.03125 -5.5 L 2.15625 -5.46875 C 2.375 -5.832031 2.632812 -6.101562 2.9375 -6.28125 C 3.25 -6.46875 3.625 -6.5625 4.0625 -6.5625 C 4.550781 -6.5625 4.929688 -6.46875 5.203125 -6.28125 C 5.484375 -6.09375 5.695312 -5.789062 5.84375 -5.375 L 5.96875 -5.375 C 6.195312 -5.769531 6.472656 -6.066406 6.796875 -6.265625 C 7.117188 -6.460938 7.519531 -6.5625 8 -6.5625 C 8.65625 -6.5625 9.144531 -6.382812 9.46875 -6.03125 C 9.800781 -5.675781 9.96875 -5.128906 9.96875 -4.390625 L 9.96875 0 L 9.015625 0 L 9.015625 -4.375 C 9.015625 -4.84375 8.914062 -5.1875 8.71875 -5.40625 C 8.519531 -5.625 8.203125 -5.734375 7.765625 -5.734375 C 7.253906 -5.734375 6.832031 -5.546875 6.5 -5.171875 C 6.175781 -4.796875 6.015625 -4.179688 6.015625 -3.328125 L 6.015625 0 L 5.0625 0 L 5.0625 -4.375 C 5.0625 -4.84375 4.960938 -5.1875 4.765625 -5.40625 C 4.578125 -5.625 4.265625 -5.734375 3.828125 -5.734375 C 3.304688 -5.734375 2.882812 -5.550781 2.5625 -5.1875 C 2.238281 -4.832031 2.078125 -4.25 2.078125 -3.4375 L 2.078125 0 Z M 1.125 0 "/></g></g><g transform="translate(205.688159, 189.580141)"><g><path d="M 0.515625 -0.390625 C 0.515625 -0.859375 0.566406 -1.238281 0.671875 -1.53125 C 0.773438 -1.820312 0.953125 -2.09375 1.203125 -2.34375 C 1.453125 -2.59375 1.847656 -2.914062 2.390625 -3.3125 L 3.328125 -3.984375 C 3.671875 -4.242188 3.953125 -4.476562 4.171875 -4.6875 C 4.390625 -4.90625 4.5625 -5.140625 4.6875 -5.390625 C 4.820312 -5.640625 4.890625 -5.921875 4.890625 -6.234375 C 4.890625 -6.742188 4.753906 -7.125 4.484375 -7.375 C 4.210938 -7.632812 3.789062 -7.765625 3.21875 -7.765625 C 2.769531 -7.765625 2.367188 -7.660156 2.015625 -7.453125 C 1.660156 -7.242188 1.378906 -6.945312 1.171875 -6.5625 L 1.046875 -6.53125 L 0.4375 -7.171875 C 0.726562 -7.628906 1.109375 -7.992188 1.578125 -8.265625 C 2.046875 -8.535156 2.59375 -8.671875 3.21875 -8.671875 C 3.820312 -8.671875 4.320312 -8.566406 4.71875 -8.359375 C 5.125 -8.148438 5.421875 -7.863281 5.609375 -7.5 C 5.804688 -7.132812 5.90625 -6.710938 5.90625 -6.234375 C 5.90625 -5.847656 5.820312 -5.488281 5.65625 -5.15625 C 5.5 -4.832031 5.273438 -4.523438 4.984375 -4.234375 C 4.691406 -3.941406 4.328125 -3.632812 3.890625 -3.3125 L 2.9375 -2.609375 C 2.582031 -2.347656 2.304688 -2.125 2.109375 -1.9375 C 1.921875 -1.757812 1.785156 -1.582031 1.703125 -1.40625 C 1.617188 -1.238281 1.578125 -1.046875 1.578125 -0.828125 L 5.90625 -0.828125 L 5.90625 0 L 0.515625 0 Z M 0.515625 -0.390625 "/></g></g><g transform="translate(212.253254, 189.580141)"><g/></g><g transform="translate(215.185352, 189.580141)"><g><path d="M 2.296875 0 L 1.296875 0 L 1.296875 -8.546875 L 2.296875 -8.546875 Z M 2.296875 0 "/></g></g><g transform="translate(218.777464, 189.580141)"><g><path d="M 3.34375 0.125 C 2.820312 0.125 2.363281 0 1.96875 -0.25 C 1.570312 -0.5 1.257812 -0.867188 1.03125 -1.359375 C 0.8125 -1.859375 0.703125 -2.476562 0.703125 -3.21875 C 0.703125 -3.957031 0.816406 -4.578125 1.046875 -5.078125 C 1.285156 -5.578125 1.609375 -5.945312 2.015625 -6.1875 C 2.429688 -6.4375 2.910156 -6.5625 3.453125 -6.5625 C 3.878906 -6.5625 4.265625 -6.476562 4.609375 -6.3125 C 4.953125 -6.15625 5.25 -5.894531 5.5 -5.53125 L 5.609375 -5.546875 L 5.609375 -9.03125 L 6.5625 -9.03125 L 6.5625 0 L 5.609375 0 L 5.609375 -0.9375 L 5.5 -0.96875 C 5.28125 -0.644531 4.988281 -0.378906 4.625 -0.171875 C 4.269531 0.0234375 3.84375 0.125 3.34375 0.125 Z M 3.640625 -0.734375 C 4.242188 -0.734375 4.722656 -0.9375 5.078125 -1.34375 C 5.429688 -1.757812 5.609375 -2.382812 5.609375 -3.21875 C 5.609375 -4.0625 5.429688 -4.6875 5.078125 -5.09375 C 4.722656 -5.507812 4.242188 -5.71875 3.640625 -5.71875 C 3.023438 -5.71875 2.546875 -5.515625 2.203125 -5.109375 C 1.867188 -4.710938 1.703125 -4.082031 1.703125 -3.21875 C 1.703125 -1.5625 2.347656 -0.734375 3.640625 -0.734375 Z M 3.640625 -0.734375 "/></g></g></g><g clip-path="url(#4be3bb8307)"><path fill="#4070a0" d="M 318.570312 135.003906 L 397.390625 135.003906 L 397.390625 235.066406 L 318.570312 235.066406 Z M 318.570312 135.003906 " fill-opacity="1" fill-rule="nonzero"/></g><g clip-path="url(#e3707afbc5)"><path fill="#f9b96e" d="M 82.109375 135.003906 L 160.929688 135.003906 L 160.929688 235.066406 L 82.109375 235.066406 Z M 82.109375 135.003906 " fill-opacity="1" fill-rule="nonzero"/></g><g fill="#000000" fill-opacity="1"><g transform="translate(86.245536, 189.580141)"><g><path d="M 6.671875 -8.546875 L 6.671875 -7.6875 L 3.984375 -7.6875 L 3.984375 0 L 3 0 L 3 -7.6875 L 0.3125 -7.6875 L 0.3125 -8.546875 Z M 6.671875 -8.546875 "/></g></g><g transform="translate(93.219489, 189.580141)"><g><path d="M 6.140625 -3 L 1.71875 -3 C 1.738281 -2.21875 1.921875 -1.644531 2.265625 -1.28125 C 2.617188 -0.914062 3.101562 -0.734375 3.71875 -0.734375 C 4.175781 -0.734375 4.539062 -0.8125 4.8125 -0.96875 C 5.09375 -1.132812 5.316406 -1.394531 5.484375 -1.75 L 5.609375 -1.75 L 6.21875 -1.375 C 6.03125 -0.90625 5.726562 -0.535156 5.3125 -0.265625 C 4.90625 -0.00390625 4.375 0.125 3.71875 0.125 C 3.09375 0.125 2.554688 0.00390625 2.109375 -0.234375 C 1.660156 -0.484375 1.3125 -0.859375 1.0625 -1.359375 C 0.820312 -1.859375 0.703125 -2.476562 0.703125 -3.21875 C 0.703125 -3.945312 0.828125 -4.5625 1.078125 -5.0625 C 1.335938 -5.570312 1.6875 -5.945312 2.125 -6.1875 C 2.570312 -6.4375 3.082031 -6.5625 3.65625 -6.5625 C 4.476562 -6.5625 5.117188 -6.328125 5.578125 -5.859375 C 6.046875 -5.398438 6.28125 -4.710938 6.28125 -3.796875 C 6.28125 -3.441406 6.273438 -3.203125 6.265625 -3.078125 Z M 5.34375 -3.796875 C 5.332031 -4.484375 5.179688 -4.984375 4.890625 -5.296875 C 4.597656 -5.609375 4.1875 -5.765625 3.65625 -5.765625 C 3.09375 -5.765625 2.648438 -5.609375 2.328125 -5.296875 C 2.003906 -4.984375 1.804688 -4.484375 1.734375 -3.796875 Z M 5.34375 -3.796875 "/></g></g><g transform="translate(100.088308, 189.580141)"><g><path d="M 2.65625 0.125 C 2.019531 0.125 1.523438 -0.0390625 1.171875 -0.375 C 0.816406 -0.707031 0.640625 -1.179688 0.640625 -1.796875 C 0.640625 -2.171875 0.71875 -2.488281 0.875 -2.75 C 1.03125 -3.019531 1.273438 -3.238281 1.609375 -3.40625 C 1.941406 -3.570312 2.375 -3.695312 2.90625 -3.78125 C 3.375 -3.863281 3.726562 -3.953125 3.96875 -4.046875 C 4.21875 -4.148438 4.382812 -4.257812 4.46875 -4.375 C 4.550781 -4.5 4.59375 -4.648438 4.59375 -4.828125 C 4.59375 -5.117188 4.488281 -5.34375 4.28125 -5.5 C 4.082031 -5.65625 3.757812 -5.734375 3.3125 -5.734375 C 2.894531 -5.734375 2.535156 -5.648438 2.234375 -5.484375 C 1.941406 -5.328125 1.671875 -5.09375 1.421875 -4.78125 L 1.3125 -4.78125 L 0.84375 -5.4375 C 1.113281 -5.78125 1.457031 -6.050781 1.875 -6.25 C 2.300781 -6.457031 2.78125 -6.5625 3.3125 -6.5625 C 4.070312 -6.5625 4.632812 -6.394531 5 -6.0625 C 5.363281 -5.726562 5.546875 -5.269531 5.546875 -4.6875 L 5.546875 -1.265625 C 5.546875 -0.910156 5.695312 -0.734375 6 -0.734375 C 6.09375 -0.734375 6.1875 -0.75 6.28125 -0.78125 L 6.375 -0.765625 L 6.484375 -0.09375 C 6.410156 -0.0507812 6.316406 -0.0195312 6.203125 0 C 6.085938 0.03125 5.96875 0.046875 5.84375 0.046875 C 5.488281 0.046875 5.222656 -0.03125 5.046875 -0.1875 C 4.867188 -0.34375 4.753906 -0.570312 4.703125 -0.875 L 4.578125 -0.890625 C 4.390625 -0.546875 4.140625 -0.289062 3.828125 -0.125 C 3.515625 0.0390625 3.125 0.125 2.65625 0.125 Z M 2.875 -0.640625 C 3.226562 -0.640625 3.535156 -0.722656 3.796875 -0.890625 C 4.066406 -1.054688 4.269531 -1.285156 4.40625 -1.578125 C 4.539062 -1.878906 4.609375 -2.226562 4.609375 -2.625 L 4.609375 -3.4375 L 4.5 -3.46875 C 4.363281 -3.363281 4.191406 -3.273438 3.984375 -3.203125 C 3.773438 -3.140625 3.484375 -3.082031 3.109375 -3.03125 C 2.734375 -2.976562 2.4375 -2.898438 2.21875 -2.796875 C 2 -2.691406 1.84375 -2.554688 1.75 -2.390625 C 1.65625 -2.234375 1.609375 -2.035156 1.609375 -1.796875 C 1.609375 -1.421875 1.71875 -1.132812 1.9375 -0.9375 C 2.164062 -0.738281 2.476562 -0.640625 2.875 -0.640625 Z M 2.875 -0.640625 "/></g></g><g transform="translate(106.752698, 189.580141)"><g><path d="M 1.125 0 L 1.125 -6.453125 L 2.03125 -6.453125 L 2.03125 -5.5 L 2.15625 -5.46875 C 2.375 -5.832031 2.632812 -6.101562 2.9375 -6.28125 C 3.25 -6.46875 3.625 -6.5625 4.0625 -6.5625 C 4.550781 -6.5625 4.929688 -6.46875 5.203125 -6.28125 C 5.484375 -6.09375 5.695312 -5.789062 5.84375 -5.375 L 5.96875 -5.375 C 6.195312 -5.769531 6.472656 -6.066406 6.796875 -6.265625 C 7.117188 -6.460938 7.519531 -6.5625 8 -6.5625 C 8.65625 -6.5625 9.144531 -6.382812 9.46875 -6.03125 C 9.800781 -5.675781 9.96875 -5.128906 9.96875 -4.390625 L 9.96875 0 L 9.015625 0 L 9.015625 -4.375 C 9.015625 -4.84375 8.914062 -5.1875 8.71875 -5.40625 C 8.519531 -5.625 8.203125 -5.734375 7.765625 -5.734375 C 7.253906 -5.734375 6.832031 -5.546875 6.5 -5.171875 C 6.175781 -4.796875 6.015625 -4.179688 6.015625 -3.328125 L 6.015625 0 L 5.0625 0 L 5.0625 -4.375 C 5.0625 -4.84375 4.960938 -5.1875 4.765625 -5.40625 C 4.578125 -5.625 4.265625 -5.734375 3.828125 -5.734375 C 3.304688 -5.734375 2.882812 -5.550781 2.5625 -5.1875 C 2.238281 -4.832031 2.078125 -4.25 2.078125 -3.4375 L 2.078125 0 Z M 1.125 0 "/></g></g><g transform="translate(117.733462, 189.580141)"><g><path d="M 0.609375 0 L 0.609375 -0.828125 L 2.9375 -0.828125 L 2.9375 -7.359375 L 2.8125 -7.40625 C 2.425781 -7.21875 2.09375 -7.070312 1.8125 -6.96875 C 1.53125 -6.863281 1.164062 -6.769531 0.71875 -6.6875 L 0.71875 -7.609375 C 1.15625 -7.703125 1.585938 -7.828125 2.015625 -7.984375 C 2.453125 -8.140625 2.847656 -8.328125 3.203125 -8.546875 L 3.921875 -8.546875 L 3.921875 -0.828125 L 6 -0.828125 L 6 0 Z M 0.609375 0 "/></g></g><g transform="translate(124.099969, 189.580141)"><g/></g><g transform="translate(127.032067, 189.580141)"><g><path d="M 3.734375 0.125 C 3.191406 0.125 2.707031 0.0507812 2.28125 -0.09375 C 1.851562 -0.238281 1.5 -0.429688 1.21875 -0.671875 C 0.9375 -0.910156 0.722656 -1.171875 0.578125 -1.453125 L 1.140625 -2.125 L 1.28125 -2.125 C 1.8125 -1.226562 2.628906 -0.78125 3.734375 -0.78125 C 4.378906 -0.78125 4.859375 -0.914062 5.171875 -1.1875 C 5.484375 -1.457031 5.640625 -1.832031 5.640625 -2.3125 C 5.640625 -2.59375 5.585938 -2.828125 5.484375 -3.015625 C 5.378906 -3.210938 5.207031 -3.378906 4.96875 -3.515625 C 4.726562 -3.660156 4.40625 -3.78125 4 -3.875 L 3 -4.125 C 2.257812 -4.300781 1.710938 -4.582031 1.359375 -4.96875 C 1.003906 -5.363281 0.828125 -5.863281 0.828125 -6.46875 C 0.828125 -6.894531 0.9375 -7.273438 1.15625 -7.609375 C 1.375 -7.941406 1.691406 -8.203125 2.109375 -8.390625 C 2.535156 -8.578125 3.039062 -8.671875 3.625 -8.671875 C 4.269531 -8.671875 4.8125 -8.578125 5.25 -8.390625 C 5.695312 -8.210938 6.050781 -7.941406 6.3125 -7.578125 L 5.828125 -6.921875 L 5.671875 -6.921875 C 5.429688 -7.222656 5.140625 -7.441406 4.796875 -7.578125 C 4.460938 -7.722656 4.070312 -7.796875 3.625 -7.796875 C 3.03125 -7.796875 2.582031 -7.675781 2.28125 -7.4375 C 1.976562 -7.207031 1.828125 -6.894531 1.828125 -6.5 C 1.828125 -6.113281 1.9375 -5.804688 2.15625 -5.578125 C 2.382812 -5.347656 2.757812 -5.171875 3.28125 -5.046875 L 4.3125 -4.796875 C 5.132812 -4.597656 5.734375 -4.296875 6.109375 -3.890625 C 6.484375 -3.492188 6.671875 -2.984375 6.671875 -2.359375 C 6.671875 -1.867188 6.5625 -1.4375 6.34375 -1.0625 C 6.125 -0.695312 5.796875 -0.40625 5.359375 -0.1875 C 4.921875 0.0195312 4.378906 0.125 3.734375 0.125 Z M 3.734375 0.125 "/></g></g><g transform="translate(134.35063, 189.580141)"><g><path d="M 4.359375 -1.015625 L 4.65625 -0.34375 C 4.507812 -0.1875 4.3125 -0.0703125 4.0625 0 C 3.8125 0.0820312 3.546875 0.125 3.265625 0.125 C 2.035156 0.125 1.421875 -0.5 1.421875 -1.75 L 1.421875 -5.671875 L 0.296875 -5.671875 L 0.296875 -6.453125 L 1.421875 -6.453125 L 1.421875 -7.8125 L 2.359375 -7.96875 L 2.359375 -6.453125 L 4.4375 -6.453125 L 4.4375 -5.671875 L 2.359375 -5.671875 L 2.359375 -1.84375 C 2.359375 -1.101562 2.679688 -0.734375 3.328125 -0.734375 C 3.679688 -0.734375 3.984375 -0.828125 4.234375 -1.015625 Z M 4.359375 -1.015625 "/></g></g><g transform="translate(139.256929, 189.580141)"><g><path d="M 2.65625 0.125 C 2.019531 0.125 1.523438 -0.0390625 1.171875 -0.375 C 0.816406 -0.707031 0.640625 -1.179688 0.640625 -1.796875 C 0.640625 -2.171875 0.71875 -2.488281 0.875 -2.75 C 1.03125 -3.019531 1.273438 -3.238281 1.609375 -3.40625 C 1.941406 -3.570312 2.375 -3.695312 2.90625 -3.78125 C 3.375 -3.863281 3.726562 -3.953125 3.96875 -4.046875 C 4.21875 -4.148438 4.382812 -4.257812 4.46875 -4.375 C 4.550781 -4.5 4.59375 -4.648438 4.59375 -4.828125 C 4.59375 -5.117188 4.488281 -5.34375 4.28125 -5.5 C 4.082031 -5.65625 3.757812 -5.734375 3.3125 -5.734375 C 2.894531 -5.734375 2.535156 -5.648438 2.234375 -5.484375 C 1.941406 -5.328125 1.671875 -5.09375 1.421875 -4.78125 L 1.3125 -4.78125 L 0.84375 -5.4375 C 1.113281 -5.78125 1.457031 -6.050781 1.875 -6.25 C 2.300781 -6.457031 2.78125 -6.5625 3.3125 -6.5625 C 4.070312 -6.5625 4.632812 -6.394531 5 -6.0625 C 5.363281 -5.726562 5.546875 -5.269531 5.546875 -4.6875 L 5.546875 -1.265625 C 5.546875 -0.910156 5.695312 -0.734375 6 -0.734375 C 6.09375 -0.734375 6.1875 -0.75 6.28125 -0.78125 L 6.375 -0.765625 L 6.484375 -0.09375 C 6.410156 -0.0507812 6.316406 -0.0195312 6.203125 0 C 6.085938 0.03125 5.96875 0.046875 5.84375 0.046875 C 5.488281 0.046875 5.222656 -0.03125 5.046875 -0.1875 C 4.867188 -0.34375 4.753906 -0.570312 4.703125 -0.875 L 4.578125 -0.890625 C 4.390625 -0.546875 4.140625 -0.289062 3.828125 -0.125 C 3.515625 0.0390625 3.125 0.125 2.65625 0.125 Z M 2.875 -0.640625 C 3.226562 -0.640625 3.535156 -0.722656 3.796875 -0.890625 C 4.066406 -1.054688 4.269531 -1.285156 4.40625 -1.578125 C 4.539062 -1.878906 4.609375 -2.226562 4.609375 -2.625 L 4.609375 -3.4375 L 4.5 -3.46875 C 4.363281 -3.363281 4.191406 -3.273438 3.984375 -3.203125 C 3.773438 -3.140625 3.484375 -3.082031 3.109375 -3.03125 C 2.734375 -2.976562 2.4375 -2.898438 2.21875 -2.796875 C 2 -2.691406 1.84375 -2.554688 1.75 -2.390625 C 1.65625 -2.234375 1.609375 -2.035156 1.609375 -1.796875 C 1.609375 -1.421875 1.71875 -1.132812 1.9375 -0.9375 C 2.164062 -0.738281 2.476562 -0.640625 2.875 -0.640625 Z M 2.875 -0.640625 "/></g></g><g transform="translate(145.921318, 189.580141)"><g><path d="M 4.359375 -1.015625 L 4.65625 -0.34375 C 4.507812 -0.1875 4.3125 -0.0703125 4.0625 0 C 3.8125 0.0820312 3.546875 0.125 3.265625 0.125 C 2.035156 0.125 1.421875 -0.5 1.421875 -1.75 L 1.421875 -5.671875 L 0.296875 -5.671875 L 0.296875 -6.453125 L 1.421875 -6.453125 L 1.421875 -7.8125 L 2.359375 -7.96875 L 2.359375 -6.453125 L 4.4375 -6.453125 L 4.4375 -5.671875 L 2.359375 -5.671875 L 2.359375 -1.84375 C 2.359375 -1.101562 2.679688 -0.734375 3.328125 -0.734375 C 3.679688 -0.734375 3.984375 -0.828125 4.234375 -1.015625 Z M 4.359375 -1.015625 "/></g></g><g transform="translate(150.827617, 189.580141)"><g><path d="M 2.9375 0.125 C 2.53125 0.125 2.15625 0.0703125 1.8125 -0.03125 C 1.46875 -0.144531 1.175781 -0.296875 0.9375 -0.484375 C 0.695312 -0.671875 0.53125 -0.878906 0.4375 -1.109375 L 1 -1.6875 L 1.125 -1.6875 C 1.332031 -1.375 1.582031 -1.132812 1.875 -0.96875 C 2.175781 -0.8125 2.53125 -0.734375 2.9375 -0.734375 C 3.414062 -0.734375 3.773438 -0.820312 4.015625 -1 C 4.265625 -1.1875 4.390625 -1.445312 4.390625 -1.78125 C 4.390625 -2.03125 4.3125 -2.238281 4.15625 -2.40625 C 4.007812 -2.570312 3.769531 -2.695312 3.4375 -2.78125 L 2.359375 -3.046875 C 1.773438 -3.191406 1.347656 -3.414062 1.078125 -3.71875 C 0.816406 -4.019531 0.6875 -4.394531 0.6875 -4.84375 C 0.6875 -5.195312 0.773438 -5.5 0.953125 -5.75 C 1.128906 -6.007812 1.382812 -6.207031 1.71875 -6.34375 C 2.0625 -6.488281 2.460938 -6.5625 2.921875 -6.5625 C 3.515625 -6.5625 3.984375 -6.476562 4.328125 -6.3125 C 4.671875 -6.15625 4.9375 -5.925781 5.125 -5.625 L 4.59375 -5.109375 L 4.46875 -5.109375 C 4.257812 -5.335938 4.035156 -5.503906 3.796875 -5.609375 C 3.554688 -5.722656 3.265625 -5.78125 2.921875 -5.78125 C 2.503906 -5.78125 2.179688 -5.703125 1.953125 -5.546875 C 1.722656 -5.390625 1.609375 -5.171875 1.609375 -4.890625 C 1.609375 -4.628906 1.6875 -4.414062 1.84375 -4.25 C 2.007812 -4.09375 2.289062 -3.96875 2.6875 -3.875 L 3.75 -3.609375 C 4.3125 -3.472656 4.71875 -3.25 4.96875 -2.9375 C 5.21875 -2.632812 5.34375 -2.253906 5.34375 -1.796875 C 5.34375 -1.421875 5.253906 -1.085938 5.078125 -0.796875 C 4.898438 -0.503906 4.628906 -0.273438 4.265625 -0.109375 C 3.898438 0.046875 3.457031 0.125 2.9375 0.125 Z M 2.9375 0.125 "/></g></g></g><g clip-path="url(#d047df2822)"><path fill="#f9b96e" d="M 239.75 135.003906 L 318.570312 135.003906 L 318.570312 235.066406 L 239.75 235.066406 Z M 239.75 135.003906 " fill-opacity="1" fill-rule="nonzero"/></g><g fill="#000000" fill-opacity="1"><g transform="translate(243.779671, 189.580141)"><g><path d="M 6.671875 -8.546875 L 6.671875 -7.6875 L 3.984375 -7.6875 L 3.984375 0 L 3 0 L 3 -7.6875 L 0.3125 -7.6875 L 0.3125 -8.546875 Z M 6.671875 -8.546875 "/></g></g><g transform="translate(250.753624, 189.580141)"><g><path d="M 6.140625 -3 L 1.71875 -3 C 1.738281 -2.21875 1.921875 -1.644531 2.265625 -1.28125 C 2.617188 -0.914062 3.101562 -0.734375 3.71875 -0.734375 C 4.175781 -0.734375 4.539062 -0.8125 4.8125 -0.96875 C 5.09375 -1.132812 5.316406 -1.394531 5.484375 -1.75 L 5.609375 -1.75 L 6.21875 -1.375 C 6.03125 -0.90625 5.726562 -0.535156 5.3125 -0.265625 C 4.90625 -0.00390625 4.375 0.125 3.71875 0.125 C 3.09375 0.125 2.554688 0.00390625 2.109375 -0.234375 C 1.660156 -0.484375 1.3125 -0.859375 1.0625 -1.359375 C 0.820312 -1.859375 0.703125 -2.476562 0.703125 -3.21875 C 0.703125 -3.945312 0.828125 -4.5625 1.078125 -5.0625 C 1.335938 -5.570312 1.6875 -5.945312 2.125 -6.1875 C 2.570312 -6.4375 3.082031 -6.5625 3.65625 -6.5625 C 4.476562 -6.5625 5.117188 -6.328125 5.578125 -5.859375 C 6.046875 -5.398438 6.28125 -4.710938 6.28125 -3.796875 C 6.28125 -3.441406 6.273438 -3.203125 6.265625 -3.078125 Z M 5.34375 -3.796875 C 5.332031 -4.484375 5.179688 -4.984375 4.890625 -5.296875 C 4.597656 -5.609375 4.1875 -5.765625 3.65625 -5.765625 C 3.09375 -5.765625 2.648438 -5.609375 2.328125 -5.296875 C 2.003906 -4.984375 1.804688 -4.484375 1.734375 -3.796875 Z M 5.34375 -3.796875 "/></g></g><g transform="translate(257.622443, 189.580141)"><g><path d="M 2.65625 0.125 C 2.019531 0.125 1.523438 -0.0390625 1.171875 -0.375 C 0.816406 -0.707031 0.640625 -1.179688 0.640625 -1.796875 C 0.640625 -2.171875 0.71875 -2.488281 0.875 -2.75 C 1.03125 -3.019531 1.273438 -3.238281 1.609375 -3.40625 C 1.941406 -3.570312 2.375 -3.695312 2.90625 -3.78125 C 3.375 -3.863281 3.726562 -3.953125 3.96875 -4.046875 C 4.21875 -4.148438 4.382812 -4.257812 4.46875 -4.375 C 4.550781 -4.5 4.59375 -4.648438 4.59375 -4.828125 C 4.59375 -5.117188 4.488281 -5.34375 4.28125 -5.5 C 4.082031 -5.65625 3.757812 -5.734375 3.3125 -5.734375 C 2.894531 -5.734375 2.535156 -5.648438 2.234375 -5.484375 C 1.941406 -5.328125 1.671875 -5.09375 1.421875 -4.78125 L 1.3125 -4.78125 L 0.84375 -5.4375 C 1.113281 -5.78125 1.457031 -6.050781 1.875 -6.25 C 2.300781 -6.457031 2.78125 -6.5625 3.3125 -6.5625 C 4.070312 -6.5625 4.632812 -6.394531 5 -6.0625 C 5.363281 -5.726562 5.546875 -5.269531 5.546875 -4.6875 L 5.546875 -1.265625 C 5.546875 -0.910156 5.695312 -0.734375 6 -0.734375 C 6.09375 -0.734375 6.1875 -0.75 6.28125 -0.78125 L 6.375 -0.765625 L 6.484375 -0.09375 C 6.410156 -0.0507812 6.316406 -0.0195312 6.203125 0 C 6.085938 0.03125 5.96875 0.046875 5.84375 0.046875 C 5.488281 0.046875 5.222656 -0.03125 5.046875 -0.1875 C 4.867188 -0.34375 4.753906 -0.570312 4.703125 -0.875 L 4.578125 -0.890625 C 4.390625 -0.546875 4.140625 -0.289062 3.828125 -0.125 C 3.515625 0.0390625 3.125 0.125 2.65625 0.125 Z M 2.875 -0.640625 C 3.226562 -0.640625 3.535156 -0.722656 3.796875 -0.890625 C 4.066406 -1.054688 4.269531 -1.285156 4.40625 -1.578125 C 4.539062 -1.878906 4.609375 -2.226562 4.609375 -2.625 L 4.609375 -3.4375 L 4.5 -3.46875 C 4.363281 -3.363281 4.191406 -3.273438 3.984375 -3.203125 C 3.773438 -3.140625 3.484375 -3.082031 3.109375 -3.03125 C 2.734375 -2.976562 2.4375 -2.898438 2.21875 -2.796875 C 2 -2.691406 1.84375 -2.554688 1.75 -2.390625 C 1.65625 -2.234375 1.609375 -2.035156 1.609375 -1.796875 C 1.609375 -1.421875 1.71875 -1.132812 1.9375 -0.9375 C 2.164062 -0.738281 2.476562 -0.640625 2.875 -0.640625 Z M 2.875 -0.640625 "/></g></g><g transform="translate(264.286833, 189.580141)"><g><path d="M 1.125 0 L 1.125 -6.453125 L 2.03125 -6.453125 L 2.03125 -5.5 L 2.15625 -5.46875 C 2.375 -5.832031 2.632812 -6.101562 2.9375 -6.28125 C 3.25 -6.46875 3.625 -6.5625 4.0625 -6.5625 C 4.550781 -6.5625 4.929688 -6.46875 5.203125 -6.28125 C 5.484375 -6.09375 5.695312 -5.789062 5.84375 -5.375 L 5.96875 -5.375 C 6.195312 -5.769531 6.472656 -6.066406 6.796875 -6.265625 C 7.117188 -6.460938 7.519531 -6.5625 8 -6.5625 C 8.65625 -6.5625 9.144531 -6.382812 9.46875 -6.03125 C 9.800781 -5.675781 9.96875 -5.128906 9.96875 -4.390625 L 9.96875 0 L 9.015625 0 L 9.015625 -4.375 C 9.015625 -4.84375 8.914062 -5.1875 8.71875 -5.40625 C 8.519531 -5.625 8.203125 -5.734375 7.765625 -5.734375 C 7.253906 -5.734375 6.832031 -5.546875 6.5 -5.171875 C 6.175781 -4.796875 6.015625 -4.179688 6.015625 -3.328125 L 6.015625 0 L 5.0625 0 L 5.0625 -4.375 C 5.0625 -4.84375 4.960938 -5.1875 4.765625 -5.40625 C 4.578125 -5.625 4.265625 -5.734375 3.828125 -5.734375 C 3.304688 -5.734375 2.882812 -5.550781 2.5625 -5.1875 C 2.238281 -4.832031 2.078125 -4.25 2.078125 -3.4375 L 2.078125 0 Z M 1.125 0 "/></g></g><g transform="translate(275.267597, 189.580141)"><g><path d="M 0.515625 -0.390625 C 0.515625 -0.859375 0.566406 -1.238281 0.671875 -1.53125 C 0.773438 -1.820312 0.953125 -2.09375 1.203125 -2.34375 C 1.453125 -2.59375 1.847656 -2.914062 2.390625 -3.3125 L 3.328125 -3.984375 C 3.671875 -4.242188 3.953125 -4.476562 4.171875 -4.6875 C 4.390625 -4.90625 4.5625 -5.140625 4.6875 -5.390625 C 4.820312 -5.640625 4.890625 -5.921875 4.890625 -6.234375 C 4.890625 -6.742188 4.753906 -7.125 4.484375 -7.375 C 4.210938 -7.632812 3.789062 -7.765625 3.21875 -7.765625 C 2.769531 -7.765625 2.367188 -7.660156 2.015625 -7.453125 C 1.660156 -7.242188 1.378906 -6.945312 1.171875 -6.5625 L 1.046875 -6.53125 L 0.4375 -7.171875 C 0.726562 -7.628906 1.109375 -7.992188 1.578125 -8.265625 C 2.046875 -8.535156 2.59375 -8.671875 3.21875 -8.671875 C 3.820312 -8.671875 4.320312 -8.566406 4.71875 -8.359375 C 5.125 -8.148438 5.421875 -7.863281 5.609375 -7.5 C 5.804688 -7.132812 5.90625 -6.710938 5.90625 -6.234375 C 5.90625 -5.847656 5.820312 -5.488281 5.65625 -5.15625 C 5.5 -4.832031 5.273438 -4.523438 4.984375 -4.234375 C 4.691406 -3.941406 4.328125 -3.632812 3.890625 -3.3125 L 2.9375 -2.609375 C 2.582031 -2.347656 2.304688 -2.125 2.109375 -1.9375 C 1.921875 -1.757812 1.785156 -1.582031 1.703125 -1.40625 C 1.617188 -1.238281 1.578125 -1.046875 1.578125 -0.828125 L 5.90625 -0.828125 L 5.90625 0 L 0.515625 0 Z M 0.515625 -0.390625 "/></g></g><g transform="translate(281.832693, 189.580141)"><g/></g><g transform="translate(284.76479, 189.580141)"><g><path d="M 3.734375 0.125 C 3.191406 0.125 2.707031 0.0507812 2.28125 -0.09375 C 1.851562 -0.238281 1.5 -0.429688 1.21875 -0.671875 C 0.9375 -0.910156 0.722656 -1.171875 0.578125 -1.453125 L 1.140625 -2.125 L 1.28125 -2.125 C 1.8125 -1.226562 2.628906 -0.78125 3.734375 -0.78125 C 4.378906 -0.78125 4.859375 -0.914062 5.171875 -1.1875 C 5.484375 -1.457031 5.640625 -1.832031 5.640625 -2.3125 C 5.640625 -2.59375 5.585938 -2.828125 5.484375 -3.015625 C 5.378906 -3.210938 5.207031 -3.378906 4.96875 -3.515625 C 4.726562 -3.660156 4.40625 -3.78125 4 -3.875 L 3 -4.125 C 2.257812 -4.300781 1.710938 -4.582031 1.359375 -4.96875 C 1.003906 -5.363281 0.828125 -5.863281 0.828125 -6.46875 C 0.828125 -6.894531 0.9375 -7.273438 1.15625 -7.609375 C 1.375 -7.941406 1.691406 -8.203125 2.109375 -8.390625 C 2.535156 -8.578125 3.039062 -8.671875 3.625 -8.671875 C 4.269531 -8.671875 4.8125 -8.578125 5.25 -8.390625 C 5.695312 -8.210938 6.050781 -7.941406 6.3125 -7.578125 L 5.828125 -6.921875 L 5.671875 -6.921875 C 5.429688 -7.222656 5.140625 -7.441406 4.796875 -7.578125 C 4.460938 -7.722656 4.070312 -7.796875 3.625 -7.796875 C 3.03125 -7.796875 2.582031 -7.675781 2.28125 -7.4375 C 1.976562 -7.207031 1.828125 -6.894531 1.828125 -6.5 C 1.828125 -6.113281 1.9375 -5.804688 2.15625 -5.578125 C 2.382812 -5.347656 2.757812 -5.171875 3.28125 -5.046875 L 4.3125 -4.796875 C 5.132812 -4.597656 5.734375 -4.296875 6.109375 -3.890625 C 6.484375 -3.492188 6.671875 -2.984375 6.671875 -2.359375 C 6.671875 -1.867188 6.5625 -1.4375 6.34375 -1.0625 C 6.125 -0.695312 5.796875 -0.40625 5.359375 -0.1875 C 4.921875 0.0195312 4.378906 0.125 3.734375 0.125 Z M 3.734375 0.125 "/></g></g><g transform="translate(292.083353, 189.580141)"><g><path d="M 4.359375 -1.015625 L 4.65625 -0.34375 C 4.507812 -0.1875 4.3125 -0.0703125 4.0625 0 C 3.8125 0.0820312 3.546875 0.125 3.265625 0.125 C 2.035156 0.125 1.421875 -0.5 1.421875 -1.75 L 1.421875 -5.671875 L 0.296875 -5.671875 L 0.296875 -6.453125 L 1.421875 -6.453125 L 1.421875 -7.8125 L 2.359375 -7.96875 L 2.359375 -6.453125 L 4.4375 -6.453125 L 4.4375 -5.671875 L 2.359375 -5.671875 L 2.359375 -1.84375 C 2.359375 -1.101562 2.679688 -0.734375 3.328125 -0.734375 C 3.679688 -0.734375 3.984375 -0.828125 4.234375 -1.015625 Z M 4.359375 -1.015625 "/></g></g><g transform="translate(296.989652, 189.580141)"><g><path d="M 2.65625 0.125 C 2.019531 0.125 1.523438 -0.0390625 1.171875 -0.375 C 0.816406 -0.707031 0.640625 -1.179688 0.640625 -1.796875 C 0.640625 -2.171875 0.71875 -2.488281 0.875 -2.75 C 1.03125 -3.019531 1.273438 -3.238281 1.609375 -3.40625 C 1.941406 -3.570312 2.375 -3.695312 2.90625 -3.78125 C 3.375 -3.863281 3.726562 -3.953125 3.96875 -4.046875 C 4.21875 -4.148438 4.382812 -4.257812 4.46875 -4.375 C 4.550781 -4.5 4.59375 -4.648438 4.59375 -4.828125 C 4.59375 -5.117188 4.488281 -5.34375 4.28125 -5.5 C 4.082031 -5.65625 3.757812 -5.734375 3.3125 -5.734375 C 2.894531 -5.734375 2.535156 -5.648438 2.234375 -5.484375 C 1.941406 -5.328125 1.671875 -5.09375 1.421875 -4.78125 L 1.3125 -4.78125 L 0.84375 -5.4375 C 1.113281 -5.78125 1.457031 -6.050781 1.875 -6.25 C 2.300781 -6.457031 2.78125 -6.5625 3.3125 -6.5625 C 4.070312 -6.5625 4.632812 -6.394531 5 -6.0625 C 5.363281 -5.726562 5.546875 -5.269531 5.546875 -4.6875 L 5.546875 -1.265625 C 5.546875 -0.910156 5.695312 -0.734375 6 -0.734375 C 6.09375 -0.734375 6.1875 -0.75 6.28125 -0.78125 L 6.375 -0.765625 L 6.484375 -0.09375 C 6.410156 -0.0507812 6.316406 -0.0195312 6.203125 0 C 6.085938 0.03125 5.96875 0.046875 5.84375 0.046875 C 5.488281 0.046875 5.222656 -0.03125 5.046875 -0.1875 C 4.867188 -0.34375 4.753906 -0.570312 4.703125 -0.875 L 4.578125 -0.890625 C 4.390625 -0.546875 4.140625 -0.289062 3.828125 -0.125 C 3.515625 0.0390625 3.125 0.125 2.65625 0.125 Z M 2.875 -0.640625 C 3.226562 -0.640625 3.535156 -0.722656 3.796875 -0.890625 C 4.066406 -1.054688 4.269531 -1.285156 4.40625 -1.578125 C 4.539062 -1.878906 4.609375 -2.226562 4.609375 -2.625 L 4.609375 -3.4375 L 4.5 -3.46875 C 4.363281 -3.363281 4.191406 -3.273438 3.984375 -3.203125 C 3.773438 -3.140625 3.484375 -3.082031 3.109375 -3.03125 C 2.734375 -2.976562 2.4375 -2.898438 2.21875 -2.796875 C 2 -2.691406 1.84375 -2.554688 1.75 -2.390625 C 1.65625 -2.234375 1.609375 -2.035156 1.609375 -1.796875 C 1.609375 -1.421875 1.71875 -1.132812 1.9375 -0.9375 C 2.164062 -0.738281 2.476562 -0.640625 2.875 -0.640625 Z M 2.875 -0.640625 "/></g></g><g transform="translate(303.654042, 189.580141)"><g><path d="M 4.359375 -1.015625 L 4.65625 -0.34375 C 4.507812 -0.1875 4.3125 -0.0703125 4.0625 0 C 3.8125 0.0820312 3.546875 0.125 3.265625 0.125 C 2.035156 0.125 1.421875 -0.5 1.421875 -1.75 L 1.421875 -5.671875 L 0.296875 -5.671875 L 0.296875 -6.453125 L 1.421875 -6.453125 L 1.421875 -7.8125 L 2.359375 -7.96875 L 2.359375 -6.453125 L 4.4375 -6.453125 L 4.4375 -5.671875 L 2.359375 -5.671875 L 2.359375 -1.84375 C 2.359375 -1.101562 2.679688 -0.734375 3.328125 -0.734375 C 3.679688 -0.734375 3.984375 -0.828125 4.234375 -1.015625 Z M 4.359375 -1.015625 "/></g></g><g transform="translate(308.560341, 189.580141)"><g><path d="M 2.9375 0.125 C 2.53125 0.125 2.15625 0.0703125 1.8125 -0.03125 C 1.46875 -0.144531 1.175781 -0.296875 0.9375 -0.484375 C 0.695312 -0.671875 0.53125 -0.878906 0.4375 -1.109375 L 1 -1.6875 L 1.125 -1.6875 C 1.332031 -1.375 1.582031 -1.132812 1.875 -0.96875 C 2.175781 -0.8125 2.53125 -0.734375 2.9375 -0.734375 C 3.414062 -0.734375 3.773438 -0.820312 4.015625 -1 C 4.265625 -1.1875 4.390625 -1.445312 4.390625 -1.78125 C 4.390625 -2.03125 4.3125 -2.238281 4.15625 -2.40625 C 4.007812 -2.570312 3.769531 -2.695312 3.4375 -2.78125 L 2.359375 -3.046875 C 1.773438 -3.191406 1.347656 -3.414062 1.078125 -3.71875 C 0.816406 -4.019531 0.6875 -4.394531 0.6875 -4.84375 C 0.6875 -5.195312 0.773438 -5.5 0.953125 -5.75 C 1.128906 -6.007812 1.382812 -6.207031 1.71875 -6.34375 C 2.0625 -6.488281 2.460938 -6.5625 2.921875 -6.5625 C 3.515625 -6.5625 3.984375 -6.476562 4.328125 -6.3125 C 4.671875 -6.15625 4.9375 -5.925781 5.125 -5.625 L 4.59375 -5.109375 L 4.46875 -5.109375 C 4.257812 -5.335938 4.035156 -5.503906 3.796875 -5.609375 C 3.554688 -5.722656 3.265625 -5.78125 2.921875 -5.78125 C 2.503906 -5.78125 2.179688 -5.703125 1.953125 -5.546875 C 1.722656 -5.390625 1.609375 -5.171875 1.609375 -4.890625 C 1.609375 -4.628906 1.6875 -4.414062 1.84375 -4.25 C 2.007812 -4.09375 2.289062 -3.96875 2.6875 -3.875 L 3.75 -3.609375 C 4.3125 -3.472656 4.71875 -3.25 4.96875 -2.9375 C 5.21875 -2.632812 5.34375 -2.253906 5.34375 -1.796875 C 5.34375 -1.421875 5.253906 -1.085938 5.078125 -0.796875 C 4.898438 -0.503906 4.628906 -0.273438 4.265625 -0.109375 C 3.898438 0.046875 3.457031 0.125 2.9375 0.125 Z M 2.9375 0.125 "/></g></g></g><g clip-path="url(#f1b3848e6d)"><path fill="#4070a0" d="M 318.25 135.003906 L 397.070312 135.003906 L 397.070312 235.066406 L 318.25 235.066406 Z M 318.25 135.003906 " fill-opacity="1" fill-rule="nonzero"/></g><g fill="#000000" fill-opacity="1"><g transform="translate(336.438619, 189.580141)"><g><path d="M 1.296875 0 L 1.296875 -8.546875 L 4.390625 -8.546875 C 4.960938 -8.546875 5.441406 -8.453125 5.828125 -8.265625 C 6.222656 -8.078125 6.515625 -7.804688 6.703125 -7.453125 C 6.898438 -7.109375 7 -6.703125 7 -6.234375 C 7 -5.703125 6.867188 -5.265625 6.609375 -4.921875 C 6.347656 -4.578125 5.9375 -4.320312 5.375 -4.15625 L 5.375 -4.03125 C 5.644531 -3.914062 5.867188 -3.738281 6.046875 -3.5 C 6.222656 -3.269531 6.382812 -2.925781 6.53125 -2.46875 L 7.328125 0 L 6.28125 0 L 5.4375 -2.609375 C 5.332031 -2.921875 5.210938 -3.160156 5.078125 -3.328125 C 4.953125 -3.503906 4.785156 -3.628906 4.578125 -3.703125 C 4.378906 -3.785156 4.125 -3.828125 3.8125 -3.828125 L 2.296875 -3.828125 L 2.296875 0 Z M 4.375 -4.6875 C 4.90625 -4.6875 5.300781 -4.804688 5.5625 -5.046875 C 5.820312 -5.296875 5.953125 -5.675781 5.953125 -6.1875 C 5.953125 -6.695312 5.820312 -7.070312 5.5625 -7.3125 C 5.300781 -7.5625 4.90625 -7.6875 4.375 -7.6875 L 2.296875 -7.6875 L 2.296875 -4.6875 Z M 4.375 -4.6875 "/></g></g><g transform="translate(344.347105, 189.580141)"><g><path d="M 6.140625 -3 L 1.71875 -3 C 1.738281 -2.21875 1.921875 -1.644531 2.265625 -1.28125 C 2.617188 -0.914062 3.101562 -0.734375 3.71875 -0.734375 C 4.175781 -0.734375 4.539062 -0.8125 4.8125 -0.96875 C 5.09375 -1.132812 5.316406 -1.394531 5.484375 -1.75 L 5.609375 -1.75 L 6.21875 -1.375 C 6.03125 -0.90625 5.726562 -0.535156 5.3125 -0.265625 C 4.90625 -0.00390625 4.375 0.125 3.71875 0.125 C 3.09375 0.125 2.554688 0.00390625 2.109375 -0.234375 C 1.660156 -0.484375 1.3125 -0.859375 1.0625 -1.359375 C 0.820312 -1.859375 0.703125 -2.476562 0.703125 -3.21875 C 0.703125 -3.945312 0.828125 -4.5625 1.078125 -5.0625 C 1.335938 -5.570312 1.6875 -5.945312 2.125 -6.1875 C 2.570312 -6.4375 3.082031 -6.5625 3.65625 -6.5625 C 4.476562 -6.5625 5.117188 -6.328125 5.578125 -5.859375 C 6.046875 -5.398438 6.28125 -4.710938 6.28125 -3.796875 C 6.28125 -3.441406 6.273438 -3.203125 6.265625 -3.078125 Z M 5.34375 -3.796875 C 5.332031 -4.484375 5.179688 -4.984375 4.890625 -5.296875 C 4.597656 -5.609375 4.1875 -5.765625 3.65625 -5.765625 C 3.09375 -5.765625 2.648438 -5.609375 2.328125 -5.296875 C 2.003906 -4.984375 1.804688 -4.484375 1.734375 -3.796875 Z M 5.34375 -3.796875 "/></g></g><g transform="translate(351.215924, 189.580141)"><g><path d="M 2.9375 0.125 C 2.53125 0.125 2.15625 0.0703125 1.8125 -0.03125 C 1.46875 -0.144531 1.175781 -0.296875 0.9375 -0.484375 C 0.695312 -0.671875 0.53125 -0.878906 0.4375 -1.109375 L 1 -1.6875 L 1.125 -1.6875 C 1.332031 -1.375 1.582031 -1.132812 1.875 -0.96875 C 2.175781 -0.8125 2.53125 -0.734375 2.9375 -0.734375 C 3.414062 -0.734375 3.773438 -0.820312 4.015625 -1 C 4.265625 -1.1875 4.390625 -1.445312 4.390625 -1.78125 C 4.390625 -2.03125 4.3125 -2.238281 4.15625 -2.40625 C 4.007812 -2.570312 3.769531 -2.695312 3.4375 -2.78125 L 2.359375 -3.046875 C 1.773438 -3.191406 1.347656 -3.414062 1.078125 -3.71875 C 0.816406 -4.019531 0.6875 -4.394531 0.6875 -4.84375 C 0.6875 -5.195312 0.773438 -5.5 0.953125 -5.75 C 1.128906 -6.007812 1.382812 -6.207031 1.71875 -6.34375 C 2.0625 -6.488281 2.460938 -6.5625 2.921875 -6.5625 C 3.515625 -6.5625 3.984375 -6.476562 4.328125 -6.3125 C 4.671875 -6.15625 4.9375 -5.925781 5.125 -5.625 L 4.59375 -5.109375 L 4.46875 -5.109375 C 4.257812 -5.335938 4.035156 -5.503906 3.796875 -5.609375 C 3.554688 -5.722656 3.265625 -5.78125 2.921875 -5.78125 C 2.503906 -5.78125 2.179688 -5.703125 1.953125 -5.546875 C 1.722656 -5.390625 1.609375 -5.171875 1.609375 -4.890625 C 1.609375 -4.628906 1.6875 -4.414062 1.84375 -4.25 C 2.007812 -4.09375 2.289062 -3.96875 2.6875 -3.875 L 3.75 -3.609375 C 4.3125 -3.472656 4.71875 -3.25 4.96875 -2.9375 C 5.21875 -2.632812 5.34375 -2.253906 5.34375 -1.796875 C 5.34375 -1.421875 5.253906 -1.085938 5.078125 -0.796875 C 4.898438 -0.503906 4.628906 -0.273438 4.265625 -0.109375 C 3.898438 0.046875 3.457031 0.125 2.9375 0.125 Z M 2.9375 0.125 "/></g></g><g transform="translate(357.173573, 189.580141)"><g><path d="M 3.1875 0.125 C 2.457031 0.125 1.910156 -0.0664062 1.546875 -0.453125 C 1.191406 -0.835938 1.015625 -1.40625 1.015625 -2.15625 L 1.015625 -6.453125 L 1.96875 -6.453125 L 1.96875 -2.171875 C 1.96875 -1.191406 2.429688 -0.703125 3.359375 -0.703125 C 3.941406 -0.703125 4.398438 -0.894531 4.734375 -1.28125 C 5.078125 -1.664062 5.25 -2.285156 5.25 -3.140625 L 5.25 -6.453125 L 6.203125 -6.453125 L 6.203125 0 L 5.296875 0 L 5.296875 -1.015625 L 5.171875 -1.046875 C 4.953125 -0.648438 4.6875 -0.351562 4.375 -0.15625 C 4.070312 0.03125 3.675781 0.125 3.1875 0.125 Z M 3.1875 0.125 "/></g></g><g transform="translate(364.492136, 189.580141)"><g><path d="M 2.5625 0.125 C 2.101562 0.125 1.742188 -0.00390625 1.484375 -0.265625 C 1.222656 -0.523438 1.09375 -0.910156 1.09375 -1.421875 L 1.09375 -9.03125 L 2.046875 -9.03125 L 2.046875 -1.484375 C 2.046875 -1.222656 2.097656 -1.03125 2.203125 -0.90625 C 2.304688 -0.789062 2.46875 -0.734375 2.6875 -0.734375 C 2.820312 -0.734375 2.957031 -0.753906 3.09375 -0.796875 L 3.171875 -0.765625 L 3.28125 -0.015625 C 3.207031 0.0234375 3.101562 0.0546875 2.96875 0.078125 C 2.84375 0.109375 2.707031 0.125 2.5625 0.125 Z M 2.5625 0.125 "/></g></g><g transform="translate(367.996635, 189.580141)"><g><path d="M 4.359375 -1.015625 L 4.65625 -0.34375 C 4.507812 -0.1875 4.3125 -0.0703125 4.0625 0 C 3.8125 0.0820312 3.546875 0.125 3.265625 0.125 C 2.035156 0.125 1.421875 -0.5 1.421875 -1.75 L 1.421875 -5.671875 L 0.296875 -5.671875 L 0.296875 -6.453125 L 1.421875 -6.453125 L 1.421875 -7.8125 L 2.359375 -7.96875 L 2.359375 -6.453125 L 4.4375 -6.453125 L 4.4375 -5.671875 L 2.359375 -5.671875 L 2.359375 -1.84375 C 2.359375 -1.101562 2.679688 -0.734375 3.328125 -0.734375 C 3.679688 -0.734375 3.984375 -0.828125 4.234375 -1.015625 Z M 4.359375 -1.015625 "/></g></g><g transform="translate(372.902934, 189.580141)"><g><path d="M 2.9375 0.125 C 2.53125 0.125 2.15625 0.0703125 1.8125 -0.03125 C 1.46875 -0.144531 1.175781 -0.296875 0.9375 -0.484375 C 0.695312 -0.671875 0.53125 -0.878906 0.4375 -1.109375 L 1 -1.6875 L 1.125 -1.6875 C 1.332031 -1.375 1.582031 -1.132812 1.875 -0.96875 C 2.175781 -0.8125 2.53125 -0.734375 2.9375 -0.734375 C 3.414062 -0.734375 3.773438 -0.820312 4.015625 -1 C 4.265625 -1.1875 4.390625 -1.445312 4.390625 -1.78125 C 4.390625 -2.03125 4.3125 -2.238281 4.15625 -2.40625 C 4.007812 -2.570312 3.769531 -2.695312 3.4375 -2.78125 L 2.359375 -3.046875 C 1.773438 -3.191406 1.347656 -3.414062 1.078125 -3.71875 C 0.816406 -4.019531 0.6875 -4.394531 0.6875 -4.84375 C 0.6875 -5.195312 0.773438 -5.5 0.953125 -5.75 C 1.128906 -6.007812 1.382812 -6.207031 1.71875 -6.34375 C 2.0625 -6.488281 2.460938 -6.5625 2.921875 -6.5625 C 3.515625 -6.5625 3.984375 -6.476562 4.328125 -6.3125 C 4.671875 -6.15625 4.9375 -5.925781 5.125 -5.625 L 4.59375 -5.109375 L 4.46875 -5.109375 C 4.257812 -5.335938 4.035156 -5.503906 3.796875 -5.609375 C 3.554688 -5.722656 3.265625 -5.78125 2.921875 -5.78125 C 2.503906 -5.78125 2.179688 -5.703125 1.953125 -5.546875 C 1.722656 -5.390625 1.609375 -5.171875 1.609375 -4.890625 C 1.609375 -4.628906 1.6875 -4.414062 1.84375 -4.25 C 2.007812 -4.09375 2.289062 -3.96875 2.6875 -3.875 L 3.75 -3.609375 C 4.3125 -3.472656 4.71875 -3.25 4.96875 -2.9375 C 5.21875 -2.632812 5.34375 -2.253906 5.34375 -1.796875 C 5.34375 -1.421875 5.253906 -1.085938 5.078125 -0.796875 C 4.898438 -0.503906 4.628906 -0.273438 4.265625 -0.109375 C 3.898438 0.046875 3.457031 0.125 2.9375 0.125 Z M 2.9375 0.125 "/></g></g></g><path stroke-linecap="butt" transform="matrix(0.569368, 0.484526, -0.484526, 0.569368, 123.457681, 101.315703)" fill="none" stroke-linejoin="miter" d="M -0.00149316 1.998963 L 47.096913 1.998795 " stroke="#000000" stroke-width="4" stroke-opacity="1" stroke-miterlimit="4"/><path stroke-linecap="round" transform="matrix(0.569368, 0.484526, -0.484526, 0.569368, 123.457681, 101.315703)" fill="none" stroke-linejoin="round" d="M 39.099159 -3.997224 L 47.096913 1.998795 L 39.100673 8.000812 " stroke="#000000" stroke-width="4" stroke-opacity="1" stroke-miterlimit="4"/><path stroke-linecap="butt" transform="matrix(-0.565092, 0.489506, -0.489506, -0.565092, 190.684053, 102.445561)" fill="none" stroke-linejoin="miter" d="M 0.00283652 2.000637 L 48.925319 1.998253 " stroke="#000000" stroke-width="4" stroke-opacity="1" stroke-miterlimit="4"/><path stroke-linecap="round" transform="matrix(-0.565092, 0.489506, -0.489506, -0.565092, 190.684053, 102.445561)" fill="none" stroke-linejoin="round" d="M 40.924456 -3.999233 L 48.925319 1.998253 L 40.925259 8.001724 " stroke="#000000" stroke-width="4" stroke-opacity="1" stroke-miterlimit="4"/></svg>